<?xml version="1.0" standalone="no"?>
<!DOCTYPE svg PUBLIC "-//W3C//DTD SVG 20010904//EN"
 "http://www.w3.org/TR/2001/REC-SVG-20010904/DTD/svg10.dtd">
<svg version="1.0" xmlns="http://www.w3.org/2000/svg"
 width="700.000000pt" height="700.000000pt" viewBox="0 0 700.000000 700.000000"
 preserveAspectRatio="xMidYMid meet">
<metadata>
Created by potrace 1.14, written by Peter Selinger 2001-2017
</metadata>
<g transform="translate(0.000000,700.000000) scale(0.100000,-0.100000)"
fill="#000000" stroke="none">
<path d="M2247 5624 c-1 -1 -20 -5 -42 -8 -81 -13 -102 -18 -185 -41 -177 -50
-359 -144 -495 -255 -53 -44 -180 -173 -223 -228 -124 -158 -233 -400 -267
-592 -2 -14 -8 -43 -12 -65 -10 -54 -10 -353 0 -439 26 -235 133 -492 288
-696 79 -103 115 -139 497 -495 36 -33 84 -78 107 -100 24 -22 67 -62 96 -90
56 -51 290 -270 363 -338 52 -49 249 -233 290 -271 29 -27 245 -229 290 -271
330 -310 362 -335 471 -355 90 -17 166 -6 252 35 46 23 87 57 213 175 72 67
178 166 290 270 68 63 138 129 155 145 33 31 231 216 289 270 18 17 89 82 157
146 68 64 136 127 150 140 15 13 84 78 155 144 226 211 247 231 334 311 171
160 235 229 318 348 104 149 205 398 228 561 3 22 10 60 15 85 14 77 4 405
-15 495 -63 288 -184 512 -386 716 -116 117 -237 203 -383 272 -83 41 -221 90
-279 101 -13 2 -41 7 -63 11 -22 4 -49 10 -60 12 -39 9 -310 12 -355 3 -25 -4
-66 -11 -92 -14 -54 -7 -205 -50 -258 -72 -219 -95 -360 -190 -508 -342 l-83
-86 -82 81 c-115 113 -142 137 -222 192 -246 169 -527 253 -828 249 -65 -1
-119 -3 -120 -4z"/>
</g>
</svg>
