<?xml version="1.0" encoding="UTF-8"?><svg id="Layer_2" xmlns="http://www.w3.org/2000/svg" viewBox="0 0 141.64 118.98"><g id="Layer_1-2"><g><g><path d="M141.37,27.22c-.2,0-.42,.18-.7,.58-.24,.35-.73,1.22-1.49,2.67-1.76,3.04-3.59,5.79-5.44,8.18-1.85,2.38-3.43,3.97-4.69,4.7-.57,.4-.87,.49-1.04,.49-.09,0-.11-.02-.11-.02,0,0-.03-.12-.03-.73,.13-.78,.4-1.71,.8-2.74,.4-1.04,.98-2.14,1.72-3.28,.48-.82,1.05-1.86,1.69-3.07,.66-1.25,1.08-2.09,1.28-2.56,.29-.66,.38-1.15,.26-1.5-.11-.33-.49-.85-1.21-1.64-1.07-.89-1.18-1.21-1.18-1.31,0-.05,.03-.19,.28-.57l.28-.41,.44-.66c.29-.44,.53-.81,.72-1.13,.3-.51,.33-.62,.33-.7,0-.27-.19-.52-.59-.76-.24-.1-.42-.14-.55-.14s-.24,.04-.32,.11c-.11,.11-.3,.34-.57,.68-.41,.48-.78,.98-1.08,1.5-.33,.54-.48,.95-.48,1.26,0,.36,.13,.71,.38,1.06-.09,.04-.2,.12-.32,.24-.43,.63-1.02,1.47-1.8,2.52-.78,1.05-1.6,2.14-2.45,3.26-.86,1.14-1.72,2.23-2.55,3.26-.84,1.04-1.57,1.88-2.18,2.48-1.01,1.15-2.12,2.15-3.29,2.99-1.15,.82-2.06,1.24-2.7,1.24s-1.07-.27-1.38-.83c-.25-.51-.39-1.26-.39-2.21s.17-1.96,.5-2.95c.62-2.24,.93-2.65,1.02-2.73,.08,.04,.18,.06,.31,.06,.07,0,.16,0,.26-.02,.27-.03,.57-.05,.9-.05,1.27-.14,2.51-.66,3.72-1.56,1.2-.89,2.23-2.04,3.05-3.41,.56-.83,.88-1.43,.99-1.83,.1-.38,.19-.91,.26-1.61,.07-1.39-.35-2.2-1.25-2.42-.58-.19-.69-.21-.75-.21-.22,0-.67,.1-1.37,.31-1.46,.55-2.92,1.6-4.36,3.1-.73,.77-1.44,1.65-2.12,2.62l-.08,.05c-.1,.07-.21,.14-.32,.21-1.01,.64-1.82,1.1-2.43,1.36-.19,.06-.48,.17-.86,.3-.36,.13-.73,.25-1.11,.35-.38,.1-.73,.2-1.07,.31-.2,.06-.33,.09-.41,.11,.05-.13,.15-.38,.41-.84,.97-2.76,1.25-4.86,.83-6.25-.15-.37-.38-.73-.7-1.08-.32-.36-.67-.61-1.03-.76-.36-.18-.76-.27-1.17-.27-.54,0-1.12,.16-1.73,.49-.88,.41-1.79,1.02-2.68,1.81-.86,.76-1.87,1.81-2.99,3.12,.21-.4,.49-.89,.85-1.48,.71-1.19,1.53-2.53,2.45-4.03,.92-1.49,1.85-3.01,2.8-4.54,.95-1.52,1.77-2.81,2.44-3.82,.75-1.09,1.38-2.03,1.89-2.81,.79-1.21,.79-1.29,.79-1.37,0-.2-.18-.42-.58-.7-.38-.27-.63-.39-.81-.39-.23,0-.63,.17-1.71,1.49-.78,.96-1.71,2.25-2.76,3.84-1.03,1.56-2.2,3.38-3.57,5.56-1.33,2.11-2.65,4.38-3.93,6.74-.37,.68-.78,1.43-1.2,2.23-.15,.21-.33,.45-.52,.71-.39,.53-.77,1.01-1.12,1.42-.35,.41-.76,.93-1.23,1.53-.47,.61-.89,1.16-1.23,1.64-.54,.74-1.16,1.51-1.83,2.28-.68,.78-1.33,1.53-1.94,2.24-.61,.71-1.18,1.35-1.68,1.88-.5,.53-.88,.9-1.15,1.1-.94,.74-1.78,1.26-2.51,1.56-.33,.14-.59,.21-.77,.21-.2,0-.21-.08-.22-.13-.09-.35,.03-1.25,1.11-3.57,.88-1.89,2.21-4.39,3.97-7.43,1.09-1.77,1.93-3.35,2.51-4.71,.59-1.4,.88-2.35,.88-2.92s-.22-1.12-.66-1.59c-.44-.48-.96-.72-1.55-.72-.93,0-2.13,.6-3.67,1.82-1.5,1.19-2.95,2.69-4.31,4.46-.12,.16-.23,.3-.32,.42,.25-.58,.46-1.13,.62-1.64,.2-.64,.37-1.17,.51-1.58,.15-.87,.07-1.62-.21-2.26-.29-.66-.78-1.07-1.44-1.22-.08-.01-.16-.02-.24-.02-.81,0-1.99,.65-3.62,1.99-1.74,1.43-3.51,3.29-5.28,5.53-.21,.27-.39,.49-.53,.67,.31-.51,.79-1.27,1.52-2.41,.4-.6,.78-1.23,1.13-1.84,.35-.62,.58-1.02,.71-1.21,.15-.3,.33-.66,.38-.8,.06-.17,0-.35-.19-.53-.29-.22-.58-.4-.86-.54-.1-.05-.21-.08-.32-.08-.25,0-.52,.14-.8,.41-.35,.42-.92,1.26-1.76,2.58-.71,1.13-1.5,2.42-2.33,3.83-.86,.33-1.91,.66-3.13,.99-.68,.18-1.29,.28-1.81,.28-.34,0-.65-.04-.93-.12,.06-.16,.14-.33,.24-.53,.13-.19,.27-.41,.4-.65,.14-.24,.27-.5,.41-.77,3.04-5.33,6.46-10.37,10.18-14.96,3.71-4.59,7.75-8.77,12.01-12.42,.48-.41,.87-.75,1.17-1.02,.48-.42,.52-.54,.52-.64,0-.14-.08-.37-.58-.37-.38,0-1.07,.32-2.18,.99-1.07,.66-2.67,1.67-4.74,3.01-1.56,1.02-3.04,2.05-4.39,3.07-1.34,1.01-2.77,2.18-4.24,3.47-1.45,1.28-3.07,2.79-4.8,4.49-1.74,1.71-3.79,3.73-6.07,6.02-.41,.41-.77,.79-1.08,1.13-.31,.34-.66,.73-1.07,1.17-.41,.44-.9,.99-1.48,1.63-.62,.7-1.36,1.54-2.19,2.5-.81,.81-1.51,1.53-2.09,2.14-.52,.55-.83,.88-.94,.99-.18,.05-.39,.08-.62,.08h-1.73c-.95,0-1.68,.03-2.16,.1-.48,.07-1,.17-1.55,.31-.76,.21-1.54,.52-2.33,.93-1.04,.54-1.24,.82-1.26,1.03-.03,.06-.06,.17,0,.27,.02,.04,.08,.1,.2,.1,.03,0,.07,0,.11-.02,.09-.02,.32-.1,1.25-.47,1.14-.47,2.06-.77,2.72-.91,.67-.13,1.58-.2,2.72-.2l1.71-.08-.1,.1c-.46,.53-1.11,1.24-2.04,2.25-.87,.94-1.85,1.96-2.9,3.06-1.06,1.1-2.18,2.21-3.31,3.31-1.17,1.13-2.23,2.14-3.16,3-3.78,3.44-7.39,6.16-10.72,8.08-3.32,1.91-6.33,2.95-8.95,3.09-.23,.02-.44,.03-.66,.03-1.83,0-3.45-.78-4.81-2.32-.72-.92-1.21-1.88-1.44-2.83-.23-.96-.21-2.12,.05-3.44,.06-.26,.16-.62,.3-1.11,.13-.47,.29-.93,.45-1.36,.18-.46,.31-.83,.41-1.13,.11-.32,.17-.44,.2-.48,.03,0,.1-.02,.28-.02,.22,0,.53,.02,.93,.05,.43,.05,.93,.08,1.49,.08,.82,0,1.79-.06,2.88-.18,1.81-.21,3.41-.48,4.76-.82,2.86-.75,5.96-2.11,9.22-4.05,3.26-1.94,6.19-4.19,8.7-6.7,3.27-3.2,5.12-6.06,5.5-8.5,.39-2.51-.84-4.1-3.65-4.73-.62-.14-1.24-.21-1.82-.21s-1.37,.1-2.33,.31c-1.64,.34-3.43,.95-5.34,1.8-1.9,.85-3.86,1.93-5.84,3.22-.41,.28-.98,.69-1.74,1.28-.75,.58-1.52,1.2-2.3,1.84-.82,.68-1.54,1.3-2.2,1.89-.68,.61-1.2,1.13-1.55,1.55-1.48,1.41-2.98,3.12-4.44,5.05-1.46,1.93-2.58,3.67-3.33,5.17-.2,.33-.37,.64-.51,.92-.14,.29-.25,.39-.31,.42-.02,0-.04,0-.07,0-.21,0-.7-.1-1.84-.56-1.08-.44-2-.86-2.74-1.27-.79-.46-1.55-1.1-2.25-1.9-.69-.79-1.14-1.62-1.34-2.47-1.34-3.68,.33-8.25,4.96-13.61,2.36-2.7,4.92-5.07,7.62-7.06,2.69-1.98,5.63-3.57,8.73-4.72,2.9-1.15,5.57-1.97,7.93-2.44,1.83-.37,3.84-.55,5.95-.55,.6,0,1.23,.02,1.85,.04,3.56,.14,6.25,.63,7.99,1.46,1.71,.82,2.81,2.14,3.27,3.92,.17,.87,.26,1.13,.31,1.24,.03,.11,.08,.29,.25,.29,.2,0,.24-.24,.28-.42,.14-.86-.16-1.88-.89-3.03-.73-1.14-1.62-2-2.66-2.56-2.19-1.23-5.65-1.85-10.28-1.85-2.92,0-5.62,.28-8.04,.82-2.42,.55-5.22,1.44-8.33,2.66-1.84,.75-3.53,1.58-5.02,2.46-1.5,.89-3.15,2.06-4.91,3.48C4,20.23,.21,25.9,0,31.16c0,1.18,.17,2.25,.52,3.18,.35,.93,.9,1.89,1.66,2.85,.76,.83,1.56,1.51,2.39,2.03,.82,.51,1.97,1.05,3.39,1.6,1.68,.53,1.98,.69,2.03,.73,0,0,.05,.14-.19,.79-.27,.68-.52,1.58-.72,2.68-.21,1.1-.28,2.04-.21,2.8,0,1.57,.47,3.1,1.4,4.51,.94,1.42,2.11,2.39,3.5,2.87,1.01,.35,2.11,.52,3.28,.52,1.37,0,2.88-.24,4.47-.72,3.26-1.02,6.8-2.95,10.5-5.74,3.7-2.78,8.08-6.77,13.02-11.84,.61-.61,1.27-1.3,1.94-2.04,.7-.77,1.23-1.37,1.63-1.84l1.47-1.67,1.14,.09c.33,.07,.87,.12,1.64,.15,.72,.03,1.48,.05,2.25,.05,.73,.07,1.35,.1,1.84,.1,.2,0,.32,0,.4,.01-.06,.16-.15,.35-.25,.56-.27,.55-.52,1.14-.72,1.76-1.15,2.56-2.08,5.01-2.75,7.24-.68,2.24-1.09,4.17-1.23,5.74-.14,2,.25,3.85,1.14,5.5,.9,1.66,2.1,2.75,3.56,3.24,.55,.21,1.41,.31,2.55,.31s2.01-.07,2.64-.21c.49-.14,1.06-.35,1.71-.62,.65-.28,1.26-.57,1.8-.88,.54-.3,1.01-.6,1.39-.88,.44-.32,.63-.55,.63-.75,0-.27-.17-.37-.32-.37-.14,0-.38,.06-.97,.54-.53,.46-1.39,.92-2.55,1.35-1.17,.43-2.14,.72-2.88,.86-.09,0-.21,.01-.32,.01-.7,0-1.47-.17-2.28-.51-.95-.39-1.7-.93-2.23-1.58-1.32-1.52-1.76-3.95-1.29-7.21,.47-3.29,1.9-7.43,4.27-12.29,.34-.68,.57-1.19,.67-1.5,.04-.11,.09-.2,.16-.28,.64-.05,1.58-.14,2.81-.26,.99-.06,1.99-.3,2.97-.7-.84,1.45-1.65,2.9-2.42,4.33-.88,1.63-1.57,3.01-2.05,4.09-.9,1.87-1.35,3-1.39,3.47-.02,.25,.04,.45,.17,.59,.16,.17,.41,.25,.76,.25h.71l.05-.09,1.22-2.34c.46-.85,.86-1.61,1.17-2.25,.3-.6,.62-1.16,.96-1.66,.35-.52,.73-1.07,1.12-1.63,.42-.59,.93-1.29,1.53-2.09,.67-.94,1.25-1.73,1.73-2.34,.45-.58,.88-1.11,1.27-1.58,.37-.44,.75-.87,1.12-1.27,.35-.39,.8-.85,1.37-1.42,2.27-2.4,4.05-3.62,5.28-3.62,.12,0,.18,.01,.2,.02,0,.06,0,.21-.06,.6-.07,.53-.46,1.56-1.16,3.06-.71,1.52-1.65,3.25-2.79,5.13-.21,.34-.53,.89-.97,1.63-.44,.75-.92,1.55-1.43,2.39-.51,.85-.99,1.65-1.43,2.4-.44,.74-.73,1.26-.87,1.54-.35,.56-.53,.99-.53,1.3,0,.19,.08,.45,.44,.66,.26,.15,.54,.23,.85,.23,.4,0,.72-.18,.96-.53,.2-.3,.75-1.19,1.74-2.81,.54-.95,1.24-2.04,2.08-3.25,.84-1.21,1.72-2.43,2.6-3.61,.89-1.19,1.73-2.31,2.5-3.31,.77-1,1.43-1.79,1.97-2.33,2.06-2.06,3.7-3.11,4.88-3.11,.2,0,.33,.04,.38,.13,.05,.07,.09,.27-.13,.75-.14,.34-.54,1.11-1.22,2.28-.69,1.21-1.45,2.5-2.24,3.82-.41,.62-.86,1.36-1.33,2.2-.47,.85-.92,1.71-1.33,2.56-.43,.89-.8,1.68-1.12,2.4-.34,.75-.58,1.33-.72,1.75-.49,1.39-.69,2.42-.62,3.13,.07,.73,.47,1.29,1.19,1.65,.24,.23,.68,.34,1.32,.34,.59-.07,1.1-.23,1.56-.48,.45-.24,1.04-.66,1.81-1.29,.61-.47,1.22-1.05,1.8-1.7,.57-.64,1.52-1.76,2.91-3.42,.74-.95,1.39-1.75,1.94-2.4,.55-.65,1.03-1.24,1.43-1.74l.09-.11c-.49,1-.96,1.97-1.39,2.89-.75,1.6-1.41,3.03-1.99,4.28-.59,1.29-.91,2.12-.98,2.54-.06,.23-.02,.58,.49,.89,.32,.12,.58,.17,.81,.17,.42,0,.74-.17,.94-.52,.15-.15,.3-.39,.47-.74l.3-.59,.26-.53c.16-.42,.27-.69,.35-.88,.06,.36,.13,.65,.21,.86,.11,.29,.27,.58,.48,.86,.16,.17,.36,.31,.61,.45,.22,.13,.4,.26,.53,.38l.02,.02h.03c.36,.16,.88,.25,1.58,.28,.14,0,.28,.01,.42,.01,.53,0,1.02-.06,1.47-.17,1.32-.42,2.81-1.5,4.42-3.21,1.6-1.7,3.1-3.77,4.46-6.15l.78-1.26,1.56-.39,.76-.25,.78-.26c.62-.21,1.11-.42,1.46-.63,.33-.15,.69-.33,1.09-.57l-.05,.08c-.92,1.6-1.6,3.2-2,4.73-.41,1.54-.58,2.98-.52,4.28,.07,1.33,.47,2.33,1.18,2.97,.7,.63,1.34,1.02,1.91,1.16,.21,.05,.44,.08,.68,.08,.42,0,.88-.08,1.4-.24,.8-.24,1.56-.65,2.25-1.2,1.16-.88,2.73-2.5,4.66-4.81,1.92-2.29,4.1-5.14,6.48-8.47,.82-1.29,1.16-1.86,1.29-2.13,.17,.18,.37,.36,.61,.53,.12,.12,.27,.29,.43,.48,.16,.2,.31,.37,.45,.5,.15,.32,.13,.4,.13,.41-.02,.05-.09,.22-.35,.74-.12,.18-.34,.54-.71,1.16-.34,.58-.72,1.18-1.12,1.78-.88,1.36-1.62,2.67-2.2,3.9-.58,1.23-1.01,2.37-1.28,3.39-.27,1.04-.38,1.93-.31,2.66,.07,.77,.38,1.31,.9,1.61,.26,.2,.59,.3,.95,.3,.4,0,.86-.14,1.36-.4,.36-.22,.87-.66,1.57-1.35,.67-.67,1.4-1.47,2.15-2.36,.76-.9,1.48-1.77,2.14-2.6,.68-.85,1.2-1.6,1.54-2.22,.2-.34,.38-.6,.54-.79,.17-.21,.29-.38,.37-.52,.05-.06,.19-.27,.72-1.24,.4-.73,.85-1.53,1.37-2.44,.51-.88,.97-1.68,1.38-2.4,.63-1.11,.63-1.19,.63-1.26,0-.16-.11-.27-.27-.27Zm-9.01-4.4s-.04,0-.07-.01c.02,0,.04,0,.07,.01Zm-.2-.03s-.03,0-.04,0c0,0,.01,0,.02,0,0,0,.02,0,.02,0Zm-2.09,4.62s-.02,.02-.04,.03c.01,0,.03-.02,.04-.03Zm-7.46-2.81c.17,0,.33,.28,.45,.78,.06,.5-.07,1.15-.4,1.94-.34,.8-.81,1.6-1.4,2.36-.6,.77-1.3,1.5-2.07,2.17-.76,.66-1.52,1.13-2.24,1.4-.54,.2-1.06,.34-1.54,.4-.16,.02-.3,.03-.4,.03-.08,0-.13,0-.16-.01,.03-.11,.15-.43,.63-1.35,.44-.84,.93-1.64,1.46-2.37,.54-.88,1.36-1.86,2.43-2.94s1.91-1.78,2.51-2.11c.17-.05,.35-.12,.5-.2,.16-.08,.22-.08,.23-.08Zm-7.89,9.2h0Zm.13,.04h0Zm.27,0s-.04,0-.06,0h.06Zm-.64,.49s-.03,0-.05,.02c.02-.01,.03-.02,.05-.02Zm-.12,.08s-.04,.04-.06,.06c.02-.03,.04-.04,.06-.06Zm-.78,1.87c-.02,.07-.04,.13-.06,.21,.02-.08,.04-.14,.06-.21Zm.12-.38c.02-.07,.05-.13,.07-.2-.02,.07-.04,.13-.07,.2Zm.17-.49c.02-.06,.05-.12,.07-.18-.02,.06-.04,.11-.07,.18Zm.16-.4c.02-.05,.04-.09,.06-.14-.02,.05-.04,.09-.06,.14Zm.14-.31s.04-.07,.06-.1c-.02,.03-.04,.06-.06,.1Zm.53-.32c-.07-.01-.13-.03-.16-.06,.03,.03,.09,.05,.16,.06Zm.11,.01s-.04,0-.06,0c.08,0,.17,0,.3-.01-.09,.01-.17,.02-.24,.02Zm-22.3,6.29h0Zm-.02-.01h0Zm1.07-.22c.03-.72,.21-1.34,.54-1.85,.34-.81,.97-1.57,1.9-2.3,.93-.73,2.05-1.31,3.31-1.7,.21-.07,.55-.15,1-.25,.47-.1,.97-.2,1.48-.31,.5-.1,.99-.18,1.47-.25,.32-.04,.55-.07,.71-.09-.07,.17-.26,.52-.73,1.26-.66,1.03-1.36,2.09-2.09,3.16-.67,.94-1.43,1.84-2.27,2.68-.83,.83-1.52,1.39-2.05,1.65-.63,.29-1.19,.44-1.65,.44-.64,0-1.09-.29-1.39-.87-.19-.32-.27-.84-.24-1.55Zm10.82-7.81c-.17,.09-.76,.24-2.6,.49-.54,.07-1.07,.14-1.58,.2-.52,.07-.92,.17-1.21,.31-.55,.14-1.21,.36-1.94,.67-.76,.31-1.36,.64-1.78,1l-.13,.13c.09-.17,.22-.42,.44-.78,.51-.85,1.04-1.65,1.57-2.38,1.88-2.62,3.45-4.56,4.67-5.74,1.2-1.16,2.37-1.92,3.5-2.25,.27-.07,.46-.12,.57-.16,.09-.03,.18-.04,.3-.04,.07,0,.23,.03,.54,.19,.2,.08,.42,.2,.42,.36v.04c.13,.51,0,1.46-.4,2.82-.4,1.38-.91,2.69-1.52,3.9-.4,.89-.68,1.17-.84,1.25Zm2.36-9.43s.05,.01,.08,.02c-.03,0-.05-.02-.08-.02Zm-1.38,.07c.05-.01,.1-.03,.15-.04-.05,.01-.1,.02-.15,.04Zm.39-.09c.05,0,.1-.01,.15-.02-.05,0-.1,.01-.15,.02Zm-11.84,19.27c-.1-.12-.18-.24-.26-.39,.08,.15,.16,.28,.26,.39Zm.32,.29c-.08-.05-.15-.12-.22-.19,.07,.07,.14,.14,.22,.19Zm.85,.27c-.1,0-.2-.02-.3-.04,.09,.02,.2,.03,.3,.04Zm-.46-.08c-.09-.03-.17-.06-.25-.11,.08,.04,.16,.08,.25,.11Zm.64,.09s.1,0,.15-.01c-.05,0-.1,0-.15,.01Zm1.11-.23c-.06,.02-.11,.03-.16,.05,.05-.02,.11-.03,.16-.05Zm-.5,.15c-.06,.01-.11,.02-.17,.03,.06-.01,.11-.02,.17-.03Zm10.38-19.79s-.08,0-.13,0c.03,0,.06,0,.08,0,.01,0,.03,0,.04,0Zm-1.16,.22s-.09,.03-.13,.05c.04-.02,.09-.03,.13-.05Zm-23.98,20.22c.02,.09,.06,.15,.12,.2-.06-.04-.1-.11-.12-.2Zm.74,.22s-.08,.01-.12,.02c.04,0,.08,0,.12-.02Zm-.36,.05c-.07,0-.12-.02-.17-.04,.05,.02,.1,.04,.17,.04Zm-2.82-21.06c-.08-.01-.17-.02-.26-.01,.02,0,.04,0,.05,0,.07,0,.14,0,.21,.02Zm-3.12,1.46c-.19,.15-.39,.31-.6,.48,.21-.17,.41-.33,.6-.48Zm2.72-1.46c-.06,0-.13,.02-.19,.03,.07-.02,.13-.02,.19-.03Zm-.35,.07c-.07,.02-.14,.04-.22,.07,.08-.03,.15-.05,.22-.07Zm-.39,.14c-.08,.03-.16,.07-.24,.11,.08-.04,.17-.08,.24-.11Zm-.43,.21c-.09,.05-.18,.1-.27,.16,.09-.06,.19-.11,.27-.16Zm-.47,.28c-.1,.06-.21,.13-.31,.21,.11-.07,.21-.14,.31-.21Zm-.52,.34c-.12,.08-.25,.18-.37,.27,.13-.09,.25-.19,.37-.27Zm-7,7.13s-.06,.07-.09,.11c.03-.04,.06-.07,.09-.11Zm.27-.34s-.06,.07-.08,.1c.03-.04,.05-.07,.08-.1Zm-1.06,1.13s0,.04,.01,.04c-.01,0-.02-.01-.01-.04Zm.07,.02h0Zm.1-.09s.03-.03,.04-.04c-.01,.01-.03,.03-.04,.04Zm.39-.44s-.05,.06-.08,.09c.03-.03,.05-.06,.08-.09Zm-.2,.23s-.04,.05-.06,.07c.02-.02,.04-.05,.06-.07Zm2.72-7.93c-.06,0-.13,0-.19,.03,.06-.02,.12-.03,.18-.03h.01Zm-.47,.18c-.07,.05-.15,.11-.22,.19,.08-.08,.15-.14,.22-.19Zm.23-.13c-.06,.02-.11,.05-.17,.09,.06-.04,.11-.07,.17-.09Zm-7.74,7.76c-.33,.09-.65,.16-.94,.2,.3-.05,.61-.11,.94-.2Zm-5.73-.05c-.19,.06-.46,.09-.82,.09-.38,0-.86-.03-1.43-.1-1.83-.13-3.03-.24-3.57-.31-.42-.05-.6-.1-.67-.12,.03-.06,.11-.18,.32-.41,.3-.34,.9-.98,1.78-1.93,1.41-1.61,2.64-2.98,3.67-4.08,1.01-1.08,1.88-2.02,2.6-2.81,.71-.78,1.29-1.41,1.73-1.89,.45-.49,.83-.88,1.17-1.22,3.1-3.24,6.05-6.03,8.76-8.3,2.58-2.16,5.13-4.12,7.6-5.83-.07,.08-.15,.15-.24,.19h-.03l-.02,.03c-.12,.12-.4,.38-.91,.86-.48,.45-1.03,.98-1.64,1.58-.61,.61-1.22,1.22-1.83,1.84l-1.53,1.53c-2.85,3.06-5.55,6.35-8.02,9.81-2.47,3.45-4.55,6.86-6.18,10.12-.38,.61-.61,.85-.74,.94Zm3.3,.29c.07,0,.14,0,.21,.02-.07,0-.15,0-.21-.02Zm.65,.04c.18,0,.37-.02,.56-.05-.19,.02-.38,.04-.56,.05Zm-21.44,1.57v0Zm.06,.05h0s.04,0,.07-.01c-.03,0-.05,.01-.07,.01ZM12.76,53.22c-.06-.06-.13-.11-.19-.17,.06,.06,.13,.11,.19,.17Zm4.1,1.62c-.09,0-.19,0-.28-.01,.09,0,.19,.01,.28,.01Zm-.74-.05c-.1-.01-.2-.03-.29-.05,.1,.02,.19,.04,.29,.05Zm-.71-.14c-.1-.02-.19-.05-.29-.08,.1,.03,.19,.06,.29,.08Zm-.69-.22c-.09-.04-.19-.07-.28-.12,.09,.04,.19,.08,.28,.12Zm-.67-.31c-.09-.05-.18-.09-.27-.15,.09,.05,.18,.1,.27,.15Zm-.65-.4c-.08-.06-.16-.11-.24-.17,.08,.06,.16,.11,.24,.17Zm-3.2-13.2s.09,.01,.13,.02c-.04,0-.08,0-.13-.02ZM44.71,22.76c-.57,1.93-1.94,4-4.09,6.15-.67,.74-1.66,1.64-2.94,2.69-1.26,1.03-2.39,1.94-3.36,2.7-5.59,3.83-10.91,6.02-15.82,6.49-.74,.14-1.71,.2-2.89,.2s-2.05-.03-2.58-.1c-.3,0-.35-.07-.36-.11,.08-.21,.42-.81,.99-1.77,.61-1.02,1.26-2.05,1.93-3.05,2.15-3.03,4.51-5.78,7.01-8.18,2.49-2.39,5.29-4.49,8.33-6.25,2.02-1.21,3.93-2.13,5.68-2.74,1.74-.6,3.26-.91,4.53-.91,1.11,0,2.04,.26,2.75,.78,1.1,.84,1.36,2.18,.8,4.1ZM14.41,41.94c.23,0,.46,0,.71,0-.11,0-.22,0-.32,0-.14,0-.26,0-.39-.01Zm-1.09-.07c.25,.03,.52,.05,.81,.06-.29-.01-.56-.03-.81-.06Zm2.97,.02c-.35,.02-.68,.04-.99,.05,.31,0,.65-.03,.99-.05Zm.21-.02c.37-.03,.75-.06,1.15-.11-.4,.05-.78,.08-1.15,.11Zm-6.54-1.4c-.06-.01-.11-.03-.18-.04,.06,.02,.12,.03,.18,.04Zm-.55-.16c-.06-.02-.12-.04-.19-.06,.07,.02,.12,.04,.19,.06ZM37.32,5.63c-.15,0-.29,0-.44,0,.15,0,.29,0,.44,0Zm-1.84,.06c-.2,.01-.39,.03-.59,.04,.2-.01,.39-.03,.59-.04Zm-1.83,.16c-.17,.02-.35,.04-.52,.06,.17-.02,.35-.04,.52-.06Zm17.39,6.55c.02,.06,.03,.11,.05,.14-.02-.03-.03-.07-.05-.14Zm.06,.16s.02,.02,.03,.02h0s-.02,0-.03-.02Zm.07-.03s.01-.01,.02-.03c0,.02-.01,.02-.02,.03ZM16.7,55.52c.17,0,.33,0,.5,0-.05,0-.1,0-.15,0-.12,0-.24,0-.35-.01Zm-2.87-.5c.26,.09,.53,.17,.8,.23-.27-.07-.54-.14-.8-.23Zm1.07,.29c.18,.04,.37,.08,.56,.11-.19-.03-.37-.07-.56-.11Zm.9,.15c.17,.02,.35,.04,.53,.05-.18-.01-.35-.03-.53-.05Zm1.99,.05c.14,0,.28-.01,.43-.03-.14,.01-.29,.02-.43,.03Zm1.06-.11c.14-.02,.28-.03,.42-.06-.14,.02-.28,.04-.42,.06Zm1.14-.2c.12-.03,.24-.05,.36-.08-.12,.03-.24,.05-.36,.08Zm40.4,.63c.08,0,.16,.01,.24,.01-.08,0-.16,0-.24-.01Zm-.63-.09c.08,.02,.16,.03,.24,.04-.08-.01-.16-.02-.24-.04Zm7.87-2.58s0-.01-.02-.02c0,0,.01,.01,.02,.02Zm-.12-.06s-.02,0-.02,0c0,0,.02,0,.02,0h0Zm-.38,.15s.05-.03,.07-.04c-.02,.01-.05,.03-.07,.04Zm.19-.1s.04-.02,.06-.02c-.02,0-.04,.01-.06,.02Zm-.34,.2s-.05,.03-.07,.05c.03-.02,.05-.03,.07-.05Zm-7.66,2.29c-.07-.02-.14-.04-.21-.06,.07,.02,.14,.04,.21,.06Zm30.52-11.4c-.14-.02-.29-.06-.46-.12,.17,.06,.32,.1,.46,.12Zm.12,.01c.12,.01,.22,.01,.32,0-.06,0-.12,.02-.18,.02-.04,0-.09-.01-.14-.02Zm.37-.01c.11-.02,.21-.07,.3-.13-.09,.06-.18,.1-.3,.13Zm.35-.17c.08-.07,.16-.15,.22-.26-.06,.11-.14,.19-.22,.26Zm1.37-2.44l.03-.09-.03,.09Zm.4-.91l-.02,.02,.02-.02Zm-.08,.13h0Zm-.08,.17l-.03,.07,.03-.07Zm-.1,.22l-.04,.09,.04-.09Zm3.69,2.61c.27,.01,.53,0,.78,0-.12,0-.24,.02-.37,.02s-.27,0-.41-.01Zm1.04-.02c.28-.03,.54-.07,.79-.13-.25,.06-.52,.1-.79,.13Zm17.27,.45c.06,0,.12,0,.18,0-.03,0-.07,0-.1,0-.03,0-.05,0-.07,0Zm.59-.04c.06,0,.12-.01,.19-.03-.06,.01-.12,.02-.19,.03Zm12.61,.59s-.02-.01-.04-.01c.01,0,.02,.01,.04,.01Zm.41,.06s.05,0,.08,0c-.01,0-.03,0-.04,0s-.02,0-.04,0Zm.24-.01s.08,0,.12-.01c-.04,0-.08,.01-.12,.01Zm.3-.06s.08-.02,.12-.03c-.04,.01-.08,.02-.12,.03Zm.33-.11s.07-.02,.11-.04c-.04,.02-.07,.03-.11,.04Z"/><path d="M127.72,89.76h-.09s-.09,.01-.12,.04c-.23,.07-.89,.67-4.55,6.08-1.76,2.57-3.33,4.68-4.68,6.26-1.35,1.58-2.5,2.72-3.44,3.39-.87,.55-1.57,.83-2.05,.83-.18,0-.33-.04-.46-.12-.31-.21-.69-.9-.69-3.02-.07-.69-.09-1.28-.05-1.77,.03-.51,.12-1.13,.25-1.87,.14-.68,.24-1.21,.31-1.58,.06-.35,.16-.64,.29-.86,.12-.22,.3-.4,.51-.56,.24-.17,.63-.42,1.16-.76,1.98-1.43,3.73-2.88,5.23-4.3,1.5-1.44,2.51-2.65,2.99-3.62,.14-.28,.57-1.15,.1-1.49-.08-.05-.16-.08-.25-.08-.28,0-.56,.29-.87,.91-.34,.74-.93,1.58-1.76,2.51-.84,.94-1.85,1.9-2.99,2.84-.75,.75-1.62,1.48-2.59,2.19-.71,.51-1.08,.75-1.27,.86,.04-.18,.12-.48,.26-.98,.21-.72,.7-2.33,1.43-4.63l.71-2.14c.07-.28,.12-.49,.16-.62,.05-.21-.06-.41-.32-.59-.14-.14-.49-.28-1.07-.43-.25-.05-.43-.07-.57-.07-.08,0-.14,0-.19,.02-.15,.05-.29,.22-.46,.54-.21,.34-.46,.94-.77,1.8-.31,.85-.62,1.8-.92,2.81-.03,.11-.06,.22-.09,.33-.02,.08-.04,.17-.07,.25l-.06,.08-.26,.35c-.78,1.05-1.6,2.14-2.45,3.26-.86,1.14-1.72,2.23-2.55,3.26-.84,1.04-1.57,1.88-2.18,2.48-1.01,1.15-2.12,2.15-3.29,2.99-1.15,.82-2.06,1.24-2.7,1.24s-1.07-.27-1.38-.83c-.25-.51-.39-1.26-.39-2.21s.17-1.96,.5-2.95c.62-2.24,.93-2.65,1.02-2.73,.08,.04,.18,.06,.31,.06,.07,0,.16,0,.26-.02,.27-.03,.57-.05,.9-.05,1.27-.14,2.51-.66,3.72-1.56,1.2-.89,2.23-2.04,3.05-3.41,.56-.83,.88-1.43,.99-1.83,.1-.38,.19-.91,.26-1.61,.07-1.39-.35-2.2-1.25-2.42-.58-.19-.69-.21-.75-.21-.22,0-.67,.1-1.37,.31-1.46,.55-2.92,1.6-4.36,3.1-.71,.75-1.4,1.59-2.05,2.52-2.91,3.67-5.58,6.7-7.94,9-2.69,2.62-5.15,4.47-7.29,5.47-.65,.3-1.16,.45-1.5,.45-.03,0-.06,0-.09,0-.32-.03-.6-.22-.84-.59-.78-1.69,.05-5.17,2.46-10.33,.43-.86,.59-1.12,.64-1.19,.05-.06,.21-.21,.8-.45,1.23-.55,2.72-1.5,4.42-2.83,1.71-1.33,3.39-2.86,5.01-4.55,1.49-1.49,2.88-3,4.14-4.49,1.26-1.49,2.31-2.91,3.12-4.2,.82-1.29,1.42-2.47,1.8-3.5,.38-1.05,.47-1.91,.26-2.56-.19-.76-.71-1.16-1.51-1.16-.13,0-.27,.01-.41,.03h-.32c-1.38,.35-3.1,1.39-5.11,3.1-2,1.7-4.09,3.87-6.19,6.44-1.14,1.41-2.3,2.99-3.43,4.7-1.13,1.71-2.19,3.45-3.17,5.16-.43,.75-.85,1.55-1.27,2.35-.86,.33-1.9,.66-3.12,.98-.68,.18-1.29,.28-1.81,.28-.34,0-.65-.04-.93-.12,.06-.16,.14-.33,.24-.53,.13-.19,.27-.42,.4-.65,.14-.24,.27-.5,.41-.77,3.04-5.33,6.46-10.36,10.18-14.96,3.71-4.59,7.75-8.77,12.01-12.42,.48-.41,.87-.75,1.17-1.02,.48-.42,.52-.54,.52-.64,0-.14-.08-.37-.58-.37-.38,0-1.07,.32-2.18,.99-1.06,.65-2.66,1.66-4.74,3.01-1.56,1.02-3.04,2.05-4.39,3.07-1.35,1.01-2.77,2.18-4.24,3.47-1.44,1.28-3.06,2.79-4.8,4.49-1.75,1.72-3.79,3.74-6.07,6.02-.41,.41-.77,.79-1.08,1.13-.31,.34-.66,.73-1.07,1.17-.41,.44-.9,.99-1.48,1.63-.63,.7-1.36,1.54-2.19,2.5-.83,.83-1.52,1.53-2.09,2.14-.52,.55-.83,.88-.94,.99-.18,.05-.38,.08-.62,.08h-1.73c-.95,0-1.68,.03-2.16,.1-.48,.07-1,.17-1.55,.31-.76,.21-1.54,.52-2.33,.93-1.04,.54-1.24,.82-1.26,1.02-.03,.06-.06,.17,0,.27,.02,.04,.08,.1,.2,.1,.03,0,.07,0,.11-.02,.09-.02,.32-.1,1.24-.47,1.14-.47,2.06-.77,2.72-.91,.67-.13,1.58-.2,2.72-.2l1.71-.08-.1,.1c-.47,.53-1.13,1.27-2.04,2.25-.88,.95-1.86,1.98-2.9,3.06-1.05,1.09-2.17,2.2-3.31,3.31-1.19,1.16-2.23,2.14-3.16,3-3.78,3.44-7.39,6.16-10.72,8.08-3.32,1.91-6.33,2.95-8.95,3.09-.23,.02-.44,.03-.66,.03-1.83,0-3.45-.78-4.81-2.32-.72-.92-1.21-1.88-1.44-2.83-.23-.96-.21-2.12,.05-3.44,.07-.28,.17-.65,.3-1.11,.13-.47,.29-.92,.45-1.36,.18-.48,.31-.84,.41-1.13,.11-.32,.17-.44,.2-.48,.03,0,.1-.02,.28-.02,.22,0,.53,.02,.93,.05,.43,.05,.93,.08,1.49,.08,.82,0,1.79-.06,2.88-.18,1.81-.2,3.41-.48,4.76-.82,2.86-.75,5.96-2.11,9.22-4.05,3.26-1.93,6.19-4.19,8.7-6.7,3.27-3.2,5.12-6.06,5.5-8.5,.39-2.51-.84-4.1-3.65-4.73-.62-.14-1.24-.21-1.82-.21s-1.37,.1-2.33,.31c-1.64,.34-3.43,.95-5.33,1.8-1.9,.85-3.87,1.94-5.84,3.22-.41,.27-1,.71-1.74,1.28-.75,.58-1.52,1.19-2.3,1.84-.82,.68-1.54,1.3-2.2,1.89-.68,.61-1.2,1.13-1.55,1.55-1.48,1.41-2.98,3.12-4.44,5.05-1.46,1.93-2.58,3.67-3.33,5.17-.21,.34-.37,.65-.51,.92-.14,.29-.25,.39-.31,.42-.02,0-.04,0-.07,0-.21,0-.7-.1-1.84-.56-1.08-.44-2-.86-2.74-1.27-.79-.46-1.55-1.1-2.25-1.9-.69-.79-1.14-1.62-1.34-2.48-1.34-3.68,.33-8.25,4.96-13.61,2.36-2.7,4.92-5.07,7.62-7.06,2.69-1.98,5.63-3.57,8.73-4.72,2.9-1.15,5.57-1.97,7.93-2.44,1.83-.37,3.84-.55,5.96-.55,.6,0,1.23,.02,1.85,.04,3.56,.14,6.25,.63,7.99,1.46,1.71,.82,2.81,2.14,3.27,3.92,.17,.87,.26,1.13,.31,1.24,.03,.11,.08,.29,.25,.29,.2,0,.24-.24,.28-.42,.14-.86-.16-1.88-.89-3.03-.73-1.14-1.62-2-2.66-2.56-2.19-1.23-5.65-1.85-10.28-1.85-2.92,0-5.62,.28-8.04,.82-2.42,.55-5.22,1.44-8.33,2.66-1.84,.75-3.53,1.58-5.02,2.46-1.5,.89-3.15,2.06-4.91,3.48-7.28,5.92-11.07,11.58-11.28,16.85,0,1.18,.17,2.25,.52,3.18,.34,.93,.9,1.89,1.66,2.85,.76,.83,1.56,1.51,2.39,2.03,.82,.52,1.97,1.05,3.39,1.6,1.68,.53,1.98,.69,2.03,.73h0s.05,.14-.19,.79c-.27,.68-.52,1.58-.72,2.68-.21,1.1-.28,2.04-.21,2.8,0,1.57,.47,3.1,1.4,4.51,.94,1.42,2.11,2.38,3.5,2.87,1.01,.35,2.11,.52,3.28,.52,1.37,0,2.88-.24,4.47-.72,3.26-1.02,6.8-2.95,10.5-5.74,3.7-2.78,8.08-6.77,13.02-11.84,.61-.61,1.27-1.3,1.94-2.04,.71-.78,1.24-1.38,1.63-1.84l1.47-1.67,1.14,.09c.33,.07,.87,.12,1.64,.15,.72,.03,1.48,.05,2.25,.05,.73,.07,1.35,.1,1.84,.1,.2,0,.32,0,.4,.01-.06,.17-.15,.35-.25,.56-.27,.54-.52,1.14-.72,1.76-1.15,2.56-2.08,5-2.75,7.24-.68,2.24-1.09,4.18-1.23,5.74-.14,2,.25,3.85,1.14,5.5,.9,1.66,2.1,2.75,3.56,3.24,.55,.21,1.41,.31,2.55,.31s2.01-.07,2.64-.21c.49-.14,1.06-.35,1.71-.62,.65-.28,1.26-.57,1.8-.88,.54-.3,1.01-.6,1.39-.88,.44-.32,.63-.55,.63-.75,0-.27-.17-.37-.32-.37-.14,0-.38,.06-.97,.54-.53,.46-1.39,.92-2.55,1.35-1.17,.44-2.14,.72-2.88,.86-.09,0-.21,.01-.32,.01-.7,0-1.47-.17-2.28-.51-.95-.39-1.7-.93-2.23-1.58-1.32-1.52-1.76-3.95-1.29-7.21,.47-3.3,1.91-7.43,4.27-12.29,.34-.68,.57-1.18,.67-1.5,.04-.11,.09-.2,.16-.28,.64-.05,1.58-.14,2.81-.26,1.03-.06,2.07-.32,3.08-.75-.3,.62-.57,1.19-.81,1.73-.74,1.69-1.36,3.28-1.84,4.7-.21,.76-.34,1.35-.41,1.76-.07,.42-.1,1.01-.1,1.76s.04,1.28,.11,1.57c.07,.28,.18,.6,.31,.94,.29,.86,.91,1.41,1.85,1.63,.25,.07,.53,.11,.82,.11,1.63,0,3.87-1.18,6.67-3.51,.41-.34,.96-.86,1.64-1.54l1.05-1.05,1.15-1.15c.78-.78,1.54-1.59,2.25-2.4,.69-.79,1.3-1.48,1.83-2.08-.31,.75-.56,1.48-.75,2.18-.41,1.54-.58,2.98-.52,4.28,.07,1.33,.47,2.33,1.18,2.97,.7,.63,1.34,1.02,1.91,1.16,.21,.05,.44,.08,.68,.08,.42,0,.89-.08,1.4-.24,.8-.24,1.56-.65,2.25-1.2,1.16-.88,2.73-2.5,4.66-4.81,1.53-1.83,3.23-4.02,5.06-6.51-.04,.13-.07,.26-.11,.39-.28,1.08-.44,1.9-.51,2.52-.08,.57-.2,.75-.26,.82-.13,.13-.46,.4-1,.8-1.09,.75-2.2,1.76-3.29,2.98-1.09,1.23-1.92,2.44-2.47,3.61-.35,.77-.54,1.23-.57,1.41-.03,.16,.02,.26,.06,.32,.07,.09,.19,.14,.36,.14,.21,0,.51-.18,1.27-1.51,.27-.4,.51-.81,.72-1.23,.24-.48,.39-.69,.48-.77h.01v-.03c.34-.53,.9-1.21,1.67-2.01,.77-.8,1.43-1.41,1.97-1.82l.65-.43v2.03c0,.94,.02,1.66,.05,2.15,.04,.48,.09,.9,.16,1.24,.36,1.21,.96,2.07,1.81,2.56,.47,.21,.95,.31,1.43,.31,1.4,0,2.94-.83,4.58-2.48,.48-.48,1.07-1.17,1.75-2.06,.7-.91,1.46-1.91,2.24-2.96,.81-1.08,1.63-2.24,2.45-3.47,.8-1.21,1.59-2.41,2.35-3.57,.22-.36,.45-.73,.71-1.12,.27-.41,.48-.75,.61-1.02,.38-.47,.45-.66,.48-.76,.02-.09,.04-.2-.02-.28l-.05-.07Zm-.09,.16h0s-.03,0-.06,.03c.02-.02,.04-.03,.05-.03Zm-12.69,15.73c-.2,.13-.39,.24-.58,.34,.18-.1,.37-.21,.58-.34Zm-.73,.42c-.15,.08-.29,.14-.42,.2,.13-.06,.27-.12,.42-.2Zm-.52,.24c-.16,.06-.31,.11-.44,.14,.14-.03,.29-.08,.44-.14Zm-.54,.16c-.11,.02-.21,.03-.3,.04,.1,0,.2-.02,.3-.04Zm-.68,0c-.08-.02-.16-.06-.23-.11,.07,.05,.15,.08,.23,.11Zm.28,.04c-.07,0-.13-.01-.19-.02,.06,.01,.12,.02,.19,.02Zm-.6,.81c-.07-.01-.15,0-.22-.02,.07,.02,.15,.01,.22,.02Zm.38-11.45s.08-.02,.15-.05c-.07,.03-.12,.05-.15,.05Zm.19-.07c.07-.04,.16-.09,.27-.16-.11,.07-.2,.12-.27,.16Zm9.48-9.31s-.02,0-.03,0h.01s.01,0,.02,0Zm-.17,.04s-.02,.01-.02,.02c0,0,.02-.01,.02-.02Zm-.16,.14s-.02,.02-.03,.03c0-.01,.02-.02,.03-.03Zm-.19,.25s-.02,.04-.04,.06c.01-.02,.02-.04,.04-.06Zm-7.6,7.97c-.21,.15-.39,.28-.56,.4,.17-.12,.35-.25,.56-.4Zm-1.03,.71c.12-.08,.25-.16,.41-.27-.16,.11-.29,.2-.41,.27Zm.28-9.29s-.04,0-.05,0h.01s.03,0,.04,0Zm.21,.02s-.04,0-.07,0c.02,0,.04,0,.07,0Zm-8.39,.62c.17,0,.33,.28,.45,.78,.06,.5-.07,1.15-.4,1.94-.34,.8-.81,1.6-1.4,2.36-.6,.77-1.3,1.5-2.07,2.17-.76,.66-1.52,1.13-2.24,1.4-.54,.2-1.06,.34-1.54,.4-.16,.02-.3,.03-.4,.03-.08,0-.13,0-.16-.01,.03-.11,.15-.43,.63-1.35,.44-.84,.93-1.64,1.46-2.37,.54-.88,1.36-1.86,2.43-2.94,1.07-1.07,1.91-1.78,2.51-2.11,.17-.05,.35-.12,.5-.2,.16-.08,.22-.08,.23-.08Zm-7.89,9.2h0Zm.13,.04h0Zm.27,0s-.04,0-.06,0h.06Zm-.64,.49s-.03,0-.05,.02c.02-.01,.03-.02,.05-.02Zm-.12,.08s-.04,.04-.06,.06c.02-.03,.04-.04,.06-.06Zm-.13,.18s-.04,.06-.06,.1c.02-.04,.04-.07,.06-.1Zm-.14,.27s-.04,.09-.06,.14c.02-.05,.04-.09,.06-.14Zm-.15,.37c-.02,.06-.04,.11-.07,.18,.02-.06,.05-.12,.07-.18Zm-.17,.47c-.02,.07-.04,.13-.07,.2,.02-.07,.04-.13,.07-.2Zm-.19,.59c-.02,.07-.04,.13-.06,.2,.02-.07,.04-.13,.06-.2Zm1.13-1.92c-.07-.01-.13-.03-.16-.06,.03,.03,.09,.05,.16,.06Zm.11,.01s-.04,0-.06,0c.08,0,.17,0,.3-.01-.09,.01-.17,.02-.24,.02Zm-16.27,9.83c-.05,.02-.1,.03-.15,.05,.05-.02,.09-.03,.15-.05Zm-.44,.15c-.05,.02-.1,.02-.15,.04,.05-.01,.1-.02,.15-.04Zm-.38,.08s-.09,0-.13,.01c.04,0,.09,0,.13-.01Zm16.72-32.89c.93-.83,1.78-1.42,2.51-1.76,.53-.26,.7-.29,.75-.29h.04s.08-.02,.11-.02c.07,0,.11,.02,.15,.06,.09,.1,.2,.41,.04,1.39-.2,2.41-2.52,6.08-6.89,10.92-1.48,1.62-3.14,3.21-4.93,4.73-1.79,1.52-3.48,2.77-5.03,3.71-.51,.32-.81,.49-.99,.59,.05-.11,.13-.28,.26-.51,.3-.57,.71-1.29,1.22-2.13,.51-.85,1.05-1.77,1.63-2.75,.57-.97,1.1-1.85,1.58-2.59,1.02-1.49,2.11-2.96,3.25-4.37,1.15-1.42,2.26-2.74,3.31-3.92,1.04-1.18,2.05-2.2,2.99-3.04Zm3.42-2.23s.04,0,.06,.01c-.02,0-.04,0-.06-.01Zm.15,.04s.03,.02,.05,.03c-.02-.01-.03-.03-.05-.03Zm.12,.09s.03,.04,.04,.06c-.01-.02-.02-.04-.04-.06Zm.13,1.11s0-.08,0-.12c0,.04,0,.07,0,.12Zm.02-.35s0-.08,0-.12c0,.04,0,.08,0,.12Zm-.07-.61s.02,.05,.03,.08c0-.03-.02-.06-.03-.08Zm.05,.21s.01,.07,.01,.1c0-.04,0-.07-.01-.1Zm-.14-1.16s.03,0,.05,.01c-.01,0-.03,0-.05-.01Zm.69,.51s.02,.04,.03,.06c-.01-.02-.02-.04-.03-.06Zm-.25-.28s-.04-.03-.06-.04c.02,.01,.04,.03,.06,.04Zm-.87-.28s-.04,0-.06,0h.02s.02,0,.04,0Zm-23,22.76c-.33,.09-.65,.16-.94,.2,.3-.05,.61-.11,.94-.2Zm-5.73-.05c-.19,.06-.46,.09-.82,.09-.38,0-.86-.03-1.43-.1-1.83-.14-3.03-.24-3.57-.31-.42-.05-.6-.1-.67-.12,.03-.06,.1-.18,.32-.41,.3-.34,.9-.98,1.78-1.93,1.41-1.62,2.65-2.99,3.67-4.08,1-1.07,1.88-2.01,2.6-2.81,.71-.78,1.29-1.41,1.73-1.89,.45-.49,.84-.89,1.17-1.22,3.1-3.24,6.05-6.03,8.76-8.3,2.58-2.16,5.14-4.12,7.6-5.82-.07,.08-.15,.15-.24,.19h-.03l-.02,.03c-.14,.14-.44,.42-.91,.86-.49,.46-1.04,.99-1.64,1.58l-1.84,1.84-1.53,1.53c-2.85,3.06-5.55,6.35-8.02,9.81-2.47,3.45-4.55,6.86-6.18,10.12-.38,.61-.61,.85-.74,.94Zm3.3,.29c.07,0,.14,0,.21,.02-.07,0-.15,0-.21-.02Zm.65,.04c.18,0,.37-.02,.56-.05-.19,.02-.38,.04-.56,.05Zm-21.42,1.46c-.03,.06-.04,.1-.02,.13-.01-.03,0-.07,.02-.13Zm.03,.16s-.02-.01-.03-.02c.02,.01,.05,.02,.1,0-.03,0-.05,.01-.07,.01Zm-27.5,19.96c-.06-.06-.13-.11-.2-.17,.06,.06,.13,.11,.2,.17Zm4.1,1.62c-.09,0-.19,0-.28-.01,.09,0,.19,.01,.28,.01Zm-.74-.05c-.1-.01-.2-.03-.29-.05,.1,.02,.19,.04,.29,.05Zm-.71-.14c-.1-.02-.19-.05-.29-.08,.1,.03,.19,.06,.29,.08Zm-.69-.22c-.09-.04-.19-.07-.28-.12,.09,.04,.19,.08,.28,.12Zm-.67-.31c-.09-.05-.18-.09-.27-.15,.09,.05,.18,.1,.27,.15Zm-.65-.4c-.08-.06-.16-.11-.24-.17,.08,.06,.16,.11,.24,.17Zm-3.2-13.2s.09,.01,.13,.02c-.04,0-.08,0-.13-.02Zm34.5-17.77c-.57,1.93-1.94,4-4.09,6.15-.67,.74-1.66,1.64-2.94,2.69-1.26,1.03-2.4,1.94-3.36,2.7-5.59,3.83-10.91,6.02-15.81,6.49-.74,.14-1.71,.2-2.89,.2s-2.05-.03-2.58-.1c-.3,0-.35-.07-.36-.11,.08-.22,.42-.81,.99-1.77,.61-1.02,1.26-2.05,1.93-3.05,2.15-3.03,4.51-5.78,7.01-8.18,2.49-2.39,5.29-4.49,8.33-6.25,2.02-1.21,3.93-2.13,5.68-2.74,1.74-.6,3.26-.91,4.53-.91,1.11,0,2.04,.26,2.75,.78,1.1,.84,1.36,2.18,.8,4.1Zm-30.3,19.18c.23,0,.46,0,.71,0-.11,0-.22,0-.32,0-.14,0-.26,0-.39-.01Zm-1.09-.07c.25,.03,.52,.05,.81,.06-.29-.01-.56-.03-.81-.06Zm2.97,.02c-.35,.02-.68,.04-.99,.05,.31,0,.65-.03,.99-.05Zm.21-.02c.37-.03,.75-.06,1.15-.11-.4,.05-.78,.08-1.15,.11Zm-6.54-1.4c-.06-.01-.11-.03-.18-.05,.06,.02,.12,.03,.18,.05Zm-.55-.16c-.06-.02-.12-.04-.19-.06,.07,.02,.13,.04,.19,.06Zm27.91-34.68c-.15,0-.29,0-.44,0,.15,0,.29,0,.44,0Zm-1.84,.06c-.2,.01-.39,.03-.59,.04,.2-.01,.39-.03,.59-.04Zm-1.83,.16c-.17,.02-.35,.04-.52,.06,.17-.02,.35-.04,.52-.06Zm17.39,6.55c.02,.06,.03,.11,.05,.14-.02-.03-.03-.07-.05-.14Zm.06,.16s.02,.02,.03,.02h0s-.02,0-.03-.02Zm.07-.03s.01-.01,.02-.03c0,.02-.01,.02-.02,.03ZM30.53,117.89c.17,0,.33,0,.5,0-.05,0-.1,0-.15,0-.12,0-.24,0-.35-.01Zm-2.87-.5c.26,.09,.53,.17,.8,.23-.27-.07-.54-.14-.8-.23Zm1.07,.29c.18,.04,.37,.08,.56,.11-.19-.03-.37-.07-.56-.11Zm.9,.15c.17,.02,.35,.04,.53,.05-.18-.01-.35-.03-.53-.05Zm1.99,.05c.14,0,.28-.01,.43-.03-.14,.01-.29,.02-.43,.03Zm1.06-.11c.14-.02,.27-.03,.41-.06-.14,.02-.28,.04-.41,.06Zm1.15-.2c.12-.03,.24-.05,.36-.07-.12,.03-.24,.05-.36,.07Zm40.39,.63c.08,0,.16,.01,.24,.01-.08,0-.16,0-.24-.01Zm-.63-.09c.08,.02,.16,.03,.24,.04-.08-.01-.16-.02-.24-.04Zm7.87-2.58s0-.01-.02-.02c0,0,.01,.01,.02,.02Zm-.12-.06s-.02,0-.02,0c0,0,.02,0,.02,0h0Zm-.38,.15s.05-.03,.07-.04c-.02,.01-.05,.03-.07,.04Zm.19-.1s.04-.02,.06-.02c-.02,0-.04,.01-.06,.02Zm-.34,.2s-.05,.03-.07,.05c.03-.02,.05-.03,.07-.05Zm-7.66,2.29c-.07-.02-.14-.04-.21-.06,.07,.02,.14,.04,.21,.06Zm6.38-10.3c-.2-.01-.4-.04-.59-.09,.18,.05,.38,.08,.59,.09Zm.2,.01s-.06,0-.09,0c.18,0,.38-.01,.58-.04-.17,.02-.33,.04-.49,.04Zm2.18-.55c-.2,.09-.4,.16-.59,.23,.19-.07,.38-.14,.59-.23Zm-.82,.32c-.26,.08-.51,.14-.75,.18,.24-.04,.49-.1,.75-.18Zm4.09-2.35c.36-.27,.73-.56,1.11-.88-.38,.32-.75,.61-1.11,.88Zm-2.96,1.88c.19-.09,.37-.19,.57-.29-.19,.11-.38,.2-.57,.29Zm.93-.5c.2-.12,.4-.25,.61-.38-.21,.13-.41,.26-.61,.38Zm.98-.63c.23-.16,.47-.33,.7-.5-.24,.18-.48,.35-.7,.5Zm12.61,.78c.06,0,.12,0,.18,0-.03,0-.07,0-.1,0-.03,0-.05,0-.07,0Zm.59-.04c.06,0,.12-.01,.18-.03-.06,.01-.12,.02-.18,.03Zm15.26,.77c.2,0,.41-.02,.62-.06-.2,.03-.41,.06-.6,.06h-.01Zm2.82-1.03c-.23,.16-.46,.3-.68,.42,.22-.12,.45-.27,.68-.42Zm-.73,.45c-.21,.11-.41,.2-.62,.28,.2-.08,.41-.17,.62-.28Zm-.81,.35c-.16,.06-.32,.1-.48,.13,.16-.03,.32-.08,.48-.13Zm2.48-1.53c.24-.21,.48-.43,.72-.67-.24,.24-.48,.46-.72,.67Zm-.73,.59c.17-.13,.35-.26,.53-.41-.18,.15-.35,.28-.53,.41Zm12.01-16.14c.01-.06,.02-.09,.01-.11,0,.02,0,.05-.01,.11Z"/></g><g><path d="M68.17,62.72l1.74-3.96c.2-.45,.25-.8,.25-.99l.75-.07,2.15,4.78c.34,.75,.45,1.07,.96,1.19v.31h-2.67v-.32c.6-.1,.6-.36,.41-.8l-.13-.3c-.12-.28-.34-.32-.59-.32h-1.64c-.27,0-.46,.05-.57,.31l-.11,.25c-.21,.49,.03,.76,.67,.86v.32h-2.22v-.32c.56-.12,.77-.42,1-.94Zm1.23-.91h1.63c.11,0,.21-.09,.14-.25l-.87-1.94c-.08-.17-.12-.17-.19,0l-.86,1.97c-.06,.14,.05,.22,.15,.22Z"/><path d="M75.75,63.06v-4.37c0-.38-.28-.54-.73-.6v-.32h1.66l3.5,4.19v-3.27c0-.38-.28-.54-.73-.6v-.32h1.97v.32c-.45,.06-.73,.22-.73,.6v5.29h-.5l-3.93-4.7v3.78c0,.38,.28,.54,.73,.6v.32h-1.97v-.32c.45-.06,.73-.22,.73-.6Z"/><path d="M83.21,63.06v-4.37c0-.38-.24-.54-.69-.6v-.32h2.76c2.12,0,3.5,.87,3.5,3.05,0,2.61-2.06,3.14-3.29,3.14-.41,0-1.18-.06-1.72-.06-.42,0-.82,.03-1.25,.08v-.32c.45-.06,.69-.22,.69-.6Zm2.09,.5c1.42,0,2-1.22,2-2.74,0-1.68-.72-2.65-1.96-2.65h-.14c-.43,0-.63,.15-.63,.53v4.35c0,.43,.38,.51,.73,.51Z"/></g></g></g></svg>