<?xml version="1.0" standalone="no"?>
<!DOCTYPE svg PUBLIC "-//W3C//DTD SVG 1.1//EN" "http://www.w3.org/Graphics/SVG/1.1/DTD/svg11.dtd" >
<svg xmlns="http://www.w3.org/2000/svg" xmlns:xlink="http://www.w3.org/1999/xlink" version="1.1">
<metadata>
Created by FontForge 20200427 at Mon Mar 30 06:37:40 2015
 By www
Copyright (c) 2015 by Connary Fagen. All rights reserved.
</metadata>
<defs>
<font id="QuincyCF-Black" horiz-adv-x="699" >
  <font-face 
    font-family="Quincy CF Black"
    font-weight="900"
    font-stretch="normal"
    units-per-em="1000"
    panose-1="0 0 10 0 0 0 0 0 0 0"
    ascent="800"
    descent="-200"
    x-height="450"
    cap-height="621"
    bbox="-155 -326.556 1016 912"
    underline-thickness="50"
    underline-position="-150"
    unicode-range="U+0020-FB02"
  />
<missing-glyph horiz-adv-x="500" 
d="M0 0v700h500v-700h-500zM250 395l170 255h-340zM280 350l170 -255v510zM80 50h340l-170 255zM50 605v-510l170 255z" />
    <glyph glyph-name="fi" unicode="fi" horiz-adv-x="623" 
d="M204 486v-29h120q-15 -46 -25 -59t-27 -13h-68v-308q0 -17 9.5 -22.5t42.5 -5.5v-49h-226v49q36 0 46 5.5t10 22.5v308h-43q-10 0 -10 10v62h53v17q0 87 56.5 140t171.5 53q103 0 169.5 -35t66.5 -84q0 -22 -19.5 -39.5t-46.5 -17.5q-28 0 -47 17t-19 40q0 64 -104 64
q-29 0 -50 -8t-32 -20t-18 -30t-8.5 -33.5t-1.5 -34.5zM568 420v-342q0 -28 43 -28v-50h-207v50q44 0 44 28v282q0 17 -6.5 24t-21.5 7h-20v51l136 9q32 3 32 -31z" />
    <glyph glyph-name="fl" unicode="fl" horiz-adv-x="643" 
d="M552 582v-462q0 -28 14.5 -39.5t56.5 -3.5l-21 -57q-42 -20 -92 -20q-36 0 -56 20t-20 52v414q0 49 -45.5 87.5t-103.5 38.5q-28 0 -46 -11t-25 -33t-8.5 -38t-1.5 -44v-29h140q-15 -46 -25 -59t-27 -13h-88v-308q0 -17 9.5 -22.5t42.5 -5.5v-49h-226v49q30 0 43 6t13 22
v308h-43q-10 0 -10 10v62h53v17q0 87 49 140t150 53q79 0 163 -21l75 10q8 1 13.5 0t8.5 -5t5 -8t2.5 -12t0.5 -14t-0.5 -17t-0.5 -18z" />
    <glyph glyph-name="f_f" unicode="ff" horiz-adv-x="782" 
d="M785 598q12 -20 4 -42t-29 -30q-22 -9 -39.5 -0.5t-25.5 23.5q-15 30 -29.5 46t-37.5 16q-58 0 -63 -106v-8h-1v-22v-18h140q-22 -62 -29 -68q-5 -4 -14 -4h-97v-308q0 -17 9.5 -22.5t42.5 -5.5v-49h-216v49q28 0 37 5.5t9 22.5v308h-33q-10 0 -10 10v62h43v11v2
q0 64 -34.5 105.5t-97.5 41.5q-42 0 -68 -22.5t-34 -49.5t-8 -59v-29h140q-15 -46 -25 -59t-27 -13h-88v-308q0 -17 9.5 -22.5t42.5 -5.5v-49h-226v49q36 0 46 5.5t10 22.5v308h-43q-10 0 -10 10v62h53v17q0 86 59.5 142t168.5 56q102 0 179 -57q46 52 129 52q121 0 163 -69
z" />
    <glyph glyph-name=".notdef" horiz-adv-x="500" 
d="M0 0v700h500v-700h-500zM250 395l170 255h-340zM280 350l170 -255v510zM80 50h340l-170 255zM50 605v-510l170 255z" />
    <glyph glyph-name=".null" horiz-adv-x="0" 
 />
    <glyph glyph-name="nonmarkingreturn" horiz-adv-x="333" 
 />
    <glyph glyph-name="space" unicode=" " horiz-adv-x="220" 
 />
    <glyph glyph-name="exclam" unicode="!" horiz-adv-x="263" 
d="M160 217h-52q-2 82 -25 198t-23 158q0 35 22 57.5t52 22.5t52 -22.5t22 -57.5q0 -42 -23 -158t-25 -198zM134 -10q-28 0 -48 20.5t-20 48.5t20 48t48 20t48 -20t20 -48t-20 -48.5t-48 -20.5z" />
    <glyph glyph-name="quotedbl" unicode="&#x22;" horiz-adv-x="345" 
d="M42 593l20 -134q4 -25 34 -25q29 0 33 25l20 134q5 33 -9.5 50t-43.5 17t-44 -17t-10 -50zM196 593l20 -134q4 -25 34 -25q29 0 33 25l20 134q5 33 -9.5 50t-43.5 17t-44 -17t-10 -50z" />
    <glyph glyph-name="numbersign" unicode="#" horiz-adv-x="590" 
d="M472 466h74q16 0 14 -15l-5 -55q-1 -15 -16 -15h-88l-35 -139h89q15 0 14 -15l-5 -55q-2 -15 -16 -15h-103l-47 -187h-92l48 187h-89l-47 -187h-92l48 187h-75q-15 0 -14 15l5 55q2 15 16 15h91l36 139h-93q-16 0 -14 15l5 55q1 15 16 15h108l53 206h87l-52 -206h91
l53 206h87zM327 242l35 139h-90l-35 -139h90z" />
    <glyph glyph-name="dollar" unicode="$" horiz-adv-x="578" 
d="M549 183q5 -46 -14 -84t-54 -61.5t-75 -36.5t-83 -15v-47h-66v50q-24 4 -51.5 12.5t-42.5 14t-38 8t-38 -4.5l-52 157l53 20q23 8 34 -13q21 -39 22 -41q34 -69 113 -82v187q-185 58 -202 190q-10 82 46 138t156 62v52h66v-54q40 -5 73.5 -20t60 -30t46.5 -19l13 -127
l-57 -9q-20 -3 -24 12l-11 40q-7 28 -35.5 51t-65.5 32v-192q30 -9 49.5 -15.5t55 -23t57.5 -35t41 -49.5t23 -67zM172 473q4 -29 24.5 -46.5t60.5 -32.5v176q-43 -6 -66 -33.5t-19 -63.5zM323 227v-169q48 3 74 23.5t23 58.5q-3 32 -28 52t-69 35z" />
    <glyph glyph-name="percent" unicode="%" horiz-adv-x="721" 
d="M540 636h82l-432 -641h-112l427 592q-96 -80 -163 -58q-3 -22 -3 -23q-13 -63 -57.5 -100.5t-111.5 -37.5q-61 0 -90 42t-17 96q12 56 58 96.5t114 40.5q39 0 66 -21q33 -16 59 -23.5t76.5 -1t103.5 38.5zM255 506q8 28 0.5 58.5t-34.5 30.5q-31 0 -52 -28t-28 -61
q-7 -35 1.5 -62t39.5 -27q28 0 47.5 27.5t25.5 61.5zM544 264q59 0 87 -43t17 -94q-13 -63 -57.5 -100.5t-111.5 -37.5q-61 0 -90 42t-17 96q12 56 58 96.5t114 40.5zM564 127q8 28 0.5 58.5t-34.5 30.5q-31 0 -52 -28t-28 -61q-7 -35 1.5 -62t39.5 -27q28 0 47.5 27.5
t25.5 61.5z" />
    <glyph glyph-name="ampersand" unicode="&#x26;" horiz-adv-x="790" 
d="M294 309l-23 3q-35 6 -66.5 -28.5t-31.5 -87.5q0 -66 48.5 -106t119.5 -40q77 0 128.5 42.5t51.5 94.5q0 36 -17 60.5t-39 24.5q-32 0 -46 -23.5t5 -45.5h-55q-22 20 -22 51q0 20 15.5 34.5t51.5 38.5l128 82q34 22 46 30t25 27.5t13 44.5q0 33 -19 49t-52 9l-12 -2
q-13 -3 -17 16q-5 18 7 23q33 11 57 15q56 7 105.5 -27.5t49.5 -98.5q0 -28 -15.5 -53t-45.5 -46.5t-54.5 -35t-62 -31.5t-48.5 -24q66 -16 93.5 -46.5t28.5 -78.5q1 -85 -87.5 -140t-213.5 -55t-210 59.5t-85 160.5q0 77 52.5 119t117.5 36q-56 11 -84.5 44.5t-28.5 78.5
q0 62 52 108t144 46q57 0 104.5 -24t63.5 -70q7 -20 -7 -39t-35 -21q-20 -2 -34.5 11t-16.5 32q-4 52 -70 52q-36 0 -57 -25.5t-21 -62.5q0 -42 20 -76t63 -47z" />
    <glyph glyph-name="quotesingle" unicode="'" horiz-adv-x="190" 
d="M42 593l20 -134q4 -25 34 -25q29 0 33 25l20 134q5 33 -9.5 50t-43.5 17t-44 -17t-10 -50z" />
    <glyph glyph-name="parenleft" unicode="(" horiz-adv-x="340" 
d="M167 296q-1 -133 37.5 -251t102.5 -193q15 -18 -5 -18h-28q-11 0 -19 7q-103 75 -156.5 193.5t-53.5 261.5t53.5 261.5t156.5 193.5q8 7 19 7h26q10 0 13.5 -4t-1.5 -9q-67 -75 -106.5 -194t-38.5 -255z" />
    <glyph glyph-name="parenright" unicode=")" horiz-adv-x="340" 
d="M173 296q1 136 -38.5 255t-106.5 194q-5 5 -1.5 9t13.5 4h26q11 0 19 -7q103 -75 156.5 -193.5t53.5 -261.5t-53.5 -261.5t-156.5 -193.5q-8 -7 -19 -7h-28q-20 0 -5 18q64 75 102.5 193t37.5 251z" />
    <glyph glyph-name="asterisk" unicode="*" horiz-adv-x="317" 
d="M118 598l30 -78q2 -6 6 -8.5t7.5 0t5.5 8.5l31 78q-4 34 -40 39q-36 -5 -40 -39zM133 508l-55 67q-32 14 -54 -14q-14 -34 13 -54l80 -18q11 -2 17 5t-1 14zM239 575l-55 -67q-7 -7 -1 -14t17 -5l80 18q27 21 13 54q-23 27 -54 14zM118 473l-81 -17q-27 -21 -13 -55
q22 -28 54 -14l54 67q7 7 1.5 14t-15.5 5zM280 456l-81 17q-10 2 -15.5 -5t1.5 -14l54 -67q31 -13 54 14q13 33 -13 55zM148 444l-30 -78q4 -34 40 -39q36 5 40 39l-30 78q-4 10 -10 10t-10 -10z" />
    <glyph glyph-name="plus" unicode="+" horiz-adv-x="510" 
d="M440 291v-79h-145v-147h-79v147h-146v79h146v145h79v-145h145z" />
    <glyph glyph-name="comma" unicode="," horiz-adv-x="230" 
d="M186 -37q-17 -56 -60 -93q-12 -8 -21 2l-21 24q33 37 39 53q10 27 6 43q-10 -2 -29 -1q-24 3 -40.5 25t-12.5 49q3 29 26 46.5t51 14.5q27 -3 44.5 -22.5t21.5 -45.5q9 -49 -4 -95z" />
    <glyph glyph-name="hyphen" unicode="-" horiz-adv-x="380" 
d="M45 287h270v-73h-270v73z" />
    <glyph glyph-name="period" unicode="." horiz-adv-x="246" 
d="M123 -10q-28 0 -48 20.5t-20 48.5t20 48t48 20t48 -20t20 -48t-20 -48.5t-48 -20.5z" />
    <glyph glyph-name="slash" unicode="/" horiz-adv-x="454" 
d="M314 641h93l-267 -641h-93z" />
    <glyph glyph-name="zero" unicode="0" horiz-adv-x="612" 
d="M577 313q0 -135 -74 -230t-197 -95t-197 95t-74 230q0 134 74 228.5t197 94.5t197 -94.5t74 -228.5zM306 60q137 0 137 253q0 114 -32.5 182.5t-104.5 68.5t-105 -68t-33 -183q0 -253 138 -253z" />
    <glyph glyph-name="one" unicode="1" horiz-adv-x="350" 
d="M240 609v-516q0 -5 2.5 -9t8 -7t10 -5t13.5 -4l13.5 -3t15 -3t12.5 -2v-60h-270v60q59 10 70 21q5 5 5 12v373q0 18 -7.5 26.5t-21.5 4.5l-51 -14v72l158 70q17 7 29.5 1.5t12.5 -17.5z" />
    <glyph glyph-name="two" unicode="2" horiz-adv-x="604" 
d="M559 147l-23 -124q-5 -23 -30 -23h-461q9 52 29 97.5t42.5 77.5t55 62.5t56.5 48t56 38.5q11 7 33 20.5t30.5 19.5t22.5 17.5t19.5 20.5t10 23t4.5 31q0 57 -30.5 85.5t-75.5 28.5q-96 0 -110 -64q-8 -34 -1 -64.5t6 -37.5q-17 -44 -70 -44q-29 0 -48 17t-19 39
q0 106 62 163.5t179 57.5q109 0 173 -47.5t64 -133.5q0 -32 -10.5 -60.5t-22.5 -47t-38.5 -40t-41 -31t-48 -29t-42.5 -24.5q-18 -11 -48 -28.5t-41.5 -24.5t-28 -19.5t-25.5 -25t-16 -28.5l244 -2q34 0 50 5t29 24l16 22h48z" />
    <glyph glyph-name="three" unicode="3" horiz-adv-x="617" 
d="M408 371q34 3 69.5 -10.5t65 -53.5t29.5 -101q0 -88 -82.5 -153t-182.5 -65q-118 0 -184.5 46t-71.5 122q-5 69 57 69q27 0 41.5 -9.5t17.5 -21t7 -34t9 -35.5q12 -31 45 -49t81 -18q61 0 97.5 34t36.5 95q0 58 -28 89.5t-72 31.5q-20 0 -38 -6l-40 -14l-22 59l43 17
q58 24 84.5 50t26.5 68q0 41 -23 66t-73 25q-46 0 -70 -20t-28 -45q-2 -16 -2 -30t-2 -24q-16 -19 -43 -20.5t-47.5 13t-20.5 37.5q0 58 57 105.5t156 47.5q98 0 157.5 -45.5t59.5 -100.5q0 -50 -34.5 -82t-75.5 -38z" />
    <glyph glyph-name="four" unicode="4" horiz-adv-x="583" 
d="M533 191h-76v-96q0 -8 5 -14t17.5 -9.5t18.5 -5t23 -4.5v-62h-251v62q55 9 64 22q3 5 3 11v96h-282v64l306 375q22 27 59 15.5t37 -46.5v-341h76v-67zM147 258h190v233z" />
    <glyph glyph-name="five" unicode="5" horiz-adv-x="608" 
d="M558 205q0 -97 -75.5 -157t-187.5 -60q-114 0 -179 46.5t-70 121.5q-5 67 56 67q28 0 43 -9t18 -20.5t6.5 -33.5t8.5 -36q11 -30 42.5 -48.5t74.5 -18.5q58 0 93.5 30.5t35.5 99.5q0 77 -41.5 120.5t-106.5 43.5q-36 0 -77 -13t-60 -34h-58l24 317h349l17 13l30 1
l-11 -108l-17 -15h-309l-11 -127q76 48 164 48q38 0 78.5 -14t78 -40t61 -71.5t23.5 -102.5z" />
    <glyph glyph-name="six" unicode="6" horiz-adv-x="579" 
d="M452 581l-16 -24q-5 -9 -18 -3q-39 14 -95 14q-44 0 -73 -17.5t-44.5 -52.5t-22.5 -71.5t-11 -91.5q18 22 56 44t87 22q89 0 154 -56t65 -149q0 -86 -68 -147t-170 -61q-123 0 -187 85t-63 220q1 146 72.5 244.5t199.5 98.5q82 0 132 -37q9 -7 2 -18zM174 261
q-5 -88 27.5 -145.5t94.5 -57.5q64 0 90 41t26 100q0 57 -30 93.5t-77 36.5q-54 0 -92 -25t-39 -43z" />
    <glyph glyph-name="seven" unicode="7" horiz-adv-x="559" 
d="M398 507h-289l-21 -45h-48l31 136q5 23 28 23h425l-315 -626h-41q-14 0 -21.5 10.5t-0.5 23.5z" />
    <glyph glyph-name="eight" unicode="8" horiz-adv-x="610" 
d="M396 348q71 -14 117.5 -60.5t46.5 -116.5q0 -75 -74 -130t-183 -55q-115 0 -184 53t-69 137q0 56 41.5 100.5t107.5 68.5q-115 44 -115 131q0 67 62 109.5t158 42.5q91 0 151 -42.5t60 -111.5q0 -44 -35.5 -80.5t-83.5 -45.5zM284 384l51 -12q36 -8 61 29t25 75
q0 13 -4 26t-15 29t-37 26t-63 10q-96 0 -96 -91q0 -21 4 -36t22.5 -31.5t51.5 -24.5zM430 172q0 45 -24.5 73.5t-91.5 43.5l-77 18q-31 7 -57.5 -33t-26.5 -86q0 -128 149 -128q73 0 100.5 29.5t27.5 82.5z" />
    <glyph glyph-name="nine" unicode="9" horiz-adv-x="578" 
d="M127 46l16 24q5 9 18 3q39 -14 95 -14q44 0 73 17.5t44.5 52.5t22.5 71.5t11 91.5q-18 -22 -56 -44t-87 -22q-89 0 -154 56t-65 149q0 86 68 147t170 61q123 0 187 -85t63 -220q-1 -146 -72.5 -244.5t-199.5 -98.5q-82 0 -132 37q-9 7 -2 18zM405 366q5 88 -27.5 145.5
t-94.5 57.5q-64 0 -90 -41t-26 -100q0 -57 30 -93.5t77 -36.5q54 0 92 25t39 43z" />
    <glyph glyph-name="colon" unicode=":" horiz-adv-x="246" 
d="M123 310q-28 0 -48 20.5t-20 48.5t20 48t48 20t48 -20t20 -48t-20 -48.5t-48 -20.5zM123 -10q-28 0 -48 20.5t-20 48.5t20 48t48 20t48 -20t20 -48t-20 -48.5t-48 -20.5z" />
    <glyph glyph-name="semicolon" unicode=";" horiz-adv-x="230" 
d="M118 309q-28 0 -48 20.5t-20 48.5t20 48t48 20t48 -20t20 -48t-20 -48.5t-48 -20.5zM186 -37q-17 -56 -60 -93q-12 -8 -21 2l-21 24q33 37 39 53q10 27 6 43q-10 -2 -29 -1q-24 3 -40.5 25t-12.5 49q3 29 26 46.5t51 14.5q27 -3 44.5 -22.5t21.5 -45.5q9 -49 -4 -95z" />
    <glyph glyph-name="less" unicode="&#x3c;" horiz-adv-x="515" 
d="M70 211v79q205 78 375 171v-93q-139 -72 -282 -117q86 -28 144.5 -52.5t137.5 -65.5v-93q-170 93 -375 171z" />
    <glyph glyph-name="equal" unicode="=" horiz-adv-x="510" 
d="M70 381h370v-79h-370v79zM70 201h370v-79h-370v79z" />
    <glyph glyph-name="greater" unicode="&#x3e;" horiz-adv-x="515" 
d="M445 290v-79q-205 -78 -375 -171v93q79 41 137.5 65.5t144.5 52.5q-143 45 -282 117v93q170 -93 375 -171z" />
    <glyph glyph-name="question" unicode="?" horiz-adv-x="504" 
d="M45 484q0 -43 23 -69t51 -24.5t51 19.5q22 27 16.5 48t-15 49.5t-1.5 42.5q25 50 91 50q38 0 61 -21.5t23 -55.5q0 -33 -15.5 -57.5t-72.5 -70.5q-57 -47 -49 -113l12 -75h60l10 75q1 8 15 18.5t43.5 30.5t54.5 43q46 41 54 92t-15.5 93t-72.5 70.5t-109 28.5
q-96 0 -155.5 -50t-59.5 -124zM250 -10q-28 0 -48 20.5t-20 48.5t20 48t48 20t48 -20t20 -48t-20 -48.5t-48 -20.5z" />
    <glyph glyph-name="at" unicode="@" horiz-adv-x="748" 
d="M488 -40l12 -23q-53 -20 -125 -20q-140 0 -235 95.5t-95 236.5q0 140 95.5 235.5t234.5 95.5q140 0 234 -92t94 -236q0 -78 -27.5 -121.5t-106.5 -60.5q-84 -18 -120 27q-41 -39 -110 -39q-54 0 -94 25.5t-40 70.5q0 49 49 83t180 54v8q0 28 -3 45.5t-17 32t-40 13.5
q-11 0 -34 -7q-4 -1 -6 -9.5t-3.5 -22t-3.5 -20.5q-3 -12 -23 -21t-43 -6q-46 11 -35 60q6 26 45.5 46t88.5 25q86 7 130.5 -28.5t44.5 -106.5v-159q0 -19 6 -24t20 -2q37 8 37 136q0 125 -59.5 199t-163.5 74q-102 0 -162.5 -77t-60.5 -199q0 -121 60.5 -198.5t162.5 -77.5
q28 0 56 5q44 9 57 -17zM355 109q44 0 79 56v85q-73 -15 -97 -39.5t-24 -56.5q0 -45 42 -45z" />
    <glyph glyph-name="A" unicode="A" horiz-adv-x="707" 
d="M398 583l201 -448q22 -49 36 -61t52 -21v-53h-244v54q40 7 47 12.5t-1 22.5l-56 127h-212l-50 -122q-6 -15 6.5 -24t49.5 -16v-54h-207v54q40 8 50 15.5t24 41.5l219 518l45 -13q29 -9 40 -33zM246 276h161l-83 190z" />
    <glyph glyph-name="B" unicode="B" horiz-adv-x="657" 
d="M441 336q91 -13 136 -55t45 -104q0 -88 -70 -134t-192 -43l-88 2q-142 9 -247 -2v59q65 14 65 48v416q0 34 -64 44v54h295q267 0 267 -147q0 -46 -35.5 -84t-111.5 -54zM225 562v-201h159q27 0 44.5 28t17.5 80q0 43 -30 68t-90 25h-101zM254 65h87q73 0 106 22.5
t33 89.5q0 68 -49.5 101t-162.5 33h-43v-203q0 -43 29 -43z" />
    <glyph glyph-name="C" unicode="C" horiz-adv-x="654" 
d="M606 434l-59 -19q-17 -5 -23 11q-2 6 -14 36q-44 108 -150 108q-80 0 -128 -60.5t-48 -181.5q0 -110 57.5 -186t143.5 -76q88 0 141 68q5 6 11.5 15.5t10 13.5t8.5 8t10 4q11 0 26 -10.5t16 -21.5q2 -12 -10 -34q-72 -124 -244 -124q-82 0 -153.5 38t-118.5 116.5
t-47 182.5q0 140 87 227.5t212 87.5q113 0 179 -82q21 0 29 49q3 17 19 17h34z" />
    <glyph glyph-name="D" unicode="D" horiz-adv-x="659" 
d="M16 621h241q357 0 357 -310q0 -82 -26.5 -142.5t-65.5 -92.5t-90.5 -50.5t-94 -22t-83.5 -0.5q-139 8 -239 -3v59q65 14 65 48v416q0 34 -64 44v54zM244 67l51 -2q83 -3 124.5 60.5t41.5 185.5q0 123 -51 187t-145 64h-50v-452q0 -42 29 -43z" />
    <glyph glyph-name="E" unicode="E" horiz-adv-x="621" 
d="M524 128h62q-12 -23 -32 -105q-6 -23 -30 -23h-489v54q64 10 64 44v425q0 34 -64 44v54h473q10 0 13.5 -3.5t3.5 -14.5v-113h-54l-15 33q-9 19 -26 24t-54 5h-142v-202h161q23 0 31.5 8t19.5 35h31v-153h-31q-11 27 -19.5 35.5t-31.5 8.5h-161v-215l197 2q28 0 41.5 4
t25.5 20z" />
    <glyph glyph-name="F" unicode="F" horiz-adv-x="560" 
d="M530 490h-54l-17 33q-10 19 -27 24t-53 5h-155v-202h159q23 0 31.5 8t19.5 35h31v-153h-31q-11 27 -19.5 35.5t-31.5 8.5h-159v-186q0 -34 64 -44v-54h-263v54q64 10 64 44v425q0 34 -64 44v54h433q26 0 40.5 -13t19.5 -45z" />
    <glyph glyph-name="G" unicode="G" horiz-adv-x="687" 
d="M603 428l-74 -20q-3 6 -9 21l-10 25q-23 54 -77.5 84.5t-116.5 30.5q-142 0 -142 -219q0 -133 40 -207.5t112 -74.5q58 0 100 16.5t42 45.5v77q0 32 -32 32h-45v56l261 1v-57h-31q-32 0 -32 -32v-202q0 -10 -20 -12t-22 7l-24 78q-92 -88 -197 -88q-131 0 -216 90
t-85 240q0 139 83 228t208 89q64 0 113 -24.5t70 -65.5q24 0 29 81h61z" />
    <glyph glyph-name="H" unicode="H" horiz-adv-x="733" 
d="M693 621v-54q-64 -10 -64 -44v-425q0 -34 64 -44v-54h-263v54q64 10 64 44v183h-260v-183q0 -34 64 -44v-54h-263v54q64 10 64 44v425q0 34 -64 44v54h263v-54q-64 -10 -64 -44v-175h260v175q0 34 -64 44v54h263z" />
    <glyph glyph-name="I" unicode="I" horiz-adv-x="348" 
d="M239 523v-425q0 -34 64 -44v-54h-263v54q64 10 64 44v425q0 34 -64 44v54h263v-54q-64 -10 -64 -44z" />
    <glyph glyph-name="J" unicode="J" horiz-adv-x="411" 
d="M371 621v-54q-64 -10 -64 -44v-523q0 -92 -42 -131t-124 -39q-65 0 -105.5 28.5t-40.5 74.5q0 67 65 67q51 0 51 -56q0 -55 30 -55q31 0 31 51v583q0 34 -64 44v54h263z" />
    <glyph glyph-name="K" unicode="K" horiz-adv-x="713" 
d="M349 343l204 -215q29 -30 53 -47t37 -22t35 -10v-49h-282v49q39 11 42 16q2 5 -5 12l-189 189h-25v-168q0 -34 64 -44v-54h-263v54q64 10 64 44v425q0 34 -64 44v54h263v-54q-64 -10 -64 -44v-184h17q27 0 48 21l173 181q13 13 1.5 19t-33.5 9v52h203v-52q-67 -8 -86 -27
z" />
    <glyph glyph-name="L" unicode="L" horiz-adv-x="603" 
d="M568 135l-24 -112q-5 -23 -30 -23h-494v54q64 10 64 44v425q0 34 -64 44v54h263v-54q-64 -10 -64 -44v-415q0 -16 13 -30.5t34 -13.5l142 8q38 2 54 7t26 24l16 32h64z" />
    <glyph glyph-name="M" unicode="M" horiz-adv-x="894" 
d="M854 621v-54q-64 -10 -64 -44v-425q0 -34 64 -44v-54h-263v54q64 10 64 44v353l-193 -396q-10 -19 -36 -19t-37 19l-216 363v-320q0 -34 64 -44v-54h-207v54q64 10 64 44v425q0 34 -64 44v54h182l243 -428l216 428h183z" />
    <glyph glyph-name="N" unicode="N" 
d="M674 621v-54q-64 -10 -64 -44v-523q0 -8 -26.5 -8t-32.5 8l-388 458v-360q0 -34 64 -44v-54h-202v54q64 10 64 44v425q0 34 -64 44v54h182l320 -403v305q0 34 -64 44v54h211z" />
    <glyph glyph-name="O" unicode="O" 
d="M669 316q0 -140 -94 -235.5t-225 -95.5q-137 0 -228.5 89t-91.5 242q0 143 92.5 232t227.5 89q131 0 225 -92t94 -229zM360 68q35 0 60.5 7.5t49.5 29t37 67t13 114.5q0 129 -48.5 205.5t-121.5 76.5q-171 0 -171 -222q0 -118 54.5 -198t126.5 -80z" />
    <glyph glyph-name="P" unicode="P" horiz-adv-x="618" 
d="M25 621h304q124 0 194 -51t70 -140q0 -90 -74 -146t-203 -56h-92v-130q0 -34 64 -44v-54h-263v54q64 10 64 44v425q0 34 -64 44v54zM224 291h106q128 0 128 139q0 137 -115 137h-119v-276z" />
    <glyph glyph-name="Q" unicode="Q" horiz-adv-x="711" 
d="M612 10q28 -2 43.5 -18t14.5 -41q-1 -51 -46.5 -87t-105.5 -34q-73 3 -141 56l-134 100q-38 26 -61 17.5t-25 -36.5q0 -23 -17.5 -38.5t-42.5 -15.5q-24 1 -40.5 19t-16.5 41q1 32 22 58t55 40q-87 92 -87 238q0 143 92.5 232t227.5 89q131 0 225 -92t94 -229
q0 -128 -80.5 -221t-198.5 -107l72 -58q41 -28 64.5 -16t25.5 47q3 56 60 56zM350 561q-171 0 -171 -222q0 -118 54.5 -198t126.5 -80q35 0 60.5 7.5t49.5 29t37 67t13 114.5q0 129 -48.5 205.5t-121.5 76.5z" />
    <glyph glyph-name="R" unicode="R" horiz-adv-x="710" 
d="M685 55v-55h-129q-48 15 -81 51.5t-62 109.5q-22 55 -51 78t-70 23h-58v-164q0 -34 64 -44v-54h-263v54q64 10 64 44v425q0 34 -64 44v54h327q107 0 173 -47.5t66 -122.5q0 -62 -47.5 -107t-141.5 -52q125 -17 163 -124q13 -37 21 -55.5t25.5 -37t40.5 -20.5h23zM234 332
h121q55 0 81 33.5t26 85.5t-24.5 84t-75.5 32h-128v-235z" />
    <glyph glyph-name="S" unicode="S" horiz-adv-x="580" 
d="M516 439l-57 -9q-20 -3 -24 12l-11 40q-9 37 -52 63t-93 26q-54 0 -83 -28.5t-24 -69.5q5 -38 36 -56.5t104 -40.5q98 -29 140 -55q88 -53 97 -138q7 -64 -32.5 -111t-95.5 -67t-116 -20q-53 0 -119.5 22.5t-98.5 11.5l-52 157l53 20q23 8 34 -13q21 -39 22 -41
q42 -85 157 -85q59 0 91 20.5t28 62.5q-2 17 -11.5 31.5t-20.5 24t-34 19t-37 14t-43 13.5q-7 2 -10 3q-193 57 -209 192q-11 87 51.5 144t172.5 57q56 0 97.5 -15t73 -34t53.5 -23z" />
    <glyph glyph-name="T" unicode="T" horiz-adv-x="609" 
d="M575 596l9 -101h-45l-18 33q-18 32 -48 32h-101v-462q0 -34 64 -44v-54h-263v54q64 10 64 44v462h-101q-30 0 -48 -32l-18 -33h-45l9 101q2 25 24 25h493q22 0 24 -25z" />
    <glyph glyph-name="U" unicode="U" horiz-adv-x="674" 
d="M634 621v-54q-15 -2 -23.5 -5t-15 -9.5t-6.5 -17.5v-281q0 -120 -67.5 -192t-178.5 -72q-131 0 -205 73t-74 201v271q0 11 -6.5 17.5t-14.5 9.5t-23 5v54h223v-54q-15 -2 -23.5 -5t-15.5 -9.5t-7 -17.5v-251q0 -106 40 -161.5t106 -55.5q175 0 175 207v261
q0 16 -11.5 22.5t-35.5 9.5v54h163z" />
    <glyph glyph-name="V" unicode="V" horiz-adv-x="701" 
d="M681 621v-56q-30 -3 -42 -13t-26 -41l-233 -516h-37q-21 0 -32 24l-215 467q-22 48 -37.5 62t-48.5 17v56h256v-56q-34 -3 -46.5 -9.5t-6.5 -18.5l170 -370l160 360q8 17 -8 26t-48 12v56h194z" />
    <glyph glyph-name="W" unicode="W" horiz-adv-x="979" 
d="M770 621h194v-56q-31 -3 -44 -14t-24 -40l-183 -516h-39q-22 0 -32 24l-146 368l-139 -392h-39q-22 0 -32 24l-185 467q-19 49 -35.5 62.5t-50.5 16.5v56h256v-56q-33 -3 -45 -9t-8 -19l137 -368l105 308l-3 9q-19 49 -35.5 62.5t-50.5 16.5v56h256v-56q-33 -3 -45 -9
t-8 -19l137 -368l122 358q10 30 -63 38v56z" />
    <glyph glyph-name="X" unicode="X" horiz-adv-x="701" 
d="M404 333l162 -193q47 -56 63 -67q19 -14 45 -16v-57h-258v57q25 3 38 11.5t3 20.5l-148 176l-134 -166q-12 -16 0 -27.5t42 -14.5v-57h-194v57q30 3 48 16t41 42l158 196l-145 173q-27 33 -39 45.5t-29.5 23.5t-39.5 13v55h258v-55q-23 -4 -36 -12.5t-5 -18.5l133 -158
l121 148q11 14 -4.5 25.5t-47.5 15.5v55h205v-55q-53 -6 -94 -57z" />
    <glyph glyph-name="Y" unicode="Y" horiz-adv-x="651" 
d="M443 621h193v-57q-29 -3 -45 -15.5t-39 -43.5l-163 -217v-195q0 -8 5.5 -14t18 -9.5t22 -5t27.5 -4.5v-60h-267v60q19 3 28 4.5t22 5t18.5 9.5t5.5 14v169l-161 218q-7 9 -18 24.5t-15 21.5t-12 15t-14 12t-14.5 6.5t-19.5 4.5v57h244v-57q-23 -4 -34.5 -13t-2.5 -20
l138 -186l131 176q13 18 -1.5 28.5t-46.5 14.5v57z" />
    <glyph glyph-name="Z" unicode="Z" horiz-adv-x="645" 
d="M605 139l-38 -139h-499q-20 0 -25.5 16t6.5 33l343 506l-247 -4q-8 0 -14 -5.5t-7.5 -9.5t-5.5 -16l-10 -28h-83l32 129h531l-369 -556l256 5q9 0 15.5 5t9.5 10t7 16l15 38h83z" />
    <glyph glyph-name="bracketleft" unicode="[" horiz-adv-x="297" 
d="M154 690v-787l97 -19q21 -4 21 -16v-34l-227 14v897l227 14v-34q0 -13 -21 -16z" />
    <glyph glyph-name="backslash" unicode="\" horiz-adv-x="450" 
d="M138 641l267 -641h-93l-267 641h93z" />
    <glyph glyph-name="bracketright" unicode="]" horiz-adv-x="297" 
d="M143 690l-97 19q-21 3 -21 16v34l227 -14v-897l-227 -14v34q0 12 21 16l97 19v787z" />
    <glyph glyph-name="asciicircum" unicode="^" horiz-adv-x="378" 
d="M24 483l147 198q9 10 19.5 9t16.5 -9l147 -198q8 -10 2 -21t-20 -11h-14q-14 0 -35 21l-98 100l-98 -100q-19 -21 -36 -21h-14q-13 0 -19 11t2 21z" />
    <glyph glyph-name="underscore" unicode="_" horiz-adv-x="597" 
d="M30 -20h512v-79h-512v79z" />
    <glyph glyph-name="grave" unicode="`" horiz-adv-x="309" 
d="M249 581l-101 115q-44 50 -83 10q-21 -26 -11.5 -48.5t37.5 -39.5l130 -78q20 -12 32 5q13 17 -4 36z" />
    <glyph glyph-name="a" unicode="a" horiz-adv-x="506" 
d="M430 278v-172q0 -45 56 -36v-51q-70 -24 -104 -24q-61 0 -69 97q-38 -102 -129 -102q-68 0 -113.5 35t-45.5 98q0 46 22.5 75.5t85 53.5t176.5 41v22q0 92 -66 92q-37 0 -53 -14t-16 -56q0 -16 -19.5 -25.5t-47.5 -9.5q-25 0 -40.5 15.5t-15.5 37.5q0 49 57.5 77
t138.5 28q86 0 134.5 -41.5t48.5 -140.5zM211 69q40 0 63.5 31t34.5 72v63q-53 -10 -87.5 -23.5t-48 -29.5t-17 -27t-3.5 -26q0 -24 17 -42t41 -18z" />
    <glyph glyph-name="b" unicode="b" horiz-adv-x="574" 
d="M327 458q89 0 148 -62t59 -169q0 -106 -64.5 -170.5t-145.5 -64.5q-53 0 -91 30t-50 63l-30 -63q-5 -11 -15.5 -18t-22 -8t-22 2t-17 10t-6.5 16v534q0 33 -27 33h-28v46l151 20q24 3 24 -19v-156q0 -57 -16 -124l17 22q55 78 136 78zM319 62q37 0 62 39.5t25 112.5
q0 71 -23.5 116.5t-62.5 45.5q-74 0 -129 -53v-171q15 -41 47.5 -65.5t80.5 -24.5z" />
    <glyph glyph-name="c" unicode="c" horiz-adv-x="493" 
d="M414 109l28 -23q-18 -35 -66.5 -64.5t-121.5 -29.5q-90 0 -159.5 64.5t-69.5 166.5q0 107 70 172t161 65q84 0 138 -37.5t54 -84.5q0 -54 -55 -54q-29 0 -44.5 13.5t-15.5 31.5q0 16 -1.5 24.5t-7 19.5t-19.5 16t-37 5q-60 0 -86.5 -36.5t-26.5 -117.5q0 -79 34.5 -129.5
t92.5 -49.5q53 1 96 41l4.5 4.5t5 4.5t5.5 3t6.5 2t6.5 -1.5t8 -5.5z" />
    <glyph glyph-name="d" unicode="d" horiz-adv-x="562" 
d="M481 582v-489q0 -25 13 -33t43 -3v-33l-98 -24q-24 -6 -48 18t-30 74q-10 -36 -40.5 -68t-86.5 -32q-78 0 -138.5 62t-60.5 160q0 103 61.5 174.5t137.5 71.5q83 0 127 -67v157q0 24 -13 33.5t-42 8.5v45l146 19q6 -1 10.5 0t8 -2.5t5.5 -4.5t3.5 -7t2 -9.5t0.5 -11v-12
t-0.5 -13t-0.5 -14.5zM361 144v197q-50 50 -102 50q-42 0 -69 -48.5t-27 -115.5q0 -60 24 -106t67 -46q28 0 51.5 13.5t32.5 24.5t23 31z" />
    <glyph glyph-name="e" unicode="e" horiz-adv-x="500" 
d="M470 269q0 -30 -14.5 -49.5t-41.5 -19.5h-255q0 -59 32 -99t92 -40q67 0 117 56l44 -42q-64 -85 -174 -85q-100 0 -170 67t-70 170q0 104 68 167.5t158 63.5q85 0 149.5 -56t64.5 -133zM159 263h191q0 66 -22.5 97.5t-71.5 31.5q-97 0 -97 -129z" />
    <glyph glyph-name="f" unicode="f" horiz-adv-x="405" 
d="M415 598q12 -20 4 -42t-29 -30q-22 -9 -39.5 -0.5t-25.5 23.5q-15 30 -29.5 46t-37.5 16q-37 0 -50.5 -35.5t-13.5 -100.5v-18h140q-22 -62 -29 -68q-5 -4 -14 -4h-97v-308q0 -17 9.5 -22.5t42.5 -5.5v-49h-216v49q28 0 37 5.5t9 22.5v308h-33q-10 0 -10 10v62h43v11
q0 98 48 148.5t128 50.5q121 0 163 -69z" />
    <glyph glyph-name="g" unicode="g" horiz-adv-x="554" 
d="M471 362q-15 5 -19.5 -6t-3.5 -51q1 -62 -49.5 -108t-137.5 -46q-34 0 -70 11q-45 6 -53 -15q-8 -18 23 -33q16 -8 37 -11l98 -15q108 -18 155 -47.5t47 -94.5q0 -74 -72 -120t-177 -46t-162 33.5t-57 88.5q0 49 28 81.5t70 45.5q-77 13 -99 67q-18 45 14 77q28 29 81 24
q-61 46 -61 110q0 65 47.5 108t135.5 43q127 0 153 -71q10 71 75 71q20 0 37.5 -14.5t17.5 -35.5q0 -24 -18.5 -38.5t-39.5 -7.5zM333 308v7q0 19 -1.5 29.5t-8 24.5t-24 20.5t-45.5 6.5q-25 0 -41.5 -8t-23 -23t-8.5 -27t-2 -30q0 -15 1 -25.5t5 -25t12 -23.5t22.5 -15.5
t35.5 -6.5q47 0 62.5 26t15.5 70zM314 -5l-134 22q-30 -26 -30 -94q0 -38 26 -60.5t73 -22.5q80 0 109 17.5t29 74.5q0 29 -16 42.5t-57 20.5z" />
    <glyph glyph-name="h" unicode="h" horiz-adv-x="603" 
d="M523 286v-177q0 -28 12.5 -39.5t47.5 -3.5l-13 -56q-28 -10 -79 -10q-43 0 -66 20.5t-23 51.5v189q0 62 -12.5 90.5t-54.5 28.5q-63 0 -133 -82q-2 -3 -3 -4v-216q0 -16 11.5 -22t38.5 -6v-50h-217v50q25 0 36 5.5t11 22.5v469q0 47 -59 39v51l150 17q25 3 28.5 -19
t-3.5 -55v-201l-4 -29q65 112 166 112q166 0 166 -176z" />
    <glyph glyph-name="i" unicode="i" horiz-adv-x="286" 
d="M132 522q-31 0 -52.5 21.5t-21.5 52.5q0 30 21.5 51.5t52.5 21.5q30 0 51.5 -21.5t21.5 -51.5q0 -31 -21.5 -52.5t-51.5 -21.5zM203 420v-342q0 -28 43 -28v-50h-207v50q44 0 44 28v282q0 17 -6.5 24t-21.5 7h-20v51l136 9q32 3 32 -31z" />
    <glyph glyph-name="j" unicode="j" horiz-adv-x="294" 
d="M161 522q-31 0 -52.5 21.5t-21.5 52.5q0 30 21.5 51.5t52.5 21.5q30 0 51.5 -21.5t21.5 -51.5q0 -31 -21.5 -52.5t-51.5 -21.5zM64 442l136 9q32 3 32 -31v-494q0 -88 -89 -125q-58 -23 -107.5 -9.5t-74.5 54.5q-15 23 -10.5 51.5t29.5 41.5q30 12 49 3t28 -32
q6 -14 11 -37t8.5 -33t11.5 -7q24 10 24 50v477q0 17 -6.5 24t-21.5 7h-20v51z" />
    <glyph glyph-name="k" unicode="k" horiz-adv-x="574" 
d="M290 276l198 -202q16 -16 25.5 -20.5t30.5 -4.5v-49h-216v49q35 0 32 13q-1 3 -4 6l-161 155v-146q0 -28 32 -28v-49h-188v49q36 0 36 28v490q0 33 -28 33h-27v52l151 15q24 2 24 -19v-382l139 108q17 13 2 22q-9 5 -30 5v50h196v-50q-46 0 -73 -20z" />
    <glyph glyph-name="l" unicode="l" horiz-adv-x="283" 
d="M192 582v-467q0 -28 14.5 -40t56.5 -2l-21 -57q-50 -24 -92 -24q-36 0 -56 22t-20 54v491q0 47 -59 39v39l148 19q8 1 13.5 0t8.5 -5t5 -8t2.5 -12t0.5 -14t-0.5 -17t-0.5 -18z" />
    <glyph glyph-name="m" unicode="m" horiz-adv-x="878" 
d="M798 281v-203q0 -16 11.5 -22t38.5 -6v-50h-208v50q25 0 36 5.5t11 22.5v187q0 113 -70 113q-73 0 -116 -89v-211q0 -16 11.5 -22t37.5 -6v-50h-207v50q25 0 36 5.5t11 22.5v187q0 57 -15 85t-54 28q-24 0 -42.5 -7t-34 -25t-21 -26t-19.5 -31v-211q0 -16 11.5 -22
t38.5 -6v-50h-217v50q25 0 36 5.5t11 22.5v274q0 47 -59 39v51l152 17q24 3 27.5 -19t-4.5 -56l-4 -39q35 60 59 82q37 33 86 33q62 0 103.5 -26t51.5 -78q10 19 18 31.5t25.5 32t42.5 30t55 10.5q72 0 116.5 -45.5t44.5 -133.5z" />
    <glyph glyph-name="n" unicode="n" horiz-adv-x="606" 
d="M526 286v-177q0 -28 12.5 -39.5t47.5 -3.5l-13 -56q-27 -10 -79 -10q-42 0 -64.5 20.5t-22.5 51.5v189q0 62 -13.5 90.5t-55.5 28.5q-63 0 -133 -82q-2 -3 -3 -4v-216q0 -16 11.5 -22t38.5 -6v-50h-215v50q25 0 36 5.5t11 22.5v274q0 47 -59 39v51l148 17q25 3 28.5 -19
t-3.5 -55l-4 -35q65 112 166 112q77 0 121.5 -39t44.5 -137z" />
    <glyph glyph-name="o" unicode="o" horiz-adv-x="529" 
d="M265 458q92 0 163 -61.5t71 -166.5q0 -109 -71.5 -174.5t-162.5 -65.5t-163 64.5t-72 167.5q0 111 71 173.5t164 62.5zM369 192q0 99 -31.5 149.5t-82.5 50.5q-95 0 -95 -132q0 -94 31.5 -146.5t81.5 -52.5q48 0 72 31t24 100z" />
    <glyph glyph-name="p" unicode="p" horiz-adv-x="559" 
d="M339 456q79 0 134.5 -61.5t55.5 -167.5t-62.5 -169.5t-140.5 -63.5q-82 0 -126 74v-184q0 -16 11.5 -22t38.5 -6v-40h-218v40q25 0 36 5.5t11 22.5v478q0 47 -59 39v41l153 17q49 5 22 -78q67 75 144 75zM316 61q38 0 61.5 39.5t23.5 113.5q0 71 -22.5 116t-61.5 45
q-55 0 -117 -41v-182q15 -41 44.5 -66t71.5 -25z" />
    <glyph glyph-name="q" unicode="q" horiz-adv-x="576" 
d="M556 -84v-45l-170 -83q-11 -5 -20 -1.5t-9 13.5v158q0 95 19 193l-19 -56q-35 -101 -146 -101q-81 0 -133.5 67t-52.5 178q0 100 50.5 161t122.5 61q80 0 158 -88l52 63q23 27 45.5 23t22.5 -33v-470q0 -21 1.5 -32t9 -18.5t22.5 -3.5zM356 156v160q-21 21 -33 31
t-36.5 22.5t-47.5 12.5q-40 0 -63 -38.5t-23 -104.5q0 -76 25.5 -118.5t71.5 -42.5t68 19.5t38 58.5z" />
    <glyph glyph-name="r" unicode="r" horiz-adv-x="455" 
d="M419 392l-27 -36q-11 -15 -22 -17t-19.5 4t-25 13t-35.5 7q-35 0 -57 -39.5t-29 -84.5v-162q0 -17 12.5 -22.5t41.5 -5.5v-49h-224v49q27 0 39 6t12 22v275q0 47 -60 39v51l149 16q24 3 28.5 -18t-2.5 -55l-9 -84l11 40q32 115 143 115q51 0 73.5 -17.5t0.5 -46.5z" />
    <glyph glyph-name="s" unicode="s" horiz-adv-x="463" 
d="M433 124q0 -61 -58.5 -97.5t-145.5 -36.5q-70 0 -128.5 26t-65.5 46q-30 92 23 99q32 5 48 -5.5t19 -27.5q7 -43 30.5 -60t73.5 -17q44 0 67.5 18t23.5 40q0 35 -106 68q-28 9 -44 14.5t-44 19t-44 28t-28.5 38.5t-12.5 52q0 60 48.5 96t138.5 36q65 0 122.5 -27.5
t59.5 -46.5q4 -49 -5.5 -65.5t-34.5 -18.5q-29 -2 -41.5 6.5t-9.5 24.5q5 28 -21 49t-70 21q-35 0 -55 -16t-20 -38q0 -10 4 -18t9.5 -13.5t17 -10.5t19 -7.5t23.5 -7.5t24 -7q88 -28 122 -51q61 -42 61 -111z" />
    <glyph glyph-name="t" unicode="t" horiz-adv-x="335" 
d="M269 75q19 13 34.5 -10.5t-2.5 -36.5q-46 -35 -107 -35q-130 0 -130 157v233h-44v59q13 0 24 3t21 10.5t16.5 13t15 19t12 19.5t12.5 23t11 21q10 18 31.5 16t21.5 -20v-100h99v-36q0 -28 -27 -28h-72v-255q0 -74 32 -74q22 0 52 21z" />
    <glyph glyph-name="u" unicode="u" horiz-adv-x="587" 
d="M506 433v-327q0 -45 56 -36v-51l-91 -22q-32 -8 -55.5 15t-29.5 85v2q-37 -107 -145 -107q-77 0 -125 43.5t-48 125.5v198q0 32 -28 32h-15v45l136 19q11 2 19 -4.5t8 -17.5v-252q0 -61 21.5 -87t64.5 -26q46 0 70 25.5t42 76.5v189q0 17 -6 24.5t-21 7.5h-15v45l135 20
q12 1 19.5 -5.5t7.5 -17.5z" />
    <glyph glyph-name="v" unicode="v" horiz-adv-x="558" 
d="M324 1h-57q-34 0 -49 35l-129 291q-30 66 -58 77l-21 8v39h221v-39l-20 -8q-18 -7 -19.5 -17.5t16.5 -59.5l99 -240l75 237q12 49 8.5 61t-23.5 19l-22 8v39h203v-39l-23 -8q-40 -13 -67 -79z" />
    <glyph glyph-name="w" unicode="w" horiz-adv-x="816" 
d="M603 412v39q101 -4 203 0v-39l-23 -8q-12 -4 -19.5 -8t-22 -22.5t-25.5 -48.5l-124 -324h-61q-32 0 -43 31l-83 225l-98 -256h-61q-32 0 -43 31l-109 295q-24 64 -58 77l-21 8v39q111 -3 221 0v-39l-20 -8q-17 -7 -18 -17.5t15 -59.5l77 -230l77 259q-19 38 -46 48l-21 8
v39q110 -3 221 0v-39l-20 -8q-17 -7 -18 -17.5t15 -59.5l77 -230l65 227q12 50 8.5 61.5t-23.5 18.5z" />
    <glyph glyph-name="x" unicode="x" horiz-adv-x="593" 
d="M539 60h29v-60h-251v60l29 -1q39 4 16 28l-83 90l-89 -85q-12 -13 -7 -22t20 -11l23 1v-60h-200v60h29q19 2 50 33l133 129l-130 141q-20 21 -32 28.5t-30 11.5l-21 5v42q125 -4 250 0v-42l-28 -4q-25 -4 -3 -30l69 -78l74 72q30 29 -6 36l-23 4v42q99 -3 198 0v-42
l-24 -5q-31 -6 -78 -53l-100 -100l141 -159q24 -28 44 -31z" />
    <glyph glyph-name="y" unicode="y" horiz-adv-x="588" 
d="M568 451v-40l-14 -6q-4 -2 -10.5 -4.5t-10.5 -4t-8.5 -4t-7.5 -6t-5 -8.5l-209 -462q-30 -67 -64 -99t-90 -32q-117 0 -135 66q-9 35 6 57.5t52 22.5q27 0 40 -13.5t14.5 -30.5t8.5 -30.5t22 -13.5q5 0 9 1.5t8 4.5t7.5 6.5t7.5 9t6.5 10t6.5 11.5t6 11.5t6 13t6 12.5
l38 77l-195 378q-10 19 -33 27l-18 6v40h228v-40l-25 -5q-32 -6 -22 -28l129 -266l111 266q4 10 -3 17.5t-20 10.5l-28 5v40h186z" />
    <glyph glyph-name="z" unicode="z" horiz-adv-x="480" 
d="M440 117l-18 -117h-375q-20 0 -26 16t6 32l247 343l-170 -6q-22 -1 -33 -31l-4 -12h-47l18 109h401l-281 -389l196 6q5 0 9 1.5t7 5.5t4 6.5t3.5 9t3.5 8.5l6 18h53z" />
    <glyph glyph-name="braceleft" unicode="{" horiz-adv-x="289" 
d="M218 193v-150q0 -61 1.5 -88t12 -55t32.5 -39l-38 -27q-48 19 -75 53.5t-34.5 69.5t-7.5 86v175q0 22 -12 32.5t-52 28.5v33q40 18 52 28.5t12 32.5v175q0 51 7.5 86t34.5 69.5t75 53.5l38 -27q-31 -16 -38.5 -55t-7.5 -127v-150q0 -79 -84 -101v-3q84 -22 84 -101z" />
    <glyph glyph-name="bar" unicode="|" horiz-adv-x="265" 
d="M90 800h85v-1015h-85v1015z" />
    <glyph glyph-name="braceright" unicode="}" horiz-adv-x="289" 
d="M71 43v150q0 79 84 101v3q-84 22 -84 101v150q0 61 -1.5 88t-12 55t-32.5 39l38 27q48 -19 75 -53.5t34.5 -69.5t7.5 -86v-175q0 -22 12 -32.5t52 -28.5v-33q-40 -18 -52 -28.5t-12 -32.5v-175q0 -51 -7.5 -86t-34.5 -69.5t-75 -53.5l-38 27q31 16 38.5 55t7.5 127z" />
    <glyph glyph-name="asciitilde" unicode="~" horiz-adv-x="551" 
d="M481 304h-48q-14 0 -33.5 -22.5t-35.5 -22.5q-25 0 -71 30.5t-90 30.5q-48 0 -84 -33.5t-49 -86.5h49q21 0 36.5 25.5t31.5 25.5q17 0 42 -17.5t57 -35.5t68 -18q42 0 80 34.5t47 89.5z" />
    <glyph glyph-name="exclamdown" unicode="&#xa1;" horiz-adv-x="263" 
d="M134 563q28 0 48 -20.5t20 -48.5t-20 -48t-48 -20t-48 20t-20 48t20 48.5t48 20.5zM108 336h52q2 -82 25 -198t23 -158q0 -35 -22 -57.5t-52 -22.5t-52 22.5t-22 57.5q0 42 23 158t25 198z" />
    <glyph glyph-name="cent" unicode="&#xa2;" horiz-adv-x="508" 
d="M378 102l4.5 4.5t5 4.5t5.5 3t6.5 2t6.5 -1.5t8 -5.5l28 -23q-18 -35 -66.5 -64.5t-121.5 -29.5q-18 0 -34 3l-15 -56h-66l20 74q-59 27 -96.5 82t-37.5 128q0 107 70 172t161 65q17 0 25 -1l16 60h66l-20 -72q48 -16 76.5 -46.5t28.5 -62.5q0 -54 -55 -54
q-29 0 -44.5 13.5t-15.5 31.5q0 33 -9 46l-84 -307q18 -7 42 -7q53 1 96 41zM155 240q0 -77 32 -126l76 280q-57 -1 -82.5 -38t-25.5 -116z" />
    <glyph glyph-name="sterling" unicode="&#xa3;" horiz-adv-x="580" 
d="M439 111l11 21h77l-26 -109q-6 -23 -32 -23h-422v73q91 52 91 113q0 29 -16 61h-77v69h40q-36 68 -36 131q0 78 65.5 134t181.5 56q107 0 173 -55t66 -141q0 -31 -17 -52t-56 -21q-45 0 -65 41q-1 9 5 28.5t6 34.5q0 49 -27 72t-93 23q-58 0 -86 -33t-28 -79
q0 -22 6.5 -43.5t12.5 -32.5t21.5 -34t19.5 -29h119v-69h-91q2 -16 2 -26q0 -91 -94 -146q20 1 62.5 1t70 0.5t59.5 3.5t51 10.5t26 20.5z" />
    <glyph glyph-name="currency" unicode="&#xa4;" horiz-adv-x="597" 
d="M506 228q0 -69 -41 -124l71 -70l-46 -46l-71 70q-57 -39 -122 -39q-66 0 -120 38l-70 -69l-46 46l70 69q-41 55 -41 125q0 68 40 122l-69 68l46 47l69 -69q54 40 121 40q69 0 123 -41l70 70l46 -47l-70 -69q40 -54 40 -121zM158 228q0 -59 40.5 -102.5t99.5 -43.5
q58 0 100 43.5t42 102.5t-42 101.5t-100 42.5q-59 0 -99.5 -42.5t-40.5 -101.5z" />
    <glyph glyph-name="yen" unicode="&#xa5;" horiz-adv-x="647" 
d="M443 621h193v-57q-29 -3 -45 -15.5t-39 -43.5l-126 -168h106v-69h-143v-40h143v-69h-143v-66q0 -8 5.5 -14t18 -9.5t22 -5t27.5 -4.5v-60h-267v60q19 3 28 4.5t22 5t18.5 9.5t5.5 14v66h-147v69h147v34l-5 6h-142v69h92l-106 143q-7 9 -18 24.5t-15 21.5t-12 15t-14 12
t-14.5 6.5t-19.5 4.5v57h244v-57q-23 -4 -34.5 -13t-2.5 -20l138 -186l131 176q13 18 -1.5 28.5t-46.5 14.5v57z" />
    <glyph glyph-name="brokenbar" unicode="&#xa6;" horiz-adv-x="265" 
d="M90 451v349h85v-349h-85zM90 -215v349h85v-349h-85z" />
    <glyph glyph-name="section" unicode="&#xa7;" horiz-adv-x="529" 
d="M498 79q10 -83 -60 -131.5t-164 -48.5q-31 0 -58.5 3.5t-49.5 10.5t-34.5 12t-31 15t-21.5 11l-46 159l34 12q13 6 25.5 2t16.5 -19q4 -8 18 -52q29 -94 141 -94q60 0 91 17.5t24 70.5q-1 11 -4.5 20t-10 16.5t-11.5 13t-16.5 10.5t-16.5 8t-20 6.5t-19.5 5t-22 5
t-20.5 4.5t-25.5 5.5t-30.5 6.5t-29 8.5t-31 12t-26 16t-25 21.5t-17 28t-11 36q-11 61 34 117q-24 26 -30 66q-13 77 43 130.5t153 53.5q59 0 97 -10.5t66 -28t41 -21.5l11 -131l-34 -9q-31 -7 -36 18q-2 10 -17 54q-11 38 -39.5 54t-88.5 16q-47 0 -74 -25.5t-22 -67.5
q3 -18 10 -29.5t21 -17.5t24.5 -9t32.5 -6.5t32 -5.5q1 0 20 -3.5t27.5 -5.5t29.5 -7t33 -10.5t31 -14t30.5 -19t24 -23.5t19.5 -30t10 -36q7 -67 -34 -115q31 -34 36 -75zM149 299q2 -9 5 -16.5t8.5 -13l10 -10t14 -8.5t14.5 -6t17 -4.5t17 -3.5t18.5 -3.5t17.5 -3.5
q84 -18 110 -28q2 15 0 35q-1 11 -4 20t-9.5 16t-11.5 12.5t-15.5 10.5t-16.5 8t-19.5 6.5t-20 5t-22 5t-20.5 4.5q-72 15 -88 19q-8 -20 -5 -45z" />
    <glyph glyph-name="dieresis" unicode="&#xa8;" horiz-adv-x="518" 
d="M143 543q-32 0 -55 23t-23 55t23 54.5t55 22.5q31 0 54 -23t23 -54q0 -32 -22.5 -55t-54.5 -23zM376 543q-32 0 -55 23t-23 55t23 54.5t55 22.5t54.5 -23t22.5 -54q0 -32 -22.5 -55t-54.5 -23z" />
    <glyph glyph-name="copyright" unicode="&#xa9;" horiz-adv-x="762" 
d="M382 580q144 0 238.5 -95t94.5 -245t-94.5 -245t-238.5 -95t-240 95t-96 245t96 245t240 95zM630 240q0 127 -66 206.5t-182 79.5q-117 0 -182.5 -79t-65.5 -207t65.5 -207t182.5 -79q116 0 182 79.5t66 206.5zM519 142l20 -20q-12 -30 -50 -56.5t-103 -26.5
q-70 0 -118.5 54.5t-48.5 139.5q0 89 50 142t121 53q67 0 106 -33t39 -75q0 -15 -11 -26.5t-32 -11.5q-20 0 -32.5 9.5t-12.5 25.5q0 21 -0.5 28.5t-4.5 18t-14 13.5t-28 3q-49 0 -70.5 -30.5t-21.5 -100.5q0 -62 30 -108.5t76 -46.5q8 0 15.5 1t12.5 2t11 4.5t8.5 5
t7.5 7.5t6.5 7.5t7 8.5t6.5 9q15 18 30 3z" />
    <glyph glyph-name="ordfeminine" unicode="&#xaa;" horiz-adv-x="358" 
d="M293 518v-125q0 -15 6 -15q4 0 29 12v-46l-52 -16q-38 -12 -55 38q-32 -39 -86 -40q-42 -1 -73.5 19.5t-31.5 57.5q0 40 39.5 67.5t143.5 42.5v4q0 77 -48 72q-13 -1 -29 -6q-4 -1 -5 -6.5t-1 -16t-2 -17.5q-3 -11 -19 -18t-33 -5q-18 3 -25.5 16t-2.5 31q6 22 36.5 39.5
t66.5 20.5q66 6 104 -23t38 -86zM147 370q17 0 31 9.5t20 18.5t15 26v53q-43 -7 -66.5 -21t-28.5 -25t-5 -27q0 -34 34 -34zM54 270h249v-60h-249v60z" />
    <glyph glyph-name="guillemotleft" unicode="&#xab;" horiz-adv-x="497" 
d="M55 229l192 174v-83l-62 -91l62 -91v-83zM280 229l192 174v-83l-62 -91l62 -91v-83z" />
    <glyph glyph-name="logicalnot" unicode="&#xac;" horiz-adv-x="579" 
d="M70 381h439v-238h-79v159h-360v79z" />
    <glyph glyph-name="softhyphen" unicode="&#xad;" horiz-adv-x="380" 
d="M45 287h270v-73h-270v73z" />
    <glyph glyph-name="registered" unicode="&#xae;" horiz-adv-x="762" 
d="M382 586q147 0 243 -96.5t96 -249.5t-96 -249.5t-243 -96.5q-146 0 -243.5 97t-97.5 249t97.5 249t243.5 97zM382 -51q118 0 185 80.5t67 210.5t-67 210.5t-185 80.5q-119 0 -185.5 -80.5t-66.5 -210.5t66.5 -210.5t185.5 -80.5zM498 164q6 -25 22.5 -49.5t32.5 -24.5
v-32h-50q-30 0 -52.5 26.5t-34.5 71.5q-10 38 -21 49t-39 11h-20v-92q0 -13 5 -19.5t23 -12.5v-33h-141v33q18 5 22 11t4 21v235q0 15 -5.5 22.5t-20.5 12.5v32h160q60 0 100 -30.5t40 -74.5q0 -70 -75 -88q37 -14 50 -69zM336 258h50q49 0 49 63q0 62 -44 62h-55v-125z" />
    <glyph glyph-name="macron" unicode="&#xaf;" horiz-adv-x="439" 
d="M58 600v49q0 17 20 17h283q20 0 20 -17v-49q0 -17 -20 -17h-283q-20 0 -20 17z" />
    <glyph glyph-name="degree" unicode="&#xb0;" horiz-adv-x="305" 
d="M153 634q47 0 79.5 -33t32.5 -82t-32.5 -82t-79.5 -33t-80 33t-33 82t33 82t80 33zM201 519q0 28 -13 46t-36 18t-36 -18.5t-13 -45.5t13 -45.5t36 -18.5t36 18t13 46z" />
    <glyph glyph-name="plusminus" unicode="&#xb1;" horiz-adv-x="510" 
d="M295 392h145v-79h-145v-147h-79v147h-146v79h146v145h79v-145zM70 -9v79h370v-79h-370z" />
    <glyph glyph-name="twosuperior" unicode="&#xb2;" horiz-adv-x="306" 
d="M261 454l-10 -53q-3 -14 -21 -14h-185q15 75 100 127q46 28 46 56q0 16 -10.5 26t-25.5 10q-30 0 -36 -22q-3 -10 0 -21.5t2 -16.5q-7 -15 -23.5 -17.5t-30 6t-13.5 21.5q0 36 26 60.5t74 24.5q45 0 69 -20.5t24 -55.5q0 -17 -6 -30.5t-20.5 -25.5t-22 -16.5t-26.5 -16.5
q-25 -14 -33.5 -21.5t-12.5 -21.5h75q16 0 21 8l9 13h30z" />
    <glyph glyph-name="threesuperior" unicode="&#xb3;" horiz-adv-x="322" 
d="M223 538q49 -16 49 -66q0 -38 -30 -63.5t-79 -25.5q-47 0 -75 23.5t-28 55.5q0 25 27 25q15 0 21 -5.5t8 -20t3 -17.5q10 -28 43 -28q21 0 34.5 15.5t12.5 33.5q1 31 -19.5 37t-46.5 -8l-15 30l24 11q36 13 36 44q0 29 -32 29q-19 0 -26.5 -18.5t-1.5 -38.5l-48 6
q-12 5 -12 14q-1 31 23.5 51t68.5 20t68.5 -19.5t24.5 -41.5q0 -29 -30 -43z" />
    <glyph glyph-name="acute" unicode="&#xb4;" horiz-adv-x="301" 
d="M155 696l-101 -115q-17 -19 -4 -36q12 -17 32 -5l130 78q28 17 37.5 39.5t-11.5 48.5q-39 40 -83 -10z" />
    <glyph glyph-name="paragraph" unicode="&#xb6;" horiz-adv-x="664" 
d="M619 621v-58q-16 -3 -24 -5.5t-14.5 -9.5t-6.5 -18v-506q0 -18 9.5 -26t35.5 -12v-53h-396v53q36 4 47.5 12t11.5 26v216h-17q-108 0 -176.5 51.5t-68.5 138.5t73 139t181 52h345zM251 303h31v254h-22q-115 0 -115 -127q0 -53 25 -90t81 -37zM464 24v505q0 17 -5 22.5
t-18 5.5h-49v-533q0 -18 8 -25.5t28 -7.5t28 7.5t8 25.5z" />
    <glyph glyph-name="periodcentered" unicode="&#xb7;" horiz-adv-x="236" 
d="M118 226q-28 0 -48 20.5t-20 48.5t20 48t48 20t48 -20t20 -48t-20 -48.5t-48 -20.5z" />
    <glyph glyph-name="cedilla" unicode="&#xb8;" horiz-adv-x="262" 
d="M79 -127q3 -17 5 -24.5t11.5 -17t25.5 -9.5q42 -1 49 44q4 23 -8 35t-35 10q-7 -1 -19 -3t-17 -3q-21 -4 -29.5 8.5t0.5 25.5q15 25 30 61h78l-21 -45q44 3 76.5 -25t25.5 -72q-7 -43 -47.5 -66.5t-88.5 -21.5q-50 2 -81.5 25.5t-36.5 50.5q-5 28 26 40.5t56 -13.5z" />
    <glyph glyph-name="onesuperior" unicode="&#xb9;" horiz-adv-x="198" 
d="M134 625v-182q0 -16 29 -18v-33h-121v33q29 2 29 18v143l-31 -10v39l56 25q13 6 26 0t12 -15z" />
    <glyph glyph-name="ordmasculine" unicode="&#xba;" horiz-adv-x="356" 
d="M178 627q60 -1 104 -42t44 -106q0 -67 -44 -109.5t-104 -42.5q-59 0 -103.5 41.5t-44.5 105.5q0 68 44 110t104 43zM245 467q0 47 -22 82.5t-45 35.5q-67 0 -67 -99q0 -46 22 -81t45 -35q33 0 50 22t17 75zM54 270h249v-60h-249v60z" />
    <glyph glyph-name="guillemotright" unicode="&#xbb;" horiz-adv-x="497" 
d="M217 229l-192 -174v83l62 91l-62 91v83zM442 229l-192 -174v83l62 91l-62 91v83z" />
    <glyph glyph-name="onequarter" unicode="&#xbc;" horiz-adv-x="677" 
d="M42 392v33q29 2 29 18v143l-31 -10v39l56 25q13 6 26 0t12 -15v-182q0 -16 29 -18v-33h-121zM475 636h78l-432 -641h-78zM627 65h-32v-30q0 -18 25 -18v-23h-114v23q24 0 24 18v30h-97v38l120 142q9 11 25.5 7t16.5 -16v-131h32v-40zM482 105h48v57z" />
    <glyph glyph-name="onehalf" unicode="&#xbd;" horiz-adv-x="684" 
d="M134 625v-182q0 -16 29 -18v-33h-121v33q29 2 29 18v143l-31 -10v39l56 25q13 6 26 0t12 -15zM475 636h78l-432 -641h-78zM639 61l-10 -53q-3 -14 -21 -14h-185q15 75 100 127q46 28 46 56q0 16 -10.5 26t-25.5 10q-30 0 -36 -22q-3 -10 0 -21.5t2 -16.5
q-7 -15 -23.5 -17.5t-30 6t-13.5 21.5q0 36 26 60.5t74 24.5q45 0 69 -20.5t24 -55.5q0 -17 -6 -30.5t-20.5 -25.5t-22 -16.5t-26.5 -16.5q-25 -14 -33.5 -21.5t-12.5 -21.5h75q16 0 21 8l9 13h30z" />
    <glyph glyph-name="threequarters" unicode="&#xbe;" horiz-adv-x="766" 
d="M272 472q0 -38 -30 -63.5t-79 -25.5q-47 0 -75 23.5t-28 55.5q0 25 27 25q15 0 21 -5.5t8 -20t3 -17.5q10 -28 43 -28q21 0 34.5 15.5t12.5 33.5q1 31 -19.5 37t-46.5 -8l-15 30l24 11q36 13 36 44q0 29 -32 29q-19 0 -26.5 -18.5t-1.5 -38.5l-48 6q-12 5 -12 14
q-1 31 23.5 51t68.5 20t68.5 -19.5t24.5 -41.5q0 -29 -30 -43q49 -16 49 -66zM557 636h78l-432 -641h-78zM689 65h-32v-30q0 -18 25 -18v-23h-114v23q24 0 24 18v30h-97v38l120 142q9 11 25.5 7t16.5 -16v-131h32v-40zM544 105h48v57z" />
    <glyph glyph-name="questiondown" unicode="&#xbf;" horiz-adv-x="504" 
d="M254 563q28 0 48 -20.5t20 -48.5t-20 -48t-48 -20t-48 20t-20 48t20 48.5t48 20.5zM459 69q0 43 -23 69t-51 24.5t-51 -19.5q-22 -27 -16.5 -48t15 -49.5t1.5 -42.5q-25 -50 -91 -50q-38 0 -61 21.5t-23 55.5q0 33 15.5 57.5t72.5 70.5q57 47 49 113l-12 75h-60l-10 -75
q-1 -8 -15 -18.5t-43.5 -30.5t-54.5 -43q-46 -41 -54 -92t15.5 -93t72.5 -70.5t109 -28.5q96 0 155.5 50t59.5 124z" />
    <glyph glyph-name="Agrave" unicode="&#xc0;" horiz-adv-x="707" 
d="M391 710l-130 78q-28 17 -37.5 39.5t11.5 48.5q39 40 83 -10l101 -115q17 -19 4 -36q-12 -17 -32 -5zM398 583l201 -448q22 -49 36 -61t52 -21v-53h-244v54q40 7 47 12.5t-1 22.5l-56 127h-212l-50 -122q-6 -15 6.5 -24t49.5 -16v-54h-207v54q40 8 50 15.5t24 41.5
l219 518l45 -13q29 -9 40 -33zM246 276h161l-83 190z" />
    <glyph glyph-name="Aacute" unicode="&#xc1;" horiz-adv-x="707" 
d="M466 788l-130 -78q-20 -12 -32 5q-13 17 4 36l101 115q44 50 83 10q21 -26 11.5 -48.5t-37.5 -39.5zM398 583l201 -448q22 -49 36 -61t52 -21v-53h-244v54q40 7 47 12.5t-1 22.5l-56 127h-212l-50 -122q-6 -15 6.5 -24t49.5 -16v-54h-207v54q40 8 50 15.5t24 41.5
l219 518l45 -13q29 -9 40 -33zM246 276h161l-83 190z" />
    <glyph glyph-name="Acircumflex" unicode="&#xc2;" horiz-adv-x="707" 
d="M352 766l-91 -62h-83l174 192l174 -192h-83zM398 583l201 -448q22 -49 36 -61t52 -21v-53h-244v54q40 7 47 12.5t-1 22.5l-56 127h-212l-50 -122q-6 -15 6.5 -24t49.5 -16v-54h-207v54q40 8 50 15.5t24 41.5l219 518l45 -13q29 -9 40 -33zM246 276h161l-83 190z" />
    <glyph glyph-name="Atilde" unicode="&#xc3;" horiz-adv-x="707" 
d="M212 728h-52q-13 48 25 81t91 33q43 0 84 -29t69 -29q23 0 38 15.5t13 26.5h63q-4 -53 -40 -85.5t-93 -32.5q-32 0 -59.5 17t-49.5 34t-41 17t-31 -11t-15.5 -21.5t-1.5 -15.5zM398 583l201 -448q22 -49 36 -61t52 -21v-53h-244v54q40 7 47 12.5t-1 22.5l-56 127h-212
l-50 -122q-6 -15 6.5 -24t49.5 -16v-54h-207v54q40 8 50 15.5t24 41.5l219 518l45 -13q29 -9 40 -33zM246 276h161l-83 190z" />
    <glyph glyph-name="Adieresis" unicode="&#xc4;" horiz-adv-x="707" 
d="M228 713q-32 0 -55 23t-23 55t23 54.5t55 22.5t54.5 -23t22.5 -54q0 -32 -22.5 -55t-54.5 -23zM461 713q-32 0 -55 23t-23 55t23 54.5t55 22.5q31 0 54 -23t23 -54q0 -32 -22.5 -55t-54.5 -23zM398 583l201 -448q22 -49 36 -61t52 -21v-53h-244v54q40 7 47 12.5t-1 22.5
l-56 127h-212l-50 -122q-6 -15 6.5 -24t49.5 -16v-54h-207v54q40 8 50 15.5t24 41.5l219 518l45 -13q29 -9 40 -33zM246 276h161l-83 190z" />
    <glyph glyph-name="Aring" unicode="&#xc5;" horiz-adv-x="707" 
d="M349 705q-44 0 -76 30.5t-32 72.5q0 43 32 73.5t76 30.5q45 0 76 -30.5t31 -73.5q0 -42 -31 -72.5t-76 -30.5zM349 852q-15 0 -26 -13.5t-11 -30.5q0 -18 11 -31t26 -13q12 0 23 13.5t11 30.5t-11 30.5t-23 13.5zM398 583l201 -448q22 -49 36 -61t52 -21v-53h-244v54
q40 7 47 12.5t-1 22.5l-56 127h-212l-50 -122q-6 -15 6.5 -24t49.5 -16v-54h-207v54q40 8 50 15.5t24 41.5l219 518l45 -13q29 -9 40 -33zM246 276h161l-83 190z" />
    <glyph glyph-name="AE" unicode="&#xc6;" horiz-adv-x="1020" 
d="M923 128h62q-11 -23 -32 -105q-6 -23 -30 -23h-489v54q64 10 64 44v108h-226l-81 -102q-15 -19 0.5 -31t61.5 -20v-53h-233v53q40 7 56.5 17.5t42.5 43.5l320 400q16 20 15.5 32.5t-20.5 20.5v54h473q10 0 13.5 -3.5t3.5 -14.5v-113h-54l-15 33q-9 19 -26 24t-54 5h-142
v-202h161q23 0 31.5 8t19.5 35h31v-153h-31q-11 27 -19.5 35.5t-31.5 8.5h-161v-215l197 2q28 0 41.5 4t25.5 20zM322 268h176v221z" />
    <glyph glyph-name="Ccedilla" unicode="&#xc7;" horiz-adv-x="654" 
d="M608 143q2 -12 -10 -34q-67 -114 -219 -123l-14 -31q44 3 76.5 -25t25.5 -72q-7 -43 -47.5 -66.5t-88.5 -21.5q-50 2 -81.5 25.5t-36.5 50.5q-5 28 26 40.5t56 -13.5q3 -17 5 -24.5t11.5 -17t25.5 -9.5q42 -1 49 44q4 23 -8 35t-35 10q-7 -1 -19 -3t-17 -3
q-21 -4 -29.5 8.5t0.5 25.5q14 23 25 50q-113 18 -190.5 106.5t-77.5 226.5q0 140 87 227.5t212 87.5q113 0 179 -82q21 0 29 49q3 17 19 17h34l11 -187l-59 -19q-17 -5 -23 11q-2 6 -14 36q-44 108 -150 108q-80 0 -128 -60.5t-48 -181.5q0 -110 57.5 -186t143.5 -76
q88 0 141 68q5 6 11.5 15.5t10 13.5t8.5 8t10 4q11 0 26 -10.5t16 -21.5z" />
    <glyph glyph-name="Egrave" unicode="&#xc8;" horiz-adv-x="621" 
d="M371 751l-101 115q-44 50 -83 10q-21 -26 -11.5 -48.5t37.5 -39.5l130 -78q20 -12 32 5q13 17 -4 36zM524 128h62q-12 -23 -32 -105q-6 -23 -30 -23h-489v54q64 10 64 44v425q0 34 -64 44v54h473q10 0 13.5 -3.5t3.5 -14.5v-113h-54l-15 33q-9 19 -26 24t-54 5h-142v-202
h161q23 0 31.5 8t19.5 35h31v-153h-31q-11 27 -19.5 35.5t-31.5 8.5h-161v-215l197 2q28 0 41.5 4t25.5 20z" />
    <glyph glyph-name="Eacute" unicode="&#xc9;" horiz-adv-x="621" 
d="M361 866l-101 -115q-17 -19 -4 -36q12 -17 32 -5l130 78q28 17 37.5 39.5t-11.5 48.5q-39 40 -83 -10zM524 128h62q-12 -23 -32 -105q-6 -23 -30 -23h-489v54q64 10 64 44v425q0 34 -64 44v54h473q10 0 13.5 -3.5t3.5 -14.5v-113h-54l-15 33q-9 19 -26 24t-54 5h-142
v-202h161q23 0 31.5 8t19.5 35h31v-153h-31q-11 27 -19.5 35.5t-31.5 8.5h-161v-215l197 2q28 0 41.5 4t25.5 20z" />
    <glyph glyph-name="Ecircumflex" unicode="&#xca;" horiz-adv-x="621" 
d="M304 896l174 -192h-83l-91 62l-91 -62h-83zM524 128h62q-12 -23 -32 -105q-6 -23 -30 -23h-489v54q64 10 64 44v425q0 34 -64 44v54h473q10 0 13.5 -3.5t3.5 -14.5v-113h-54l-15 33q-9 19 -26 24t-54 5h-142v-202h161q23 0 31.5 8t19.5 35h31v-153h-31q-11 27 -19.5 35.5
t-31.5 8.5h-161v-215l197 2q28 0 41.5 4t25.5 20z" />
    <glyph glyph-name="Edieresis" unicode="&#xcb;" horiz-adv-x="621" 
d="M180 713q-32 0 -55 23t-23 55t23 54.5t55 22.5t54.5 -23t22.5 -54q0 -32 -22.5 -55t-54.5 -23zM413 713q-32 0 -55 23t-23 55t23 54.5t55 22.5q31 0 54 -23t23 -54q0 -32 -22.5 -55t-54.5 -23zM524 128h62q-12 -23 -32 -105q-6 -23 -30 -23h-489v54q64 10 64 44v425
q0 34 -64 44v54h473q10 0 13.5 -3.5t3.5 -14.5v-113h-54l-15 33q-9 19 -26 24t-54 5h-142v-202h161q23 0 31.5 8t19.5 35h31v-153h-31q-11 27 -19.5 35.5t-31.5 8.5h-161v-215l197 2q28 0 41.5 4t25.5 20z" />
    <glyph glyph-name="Igrave" unicode="&#xcc;" horiz-adv-x="348" 
d="M243 751l-101 115q-44 50 -83 10q-21 -26 -11.5 -48.5t37.5 -39.5l130 -78q20 -12 32 5q13 17 -4 36zM239 523v-425q0 -34 64 -44v-54h-263v54q64 10 64 44v425q0 34 -64 44v54h263v-54q-64 -10 -64 -44z" />
    <glyph glyph-name="Iacute" unicode="&#xcd;" horiz-adv-x="348" 
d="M233 866l-101 -115q-17 -19 -4 -36q12 -17 32 -5l130 78q28 17 37.5 39.5t-11.5 48.5q-39 40 -83 -10zM239 523v-425q0 -34 64 -44v-54h-263v54q64 10 64 44v425q0 34 -64 44v54h263v-54q-64 -10 -64 -44z" />
    <glyph glyph-name="Icircumflex" unicode="&#xce;" horiz-adv-x="348" 
d="M176 896l174 -192h-83l-91 62l-91 -62h-83zM239 523v-425q0 -34 64 -44v-54h-263v54q64 10 64 44v425q0 34 -64 44v54h263v-54q-64 -10 -64 -44z" />
    <glyph glyph-name="Idieresis" unicode="&#xcf;" horiz-adv-x="348" 
d="M52 713q-32 0 -55 23t-23 55t23 54.5t55 22.5t54.5 -23t22.5 -54q0 -32 -22.5 -55t-54.5 -23zM285 713q-32 0 -55 23t-23 55t23 54.5t55 22.5q31 0 54 -23t23 -54q0 -32 -22.5 -55t-54.5 -23zM239 523v-425q0 -34 64 -44v-54h-263v54q64 10 64 44v425q0 34 -64 44v54h263
v-54q-64 -10 -64 -44z" />
    <glyph glyph-name="Eth" unicode="&#xd0;" horiz-adv-x="663" 
d="M20 621h241q357 0 357 -310q0 -82 -26.5 -142.5t-65.5 -92.5t-90.5 -50.5t-94 -22t-83.5 -0.5q-139 8 -239 -3v59q65 14 65 48v171h-69v65h69v180q0 34 -64 44v54zM248 67l51 -2q83 -3 124.5 60.5t41.5 185.5q0 123 -51 187t-145 64h-50v-219h66v-65h-66v-168
q0 -42 29 -43z" />
    <glyph glyph-name="Ntilde" unicode="&#xd1;" 
d="M482 826h63q-4 -53 -40 -85.5t-93 -32.5q-32 0 -59.5 17t-49.5 34t-41 17t-31 -11t-15.5 -21.5t-1.5 -15.5h-52q-13 48 25 81t91 33q43 0 84 -29t69 -29q23 0 38 15.5t13 26.5zM674 621v-54q-64 -10 -64 -44v-523q0 -8 -26.5 -8t-32.5 8l-388 458v-360q0 -34 64 -44v-54
h-202v54q64 10 64 44v425q0 34 -64 44v54h182l320 -403v305q0 34 -64 44v54h211z" />
    <glyph glyph-name="Ograve" unicode="&#xd2;" 
d="M420 751l-101 115q-44 50 -83 10q-21 -26 -11.5 -48.5t37.5 -39.5l130 -78q20 -12 32 5q13 17 -4 36zM669 316q0 -140 -94 -235.5t-225 -95.5q-137 0 -228.5 89t-91.5 242q0 143 92.5 232t227.5 89q131 0 225 -92t94 -229zM360 68q35 0 60.5 7.5t49.5 29t37 67t13 114.5
q0 129 -48.5 205.5t-121.5 76.5q-171 0 -171 -222q0 -118 54.5 -198t126.5 -80z" />
    <glyph glyph-name="Oacute" unicode="&#xd3;" 
d="M410 866l-101 -115q-17 -19 -4 -36q12 -17 32 -5l130 78q28 17 37.5 39.5t-11.5 48.5q-39 40 -83 -10zM669 316q0 -140 -94 -235.5t-225 -95.5q-137 0 -228.5 89t-91.5 242q0 143 92.5 232t227.5 89q131 0 225 -92t94 -229zM360 68q35 0 60.5 7.5t49.5 29t37 67t13 114.5
q0 129 -48.5 205.5t-121.5 76.5q-171 0 -171 -222q0 -118 54.5 -198t126.5 -80z" />
    <glyph glyph-name="Ocircumflex" unicode="&#xd4;" 
d="M353 896l174 -192h-83l-91 62l-91 -62h-83zM669 316q0 -140 -94 -235.5t-225 -95.5q-137 0 -228.5 89t-91.5 242q0 143 92.5 232t227.5 89q131 0 225 -92t94 -229zM360 68q35 0 60.5 7.5t49.5 29t37 67t13 114.5q0 129 -48.5 205.5t-121.5 76.5q-171 0 -171 -222
q0 -118 54.5 -198t126.5 -80z" />
    <glyph glyph-name="Otilde" unicode="&#xd5;" 
d="M481 826h63q-4 -53 -40 -85.5t-93 -32.5q-32 0 -59.5 17t-49.5 34t-41 17t-31 -11t-15.5 -21.5t-1.5 -15.5h-52q-13 48 25 81t91 33q43 0 84 -29t69 -29q23 0 38 15.5t13 26.5zM669 316q0 -140 -94 -235.5t-225 -95.5q-137 0 -228.5 89t-91.5 242q0 143 92.5 232
t227.5 89q131 0 225 -92t94 -229zM360 68q35 0 60.5 7.5t49.5 29t37 67t13 114.5q0 129 -48.5 205.5t-121.5 76.5q-171 0 -171 -222q0 -118 54.5 -198t126.5 -80z" />
    <glyph glyph-name="Odieresis" unicode="&#xd6;" 
d="M229 713q-32 0 -55 23t-23 55t23 54.5t55 22.5q31 0 54 -23t23 -54q0 -32 -22.5 -55t-54.5 -23zM462 713q-32 0 -55 23t-23 55t23 54.5t55 22.5t54.5 -23t22.5 -54q0 -32 -22.5 -55t-54.5 -23zM669 316q0 -140 -94 -235.5t-225 -95.5q-137 0 -228.5 89t-91.5 242
q0 143 92.5 232t227.5 89q131 0 225 -92t94 -229zM360 68q35 0 60.5 7.5t49.5 29t37 67t13 114.5q0 129 -48.5 205.5t-121.5 76.5q-171 0 -171 -222q0 -118 54.5 -198t126.5 -80z" />
    <glyph glyph-name="multiply" unicode="&#xd7;" horiz-adv-x="464" 
d="M394 358l-106 -106l106 -107l-56 -56l-106 106l-106 -106l-56 56l106 107l-106 106l56 56l106 -106l106 106z" />
    <glyph glyph-name="Oslash" unicode="&#xd8;" 
d="M601 589l-30 -40q98 -93 98 -233t-94 -235.5t-225 -95.5q-96 0 -171 45l-34 -45l-60 48l33 44q-88 91 -88 239q0 143 92.5 232t227.5 89q86 0 159 -42l32 42zM179 346q0 -82 29 -150l244 322q-44 50 -102 50q-171 0 -171 -222zM360 68q35 0 60.5 7.5t49.5 29t37 67
t13 114.5q0 90 -26 161l-243 -322q49 -57 109 -57z" />
    <glyph glyph-name="Ugrave" unicode="&#xd9;" horiz-adv-x="674" 
d="M418 751l-101 115q-44 50 -83 10q-21 -26 -11.5 -48.5t37.5 -39.5l130 -78q20 -12 32 5q13 17 -4 36zM634 621v-54q-15 -2 -23.5 -5t-15 -9.5t-6.5 -17.5v-281q0 -120 -67.5 -192t-178.5 -72q-131 0 -205 73t-74 201v271q0 11 -6.5 17.5t-14.5 9.5t-23 5v54h223v-54
q-15 -2 -23.5 -5t-15.5 -9.5t-7 -17.5v-251q0 -106 40 -161.5t106 -55.5q175 0 175 207v261q0 16 -11.5 22.5t-35.5 9.5v54h163z" />
    <glyph glyph-name="Uacute" unicode="&#xda;" horiz-adv-x="674" 
d="M408 866l-101 -115q-17 -19 -4 -36q12 -17 32 -5l130 78q28 17 37.5 39.5t-11.5 48.5q-39 40 -83 -10zM634 621v-54q-15 -2 -23.5 -5t-15 -9.5t-6.5 -17.5v-281q0 -120 -67.5 -192t-178.5 -72q-131 0 -205 73t-74 201v271q0 11 -6.5 17.5t-14.5 9.5t-23 5v54h223v-54
q-15 -2 -23.5 -5t-15.5 -9.5t-7 -17.5v-251q0 -106 40 -161.5t106 -55.5q175 0 175 207v261q0 16 -11.5 22.5t-35.5 9.5v54h163z" />
    <glyph glyph-name="Ucircumflex" unicode="&#xdb;" horiz-adv-x="674" 
d="M351 896l174 -192h-83l-91 62l-91 -62h-83zM634 621v-54q-15 -2 -23.5 -5t-15 -9.5t-6.5 -17.5v-281q0 -120 -67.5 -192t-178.5 -72q-131 0 -205 73t-74 201v271q0 11 -6.5 17.5t-14.5 9.5t-23 5v54h223v-54q-15 -2 -23.5 -5t-15.5 -9.5t-7 -17.5v-251q0 -106 40 -161.5
t106 -55.5q175 0 175 207v261q0 16 -11.5 22.5t-35.5 9.5v54h163z" />
    <glyph glyph-name="Udieresis" unicode="&#xdc;" horiz-adv-x="674" 
d="M227 713q-32 0 -55 23t-23 55t23 54.5t55 22.5q31 0 54 -23t23 -54q0 -32 -22.5 -55t-54.5 -23zM460 713q-32 0 -55 23t-23 55t23 54.5t55 22.5t54.5 -23t22.5 -54q0 -32 -22.5 -55t-54.5 -23zM634 621v-54q-15 -2 -23.5 -5t-15 -9.5t-6.5 -17.5v-281q0 -120 -67.5 -192
t-178.5 -72q-131 0 -205 73t-74 201v271q0 11 -6.5 17.5t-14.5 9.5t-23 5v54h223v-54q-15 -2 -23.5 -5t-15.5 -9.5t-7 -17.5v-251q0 -106 40 -161.5t106 -55.5q175 0 175 207v261q0 16 -11.5 22.5t-35.5 9.5v54h163z" />
    <glyph glyph-name="Yacute" unicode="&#xdd;" horiz-adv-x="651" 
d="M467 788l-130 -78q-20 -12 -32 5q-13 17 4 36l101 115q44 50 83 10q21 -26 11.5 -48.5t-37.5 -39.5zM443 621h193v-57q-29 -3 -45 -15.5t-39 -43.5l-163 -217v-195q0 -8 5.5 -14t18 -9.5t22 -5t27.5 -4.5v-60h-267v60q19 3 28 4.5t22 5t18.5 9.5t5.5 14v169l-161 218
q-7 9 -18 24.5t-15 21.5t-12 15t-14 12t-14.5 6.5t-19.5 4.5v57h244v-57q-23 -4 -34.5 -13t-2.5 -20l138 -186l131 176q13 18 -1.5 28.5t-46.5 14.5v57z" />
    <glyph glyph-name="Thorn" unicode="&#xde;" horiz-adv-x="552" 
d="M262 135h-53v-37q0 -34 64 -44v-54h-263v54q64 10 64 44v425q0 34 -64 44v54h263v-54q-64 -10 -64 -44v-11h52q119 0 197.5 -54t78.5 -141q0 -85 -76.5 -133.5t-198.5 -48.5zM275 451h-66v-252h66q65 0 96 36t31 92q0 57 -32 90.5t-95 33.5z" />
    <glyph glyph-name="germandbls" unicode="&#xdf;" horiz-adv-x="567" 
d="M389 371q60 -20 101.5 -69t41.5 -117q0 -85 -80.5 -135.5t-204.5 -50.5v67q156 0 156 119q0 30 -4.5 51t-19 42t-46.5 32t-81 12v59q42 0 70 32.5t28 78.5q0 39 -22 75.5t-66 36.5q-71 0 -71 -108v-387q0 -56 -34.5 -82.5t-91.5 -26.5h-38v54q29 4 37.5 10t8.5 23v407
q0 80 52 126.5t137 46.5q87 0 142 -49.5t55 -125.5q0 -68 -70 -121z" />
    <glyph glyph-name="agrave" unicode="&#xe0;" horiz-adv-x="506" 
d="M317 581l-101 115q-44 50 -83 10q-21 -26 -11.5 -48.5t37.5 -39.5l130 -78q20 -12 32 5q13 17 -4 36zM430 278v-172q0 -45 56 -36v-51q-70 -24 -104 -24q-61 0 -69 97q-38 -102 -129 -102q-68 0 -113.5 35t-45.5 98q0 46 22.5 75.5t85 53.5t176.5 41v22q0 92 -66 92
q-37 0 -53 -14t-16 -56q0 -16 -19.5 -25.5t-47.5 -9.5q-25 0 -40.5 15.5t-15.5 37.5q0 49 57.5 77t138.5 28q86 0 134.5 -41.5t48.5 -140.5zM211 69q40 0 63.5 31t34.5 72v63q-53 -10 -87.5 -23.5t-48 -29.5t-17 -27t-3.5 -26q0 -24 17 -42t41 -18z" />
    <glyph glyph-name="aacute" unicode="&#xe1;" horiz-adv-x="506" 
d="M307 696l-101 -115q-17 -19 -4 -36q12 -17 32 -5l130 78q28 17 37.5 39.5t-11.5 48.5q-39 40 -83 -10zM430 278v-172q0 -45 56 -36v-51q-70 -24 -104 -24q-61 0 -69 97q-38 -102 -129 -102q-68 0 -113.5 35t-45.5 98q0 46 22.5 75.5t85 53.5t176.5 41v22q0 92 -66 92
q-37 0 -53 -14t-16 -56q0 -16 -19.5 -25.5t-47.5 -9.5q-25 0 -40.5 15.5t-15.5 37.5q0 49 57.5 77t138.5 28q86 0 134.5 -41.5t48.5 -140.5zM211 69q40 0 63.5 31t34.5 72v63q-53 -10 -87.5 -23.5t-48 -29.5t-17 -27t-3.5 -26q0 -24 17 -42t41 -18z" />
    <glyph glyph-name="acircumflex" unicode="&#xe2;" horiz-adv-x="506" 
d="M250 726l174 -192h-83l-91 62l-91 -62h-83zM430 278v-172q0 -45 56 -36v-51q-70 -24 -104 -24q-61 0 -69 97q-38 -102 -129 -102q-68 0 -113.5 35t-45.5 98q0 46 22.5 75.5t85 53.5t176.5 41v22q0 92 -66 92q-37 0 -53 -14t-16 -56q0 -16 -19.5 -25.5t-47.5 -9.5
q-25 0 -40.5 15.5t-15.5 37.5q0 49 57.5 77t138.5 28q86 0 134.5 -41.5t48.5 -140.5zM211 69q40 0 63.5 31t34.5 72v63q-53 -10 -87.5 -23.5t-48 -29.5t-17 -27t-3.5 -26q0 -24 17 -42t41 -18z" />
    <glyph glyph-name="atilde" unicode="&#xe3;" horiz-adv-x="506" 
d="M378 656h63q-4 -53 -40 -85.5t-93 -32.5q-32 0 -59.5 17t-49.5 34t-41 17t-31 -11t-15.5 -21.5t-1.5 -15.5h-52q-13 48 25 81t91 33q43 0 84 -29t69 -29q23 0 38 15.5t13 26.5zM430 278v-172q0 -45 56 -36v-51q-70 -24 -104 -24q-61 0 -69 97q-38 -102 -129 -102
q-68 0 -113.5 35t-45.5 98q0 46 22.5 75.5t85 53.5t176.5 41v22q0 92 -66 92q-37 0 -53 -14t-16 -56q0 -16 -19.5 -25.5t-47.5 -9.5q-25 0 -40.5 15.5t-15.5 37.5q0 49 57.5 77t138.5 28q86 0 134.5 -41.5t48.5 -140.5zM211 69q40 0 63.5 31t34.5 72v63q-53 -10 -87.5 -23.5
t-48 -29.5t-17 -27t-3.5 -26q0 -24 17 -42t41 -18z" />
    <glyph glyph-name="adieresis" unicode="&#xe4;" horiz-adv-x="506" 
d="M126 543q-32 0 -55 23t-23 55t23 54.5t55 22.5t54.5 -23t22.5 -54q0 -32 -22.5 -55t-54.5 -23zM359 543q-32 0 -55 23t-23 55t23 54.5t55 22.5q31 0 54 -23t23 -54q0 -32 -22.5 -55t-54.5 -23zM430 278v-172q0 -45 56 -36v-51q-70 -24 -104 -24q-61 0 -69 97
q-38 -102 -129 -102q-68 0 -113.5 35t-45.5 98q0 46 22.5 75.5t85 53.5t176.5 41v22q0 92 -66 92q-37 0 -53 -14t-16 -56q0 -16 -19.5 -25.5t-47.5 -9.5q-25 0 -40.5 15.5t-15.5 37.5q0 49 57.5 77t138.5 28q86 0 134.5 -41.5t48.5 -140.5zM211 69q40 0 63.5 31t34.5 72v63
q-53 -10 -87.5 -23.5t-48 -29.5t-17 -27t-3.5 -26q0 -24 17 -42t41 -18z" />
    <glyph glyph-name="aring" unicode="&#xe5;" horiz-adv-x="506" 
d="M247 535q-44 0 -76 30.5t-32 72.5q0 43 32 73.5t76 30.5q45 0 76 -30.5t31 -73.5q0 -42 -31 -72.5t-76 -30.5zM247 594q12 0 23 13.5t11 30.5t-11 30.5t-23 13.5q-15 0 -26 -13.5t-11 -30.5q0 -18 11 -31t26 -13zM430 278v-172q0 -45 56 -36v-51q-70 -24 -104 -24
q-61 0 -69 97q-38 -102 -129 -102q-68 0 -113.5 35t-45.5 98q0 46 22.5 75.5t85 53.5t176.5 41v22q0 92 -66 92q-37 0 -53 -14t-16 -56q0 -16 -19.5 -25.5t-47.5 -9.5q-25 0 -40.5 15.5t-15.5 37.5q0 49 57.5 77t138.5 28q86 0 134.5 -41.5t48.5 -140.5zM211 69
q40 0 63.5 31t34.5 72v63q-53 -10 -87.5 -23.5t-48 -29.5t-17 -27t-3.5 -26q0 -24 17 -42t41 -18z" />
    <glyph glyph-name="ae" unicode="&#xe6;" horiz-adv-x="790" 
d="M755 269q0 -30 -14.5 -49.5t-41.5 -19.5h-255q0 -59 32 -99t92 -40q67 0 117 56l44 -42q-64 -85 -174 -85q-57 0 -106.5 23t-82.5 65q-65 -84 -178 -85q-68 -1 -113 32t-45 98q0 46 22.5 75.5t85 53.5t176.5 41v22q0 61 -27 81.5t-84 3.5q-14 -4 -18.5 -12.5t-4.5 -25.5
t-2 -25q-4 -18 -24.5 -30t-47.5 -9q-28 4 -42 26t-7 49q8 35 53 58.5t114 29.5q125 10 175 -53q61 50 142 50q85 0 149.5 -56t64.5 -133zM444 263h191q0 66 -22.5 97.5t-71.5 31.5q-97 0 -97 -129zM314 172v62q-53 -10 -87.5 -23t-48 -29t-17 -27t-3.5 -26q0 -22 16.5 -39.5
t40.5 -17.5q40 0 64.5 30t34.5 70z" />
    <glyph glyph-name="ccedilla" unicode="&#xe7;" horiz-adv-x="493" 
d="M378 102l4.5 4.5t5 4.5t5.5 3t6.5 2t6.5 -1.5t8 -5.5l28 -23q-14 -28 -50 -54t-89 -36l-19 -41q44 3 76.5 -25t25.5 -72q-7 -43 -47.5 -66.5t-88.5 -21.5q-50 2 -81.5 25.5t-36.5 50.5q-5 28 26 40.5t56 -13.5q3 -17 5 -24.5t11.5 -17t25.5 -9.5q42 -1 49 44q4 23 -8 35
t-35 10q-7 -1 -19 -3t-17 -3q-21 -4 -29.5 8.5t0.5 25.5q16 28 27 55q-81 11 -140 73.5t-59 155.5q0 107 70 172t161 65q84 0 138 -37.5t54 -84.5q0 -54 -55 -54q-29 0 -44.5 13.5t-15.5 31.5q0 16 -1.5 24.5t-7 19.5t-19.5 16t-37 5q-60 0 -86.5 -36.5t-26.5 -117.5
q0 -79 34.5 -129.5t92.5 -49.5q53 1 96 41z" />
    <glyph glyph-name="egrave" unicode="&#xe8;" horiz-adv-x="500" 
d="M329 581l-101 115q-44 50 -83 10q-21 -26 -11.5 -48.5t37.5 -39.5l130 -78q20 -12 32 5q13 17 -4 36zM470 269q0 -30 -14.5 -49.5t-41.5 -19.5h-255q0 -59 32 -99t92 -40q67 0 117 56l44 -42q-64 -85 -174 -85q-100 0 -170 67t-70 170q0 104 68 167.5t158 63.5
q85 0 149.5 -56t64.5 -133zM159 263h191q0 66 -22.5 97.5t-71.5 31.5q-97 0 -97 -129z" />
    <glyph glyph-name="eacute" unicode="&#xe9;" horiz-adv-x="500" 
d="M319 696l-101 -115q-17 -19 -4 -36q12 -17 32 -5l130 78q28 17 37.5 39.5t-11.5 48.5q-39 40 -83 -10zM470 269q0 -30 -14.5 -49.5t-41.5 -19.5h-255q0 -59 32 -99t92 -40q67 0 117 56l44 -42q-64 -85 -174 -85q-100 0 -170 67t-70 170q0 104 68 167.5t158 63.5
q85 0 149.5 -56t64.5 -133zM159 263h191q0 66 -22.5 97.5t-71.5 31.5q-97 0 -97 -129z" />
    <glyph glyph-name="ecircumflex" unicode="&#xea;" horiz-adv-x="500" 
d="M262 726l174 -192h-83l-91 62l-91 -62h-83zM470 269q0 -30 -14.5 -49.5t-41.5 -19.5h-255q0 -59 32 -99t92 -40q67 0 117 56l44 -42q-64 -85 -174 -85q-100 0 -170 67t-70 170q0 104 68 167.5t158 63.5q85 0 149.5 -56t64.5 -133zM159 263h191q0 66 -22.5 97.5
t-71.5 31.5q-97 0 -97 -129z" />
    <glyph glyph-name="edieresis" unicode="&#xeb;" horiz-adv-x="500" 
d="M138 543q-32 0 -55 23t-23 55t23 54.5t55 22.5t54.5 -23t22.5 -54q0 -32 -22.5 -55t-54.5 -23zM371 543q-32 0 -55 23t-23 55t23 54.5t55 22.5q31 0 54 -23t23 -54q0 -32 -22.5 -55t-54.5 -23zM470 269q0 -30 -14.5 -49.5t-41.5 -19.5h-255q0 -59 32 -99t92 -40
q67 0 117 56l44 -42q-64 -85 -174 -85q-100 0 -170 67t-70 170q0 104 68 167.5t158 63.5q85 0 149.5 -56t64.5 -133zM159 263h191q0 66 -22.5 97.5t-71.5 31.5q-97 0 -97 -129z" />
    <glyph glyph-name="igrave" unicode="&#xec;" horiz-adv-x="286" 
d="M195 581l-101 115q-44 50 -83 10q-21 -26 -11.5 -48.5t37.5 -39.5l130 -78q20 -12 32 5q13 17 -4 36zM203 420v-342q0 -28 43 -28v-50h-207v50q44 0 44 28v282q0 17 -6.5 24t-21.5 7h-20v51l136 9q32 3 32 -31z" />
    <glyph glyph-name="iacute" unicode="&#xed;" horiz-adv-x="286" 
d="M185 696l-101 -115q-17 -19 -4 -36q12 -17 32 -5l130 78q28 17 37.5 39.5t-11.5 48.5q-39 40 -83 -10zM203 420v-342q0 -28 43 -28v-50h-207v50q44 0 44 28v282q0 17 -6.5 24t-21.5 7h-20v51l136 9q32 3 32 -31z" />
    <glyph glyph-name="icircumflex" unicode="&#xee;" horiz-adv-x="286" 
d="M128 726l174 -192h-83l-91 62l-91 -62h-83zM203 420v-342q0 -28 43 -28v-50h-207v50q44 0 44 28v282q0 17 -6.5 24t-21.5 7h-20v51l136 9q32 3 32 -31z" />
    <glyph glyph-name="idieresis" unicode="&#xef;" horiz-adv-x="286" 
d="M4 543q-32 0 -55 23t-23 55t23 54.5t55 22.5t54.5 -23t22.5 -54q0 -32 -22.5 -55t-54.5 -23zM237 543q-32 0 -55 23t-23 55t23 54.5t55 22.5q31 0 54 -23t23 -54q0 -32 -22.5 -55t-54.5 -23zM203 420v-342q0 -28 43 -28v-50h-207v50q44 0 44 28v282q0 17 -6.5 24t-21.5 7
h-20v51l136 9q32 3 32 -31z" />
    <glyph glyph-name="eth" unicode="&#xf0;" horiz-adv-x="575" 
d="M535 557l-73 -20q14 -37 14 -86v-144q0 -313 -233 -313q-96 0 -154.5 60.5t-58.5 176.5q0 107 54 169t130 62q17 0 32 -2.5t28 -8.5t23 -11.5t21 -15t16 -14t14.5 -14.5t11.5 -12v87q0 15 -2 37l-80 -23l-20 62l81 23q-20 25 -72 28l-31 2v57h10.5t16 -0.5t19 -1.5t23 -3
t24 -5t25.5 -8t25 -11t25 -15t22 -19l89 25zM243 65q28 0 48 6.5t33 23t20.5 33t10.5 50t4 59.5t1 75q0 26 -33.5 60t-98.5 34q-83 0 -83 -175q0 -84 22 -125t76 -41z" />
    <glyph glyph-name="ntilde" unicode="&#xf1;" horiz-adv-x="606" 
d="M430 656h63q-4 -53 -40 -85.5t-93 -32.5q-32 0 -59.5 17t-49.5 34t-41 17t-31 -11t-15.5 -21.5t-1.5 -15.5h-52q-13 48 25 81t91 33q43 0 84 -29t69 -29q23 0 38 15.5t13 26.5zM526 286v-177q0 -28 12.5 -39.5t47.5 -3.5l-13 -56q-27 -10 -79 -10q-42 0 -64.5 20.5
t-22.5 51.5v189q0 62 -13.5 90.5t-55.5 28.5q-63 0 -133 -82q-2 -3 -3 -4v-216q0 -16 11.5 -22t38.5 -6v-50h-215v50q25 0 36 5.5t11 22.5v274q0 47 -59 39v51l148 17q25 3 28.5 -19t-3.5 -55l-4 -35q65 112 166 112q77 0 121.5 -39t44.5 -137z" />
    <glyph glyph-name="ograve" unicode="&#xf2;" horiz-adv-x="529" 
d="M338 581l-101 115q-44 50 -83 10q-21 -26 -11.5 -48.5t37.5 -39.5l130 -78q20 -12 32 5q13 17 -4 36zM265 458q92 0 163 -61.5t71 -166.5q0 -109 -71.5 -174.5t-162.5 -65.5t-163 64.5t-72 167.5q0 111 71 173.5t164 62.5zM369 192q0 99 -31.5 149.5t-82.5 50.5
q-95 0 -95 -132q0 -94 31.5 -146.5t81.5 -52.5q48 0 72 31t24 100z" />
    <glyph glyph-name="oacute" unicode="&#xf3;" horiz-adv-x="529" 
d="M328 696l-101 -115q-17 -19 -4 -36q12 -17 32 -5l130 78q28 17 37.5 39.5t-11.5 48.5q-39 40 -83 -10zM265 458q92 0 163 -61.5t71 -166.5q0 -109 -71.5 -174.5t-162.5 -65.5t-163 64.5t-72 167.5q0 111 71 173.5t164 62.5zM369 192q0 99 -31.5 149.5t-82.5 50.5
q-95 0 -95 -132q0 -94 31.5 -146.5t81.5 -52.5q48 0 72 31t24 100z" />
    <glyph glyph-name="ocircumflex" unicode="&#xf4;" horiz-adv-x="529" 
d="M271 726l174 -192h-83l-91 62l-91 -62h-83zM265 458q92 0 163 -61.5t71 -166.5q0 -109 -71.5 -174.5t-162.5 -65.5t-163 64.5t-72 167.5q0 111 71 173.5t164 62.5zM369 192q0 99 -31.5 149.5t-82.5 50.5q-95 0 -95 -132q0 -94 31.5 -146.5t81.5 -52.5q48 0 72 31t24 100z
" />
    <glyph glyph-name="otilde" unicode="&#xf5;" horiz-adv-x="529" 
d="M399 656h63q-4 -53 -40 -85.5t-93 -32.5q-32 0 -59.5 17t-49.5 34t-41 17t-31 -11t-15.5 -21.5t-1.5 -15.5h-52q-13 48 25 81t91 33q43 0 84 -29t69 -29q23 0 38 15.5t13 26.5zM265 458q92 0 163 -61.5t71 -166.5q0 -109 -71.5 -174.5t-162.5 -65.5t-163 64.5t-72 167.5
q0 111 71 173.5t164 62.5zM369 192q0 99 -31.5 149.5t-82.5 50.5q-95 0 -95 -132q0 -94 31.5 -146.5t81.5 -52.5q48 0 72 31t24 100z" />
    <glyph glyph-name="odieresis" unicode="&#xf6;" horiz-adv-x="529" 
d="M147 543q-32 0 -55 23t-23 55t23 54.5t55 22.5q31 0 54 -23t23 -54q0 -32 -22.5 -55t-54.5 -23zM380 543q-32 0 -55 23t-23 55t23 54.5t55 22.5t54.5 -23t22.5 -54q0 -32 -22.5 -55t-54.5 -23zM265 458q92 0 163 -61.5t71 -166.5q0 -109 -71.5 -174.5t-162.5 -65.5
t-163 64.5t-72 167.5q0 111 71 173.5t164 62.5zM369 192q0 99 -31.5 149.5t-82.5 50.5q-95 0 -95 -132q0 -94 31.5 -146.5t81.5 -52.5q48 0 72 31t24 100z" />
    <glyph glyph-name="divide" unicode="&#xf7;" horiz-adv-x="510" 
d="M257 347q-24 0 -41 17t-17 41q0 23 17 40t41 17q23 0 40 -17t17 -40q0 -24 -17 -41t-40 -17zM70 291h370v-79h-370v79zM257 41q-24 0 -41 17t-17 41q0 23 17 40t41 17q23 0 40 -17t17 -40q0 -24 -17 -41t-40 -17z" />
    <glyph glyph-name="oslash" unicode="&#xf8;" horiz-adv-x="529" 
d="M452 403l-13 -17q60 -63 60 -156q0 -109 -71.5 -174.5t-162.5 -65.5q-53 0 -106 25l-22 -30l-60 48l20 26q-67 67 -67 163q0 111 71 173.5t164 62.5q59 0 112 -27l15 20zM160 260q0 -58 12 -100l152 200q-28 32 -69 32q-95 0 -95 -132zM273 61q48 0 72 31t24 100
q0 52 -9 89l-147 -195q25 -25 60 -25z" />
    <glyph glyph-name="ugrave" unicode="&#xf9;" horiz-adv-x="587" 
d="M332 540l-130 78q-28 17 -37.5 39.5t11.5 48.5q39 40 83 -10l101 -115q17 -19 4 -36q-12 -17 -32 -5zM506 433v-327q0 -45 56 -36v-51l-91 -22q-32 -8 -55.5 15t-29.5 85v2q-37 -107 -145 -107q-77 0 -125 43.5t-48 125.5v198q0 32 -28 32h-15v45l136 19q11 2 19 -4.5
t8 -17.5v-252q0 -61 21.5 -87t64.5 -26q46 0 70 25.5t42 76.5v189q0 17 -6 24.5t-21 7.5h-15v45l135 20q12 1 19.5 -5.5t7.5 -17.5z" />
    <glyph glyph-name="uacute" unicode="&#xfa;" horiz-adv-x="587" 
d="M407 618l-130 -78q-20 -12 -32 5q-13 17 4 36l101 115q44 50 83 10q21 -26 11.5 -48.5t-37.5 -39.5zM506 433v-327q0 -45 56 -36v-51l-91 -22q-32 -8 -55.5 15t-29.5 85v2q-37 -107 -145 -107q-77 0 -125 43.5t-48 125.5v198q0 32 -28 32h-15v45l136 19q11 2 19 -4.5
t8 -17.5v-252q0 -61 21.5 -87t64.5 -26q46 0 70 25.5t42 76.5v189q0 17 -6 24.5t-21 7.5h-15v45l135 20q12 1 19.5 -5.5t7.5 -17.5z" />
    <glyph glyph-name="ucircumflex" unicode="&#xfb;" horiz-adv-x="587" 
d="M293 596l-91 -62h-83l174 192l174 -192h-83zM506 433v-327q0 -45 56 -36v-51l-91 -22q-32 -8 -55.5 15t-29.5 85v2q-37 -107 -145 -107q-77 0 -125 43.5t-48 125.5v198q0 32 -28 32h-15v45l136 19q11 2 19 -4.5t8 -17.5v-252q0 -61 21.5 -87t64.5 -26q46 0 70 25.5
t42 76.5v189q0 17 -6 24.5t-21 7.5h-15v45l135 20q12 1 19.5 -5.5t7.5 -17.5z" />
    <glyph glyph-name="udieresis" unicode="&#xfc;" horiz-adv-x="587" 
d="M169 543q-32 0 -55 23t-23 55t23 54.5t55 22.5q31 0 54 -23t23 -54q0 -32 -22.5 -55t-54.5 -23zM402 543q-32 0 -55 23t-23 55t23 54.5t55 22.5t54.5 -23t22.5 -54q0 -32 -22.5 -55t-54.5 -23zM506 433v-327q0 -45 56 -36v-51l-91 -22q-32 -8 -55.5 15t-29.5 85v2
q-37 -107 -145 -107q-77 0 -125 43.5t-48 125.5v198q0 32 -28 32h-15v45l136 19q11 2 19 -4.5t8 -17.5v-252q0 -61 21.5 -87t64.5 -26q46 0 70 25.5t42 76.5v189q0 17 -6 24.5t-21 7.5h-15v45l135 20q12 1 19.5 -5.5t7.5 -17.5z" />
    <glyph glyph-name="yacute" unicode="&#xfd;" horiz-adv-x="588" 
d="M371 696l-101 -115q-17 -19 -4 -36q12 -17 32 -5l130 78q28 17 37.5 39.5t-11.5 48.5q-39 40 -83 -10zM568 451v-40l-14 -6q-4 -2 -10.5 -4.5t-10.5 -4t-8.5 -4t-7.5 -6t-5 -8.5l-209 -462q-30 -67 -64 -99t-90 -32q-117 0 -135 66q-9 35 6 57.5t52 22.5q27 0 40 -13.5
t14.5 -30.5t8.5 -30.5t22 -13.5q5 0 9 1.5t8 4.5t7.5 6.5t7.5 9t6.5 10t6.5 11.5t6 11.5t6 13t6 12.5l38 77l-195 378q-10 19 -33 27l-18 6v40h228v-40l-25 -5q-32 -6 -22 -28l129 -266l111 266q4 10 -3 17.5t-20 10.5l-28 5v40h186z" />
    <glyph glyph-name="thorn" unicode="&#xfe;" horiz-adv-x="571" 
d="M332 458q85 0 142 -62t57 -169q0 -106 -62 -169.5t-140 -63.5q-73 0 -138 71v-181q0 -16 11.5 -22t38.5 -6v-40h-218v40q25 0 36 5.5t11 22.5v699q0 33 -27 33h-28v36l151 15q24 3 24 -19v-166q0 -63 -16 -124l17 22q65 78 141 78zM319 61q37 0 60.5 39.5t23.5 113.5
q0 71 -22.5 116.5t-60.5 45.5q-74 0 -129 -53v-171q15 -41 48 -66t80 -25z" />
    <glyph glyph-name="ydieresis" unicode="&#xff;" horiz-adv-x="588" 
d="M190 543q-32 0 -55 23t-23 55t23 54.5t55 22.5t54.5 -23t22.5 -54q0 -32 -22.5 -55t-54.5 -23zM423 543q-32 0 -55 23t-23 55t23 54.5t55 22.5q31 0 54 -23t23 -54q0 -32 -22.5 -55t-54.5 -23zM568 451v-40l-14 -6q-4 -2 -10.5 -4.5t-10.5 -4t-8.5 -4t-7.5 -6t-5 -8.5
l-209 -462q-30 -67 -64 -99t-90 -32q-117 0 -135 66q-9 35 6 57.5t52 22.5q27 0 40 -13.5t14.5 -30.5t8.5 -30.5t22 -13.5q5 0 9 1.5t8 4.5t7.5 6.5t7.5 9t6.5 10t6.5 11.5t6 11.5t6 13t6 12.5l38 77l-195 378q-10 19 -33 27l-18 6v40h228v-40l-25 -5q-32 -6 -22 -28
l129 -266l111 266q4 10 -3 17.5t-20 10.5l-28 5v40h186z" />
    <glyph glyph-name="Amacron" unicode="&#x100;" horiz-adv-x="707" 
d="M492 753h-283q-20 0 -20 17v49q0 17 20 17h283q20 0 20 -17v-49q0 -17 -20 -17zM398 583l201 -448q22 -49 36 -61t52 -21v-53h-244v54q40 7 47 12.5t-1 22.5l-56 127h-212l-50 -122q-6 -15 6.5 -24t49.5 -16v-54h-207v54q40 8 50 15.5t24 41.5l219 518l45 -13
q29 -9 40 -33zM246 276h161l-83 190z" />
    <glyph glyph-name="amacron" unicode="&#x101;" horiz-adv-x="506" 
d="M87 600v49q0 17 20 17h283q20 0 20 -17v-49q0 -17 -20 -17h-283q-20 0 -20 17zM430 278v-172q0 -45 56 -36v-51q-70 -24 -104 -24q-61 0 -69 97q-38 -102 -129 -102q-68 0 -113.5 35t-45.5 98q0 46 22.5 75.5t85 53.5t176.5 41v22q0 92 -66 92q-37 0 -53 -14t-16 -56
q0 -16 -19.5 -25.5t-47.5 -9.5q-25 0 -40.5 15.5t-15.5 37.5q0 49 57.5 77t138.5 28q86 0 134.5 -41.5t48.5 -140.5zM211 69q40 0 63.5 31t34.5 72v63q-53 -10 -87.5 -23.5t-48 -29.5t-17 -27t-3.5 -26q0 -24 17 -42t41 -18z" />
    <glyph glyph-name="Abreve" unicode="&#x102;" horiz-adv-x="707" 
d="M346 711q-62 0 -103 37.5t-44 101.5q0 11 10 11h39q10 0 11 -11q3 -22 27 -35.5t60 -13.5t60 13.5t27 35.5q1 11 11 11h39q10 0 10 -11q-3 -64 -44 -101.5t-103 -37.5zM398 583l201 -448q22 -49 36 -61t52 -21v-53h-244v54q40 7 47 12.5t-1 22.5l-56 127h-212l-50 -122
q-6 -15 6.5 -24t49.5 -16v-54h-207v54q40 8 50 15.5t24 41.5l219 518l45 -13q29 -9 40 -33zM246 276h161l-83 190z" />
    <glyph glyph-name="abreve" unicode="&#x103;" horiz-adv-x="506" 
d="M244 541q-62 0 -103 37.5t-44 101.5q0 11 10 11h39q10 0 11 -11q3 -22 27 -35.5t60 -13.5t60 13.5t27 35.5q1 11 11 11h39q10 0 10 -11q-3 -64 -44 -101.5t-103 -37.5zM430 278v-172q0 -45 56 -36v-51q-70 -24 -104 -24q-61 0 -69 97q-38 -102 -129 -102q-68 0 -113.5 35
t-45.5 98q0 46 22.5 75.5t85 53.5t176.5 41v22q0 92 -66 92q-37 0 -53 -14t-16 -56q0 -16 -19.5 -25.5t-47.5 -9.5q-25 0 -40.5 15.5t-15.5 37.5q0 49 57.5 77t138.5 28q86 0 134.5 -41.5t48.5 -140.5zM211 69q40 0 63.5 31t34.5 72v63q-53 -10 -87.5 -23.5t-48 -29.5
t-17 -27t-3.5 -26q0 -24 17 -42t41 -18z" />
    <glyph glyph-name="Aogonek" unicode="&#x104;" horiz-adv-x="707" 
d="M687 0h-89q-89 -59 -89 -114q0 -25 15.5 -41t41.5 -16q52 0 70 55h42q-4 -17 -12 -33t-25 -36.5t-49 -33t-74 -12.5q-51 0 -87.5 24t-36.5 74t44 85t97 48h-92v54q40 7 47 12.5t-1 22.5l-56 127h-212l-50 -122q-6 -15 6.5 -24t49.5 -16v-54h-207v54q40 8 50 15.5t24 41.5
l219 518l45 -13q29 -9 40 -33l201 -448q22 -49 36 -61t52 -21v-53zM246 276h161l-83 190z" />
    <glyph glyph-name="aogonek" unicode="&#x105;" horiz-adv-x="511" 
d="M449 -98h42q-4 -16 -12.5 -33t-25 -38t-46 -34t-66.5 -13q-51 0 -86 24t-35 74q0 89 124 127q-25 24 -31 83q-38 -102 -129 -102q-68 0 -113.5 35t-45.5 98q0 46 22.5 75.5t85 53.5t176.5 41v22q0 92 -66 92q-37 0 -53 -14t-16 -56q0 -16 -19.5 -25.5t-47.5 -9.5
q-25 0 -40.5 15.5t-15.5 37.5q0 49 57.5 77t138.5 28q86 0 134.5 -41.5t48.5 -140.5v-172q0 -45 56 -36v-51q-7 -3 -19.5 -6.5t-17.5 -5.5v-1q-56 -15 -85 -37t-29 -64q0 -28 14.5 -44.5t40.5 -16.5q40 0 59 58zM309 172v63q-53 -10 -87.5 -23.5t-48 -29.5t-17 -27t-3.5 -26
q0 -24 17 -42t41 -18q40 0 63.5 31t34.5 72z" />
    <glyph glyph-name="Cacute" unicode="&#x106;" horiz-adv-x="654" 
d="M406 866l-101 -115q-17 -19 -4 -36q12 -17 32 -5l130 78q28 17 37.5 39.5t-11.5 48.5q-39 40 -83 -10zM606 434l-59 -19q-17 -5 -23 11q-2 6 -14 36q-44 108 -150 108q-80 0 -128 -60.5t-48 -181.5q0 -110 57.5 -186t143.5 -76q88 0 141 68q5 6 11.5 15.5t10 13.5t8.5 8
t10 4q11 0 26 -10.5t16 -21.5q2 -12 -10 -34q-72 -124 -244 -124q-82 0 -153.5 38t-118.5 116.5t-47 182.5q0 140 87 227.5t212 87.5q113 0 179 -82q21 0 29 49q3 17 19 17h34z" />
    <glyph glyph-name="cacute" unicode="&#x107;" horiz-adv-x="493" 
d="M329 696l-101 -115q-17 -19 -4 -36q12 -17 32 -5l130 78q28 17 37.5 39.5t-11.5 48.5q-39 40 -83 -10zM414 109l28 -23q-18 -35 -66.5 -64.5t-121.5 -29.5q-90 0 -159.5 64.5t-69.5 166.5q0 107 70 172t161 65q84 0 138 -37.5t54 -84.5q0 -54 -55 -54q-29 0 -44.5 13.5
t-15.5 31.5q0 16 -1.5 24.5t-7 19.5t-19.5 16t-37 5q-60 0 -86.5 -36.5t-26.5 -117.5q0 -79 34.5 -129.5t92.5 -49.5q53 1 96 41l4.5 4.5t5 4.5t5.5 3t6.5 2t6.5 -1.5t8 -5.5z" />
    <glyph glyph-name="Cdotaccent" unicode="&#x10a;" horiz-adv-x="654" 
d="M336 711q-31 0 -52.5 21.5t-21.5 52.5q0 30 21.5 51.5t52.5 21.5q30 0 51.5 -21.5t21.5 -51.5q0 -31 -21.5 -52.5t-51.5 -21.5zM606 434l-59 -19q-17 -5 -23 11q-2 6 -14 36q-44 108 -150 108q-80 0 -128 -60.5t-48 -181.5q0 -110 57.5 -186t143.5 -76q88 0 141 68
q5 6 11.5 15.5t10 13.5t8.5 8t10 4q11 0 26 -10.5t16 -21.5q2 -12 -10 -34q-72 -124 -244 -124q-82 0 -153.5 38t-118.5 116.5t-47 182.5q0 140 87 227.5t212 87.5q113 0 179 -82q21 0 29 49q3 17 19 17h34z" />
    <glyph glyph-name="cdotaccent" unicode="&#x10b;" horiz-adv-x="493" 
d="M259 541q-31 0 -52.5 21.5t-21.5 52.5q0 30 21.5 51.5t52.5 21.5q30 0 51.5 -21.5t21.5 -51.5q0 -31 -21.5 -52.5t-51.5 -21.5zM414 109l28 -23q-18 -35 -66.5 -64.5t-121.5 -29.5q-90 0 -159.5 64.5t-69.5 166.5q0 107 70 172t161 65q84 0 138 -37.5t54 -84.5
q0 -54 -55 -54q-29 0 -44.5 13.5t-15.5 31.5q0 16 -1.5 24.5t-7 19.5t-19.5 16t-37 5q-60 0 -86.5 -36.5t-26.5 -117.5q0 -79 34.5 -129.5t92.5 -49.5q53 1 96 41l4.5 4.5t5 4.5t5.5 3t6.5 2t6.5 -1.5t8 -5.5z" />
    <glyph glyph-name="Ccaron" unicode="&#x10c;" horiz-adv-x="654" 
d="M334 684l-174 192h83l91 -62l91 62h83zM606 434l-59 -19q-17 -5 -23 11q-2 6 -14 36q-44 108 -150 108q-80 0 -128 -60.5t-48 -181.5q0 -110 57.5 -186t143.5 -76q88 0 141 68q5 6 11.5 15.5t10 13.5t8.5 8t10 4q11 0 26 -10.5t16 -21.5q2 -12 -10 -34
q-72 -124 -244 -124q-82 0 -153.5 38t-118.5 116.5t-47 182.5q0 140 87 227.5t212 87.5q113 0 179 -82q21 0 29 49q3 17 19 17h34z" />
    <glyph glyph-name="ccaron" unicode="&#x10d;" horiz-adv-x="493" 
d="M257 514l-174 192h83l91 -62l91 62h83zM414 109l28 -23q-18 -35 -66.5 -64.5t-121.5 -29.5q-90 0 -159.5 64.5t-69.5 166.5q0 107 70 172t161 65q84 0 138 -37.5t54 -84.5q0 -54 -55 -54q-29 0 -44.5 13.5t-15.5 31.5q0 16 -1.5 24.5t-7 19.5t-19.5 16t-37 5
q-60 0 -86.5 -36.5t-26.5 -117.5q0 -79 34.5 -129.5t92.5 -49.5q53 1 96 41l4.5 4.5t5 4.5t5.5 3t6.5 2t6.5 -1.5t8 -5.5z" />
    <glyph glyph-name="Dcaron" unicode="&#x10e;" horiz-adv-x="659" 
d="M298 684l-174 192h83l91 -62l91 62h83zM16 621h241q357 0 357 -310q0 -82 -26.5 -142.5t-65.5 -92.5t-90.5 -50.5t-94 -22t-83.5 -0.5q-139 8 -239 -3v59q65 14 65 48v416q0 34 -64 44v54zM244 67l51 -2q83 -3 124.5 60.5t41.5 185.5q0 123 -51 187t-145 64h-50v-452
q0 -42 29 -43z" />
    <glyph glyph-name="dcaron" unicode="&#x10f;" horiz-adv-x="685" 
d="M670 589q9 -49 -4 -95q-17 -56 -60 -93q-12 -8 -21 2l-21 24q33 37 39 53q10 27 6 43q-10 -2 -29 -1q-24 3 -40.5 25t-12.5 49q3 29 26 46.5t51 14.5q27 -3 44.5 -22.5t21.5 -45.5zM481 582v-489q0 -25 13 -33t43 -3v-33l-98 -24q-24 -6 -48 18t-30 74q-10 -36 -40.5 -68
t-86.5 -32q-78 0 -138.5 62t-60.5 160q0 103 61.5 174.5t137.5 71.5q83 0 127 -67v157q0 24 -13 33.5t-42 8.5v45l146 19q6 -1 10.5 0t8 -2.5t5.5 -4.5t3.5 -7t2 -9.5t0.5 -11v-12t-0.5 -13t-0.5 -14.5zM361 144v197q-50 50 -102 50q-42 0 -69 -48.5t-27 -115.5
q0 -60 24 -106t67 -46q28 0 51.5 13.5t32.5 24.5t23 31z" />
    <glyph glyph-name="Dcroat" unicode="&#x110;" horiz-adv-x="663" 
d="M20 621h241q357 0 357 -310q0 -82 -26.5 -142.5t-65.5 -92.5t-90.5 -50.5t-94 -22t-83.5 -0.5q-139 8 -239 -3v59q65 14 65 48v171h-69v65h69v180q0 34 -64 44v54zM248 67l51 -2q83 -3 124.5 60.5t41.5 185.5q0 123 -51 187t-145 64h-50v-219h66v-65h-66v-168
q0 -42 29 -43z" />
    <glyph glyph-name="dcroat" unicode="&#x111;" horiz-adv-x="556" 
d="M481 476v-383q0 -25 13 -33t43 -3v-33l-98 -24q-24 -6 -48 18t-30 74q-10 -36 -40.5 -68t-86.5 -32q-78 0 -138.5 62t-60.5 160q0 103 61.5 174.5t137.5 71.5q83 0 127 -67v83h-136q-20 0 -20 17v49q0 17 20 17h136q-5 34 -55 33v45l146 19q6 -1 10.5 0t8 -2.5t5.5 -4.5
t3.5 -7t2 -9.5t0.5 -11v-12t-0.5 -13t-0.5 -14.5v-23h27q20 0 20 -17v-49q0 -17 -20 -17h-27zM361 144v197q-50 50 -102 50q-42 0 -69 -48.5t-27 -115.5q0 -60 24 -106t67 -46q28 0 51.5 13.5t32.5 24.5t23 31z" />
    <glyph glyph-name="Emacron" unicode="&#x112;" horiz-adv-x="621" 
d="M141 770v49q0 17 20 17h283q20 0 20 -17v-49q0 -17 -20 -17h-283q-20 0 -20 17zM524 128h62q-12 -23 -32 -105q-6 -23 -30 -23h-489v54q64 10 64 44v425q0 34 -64 44v54h473q10 0 13.5 -3.5t3.5 -14.5v-113h-54l-15 33q-9 19 -26 24t-54 5h-142v-202h161q23 0 31.5 8
t19.5 35h31v-153h-31q-11 27 -19.5 35.5t-31.5 8.5h-161v-215l197 2q28 0 41.5 4t25.5 20z" />
    <glyph glyph-name="emacron" unicode="&#x113;" horiz-adv-x="500" 
d="M99 600v49q0 17 20 17h283q20 0 20 -17v-49q0 -17 -20 -17h-283q-20 0 -20 17zM470 269q0 -30 -14.5 -49.5t-41.5 -19.5h-255q0 -59 32 -99t92 -40q67 0 117 56l44 -42q-64 -85 -174 -85q-100 0 -170 67t-70 170q0 104 68 167.5t158 63.5q85 0 149.5 -56t64.5 -133z
M159 263h191q0 66 -22.5 97.5t-71.5 31.5q-97 0 -97 -129z" />
    <glyph glyph-name="Edotaccent" unicode="&#x116;" horiz-adv-x="621" 
d="M291 711q-31 0 -52.5 21.5t-21.5 52.5q0 30 21.5 51.5t52.5 21.5q30 0 51.5 -21.5t21.5 -51.5q0 -31 -21.5 -52.5t-51.5 -21.5zM524 128h62q-12 -23 -32 -105q-6 -23 -30 -23h-489v54q64 10 64 44v425q0 34 -64 44v54h473q10 0 13.5 -3.5t3.5 -14.5v-113h-54l-15 33
q-9 19 -26 24t-54 5h-142v-202h161q23 0 31.5 8t19.5 35h31v-153h-31q-11 27 -19.5 35.5t-31.5 8.5h-161v-215l197 2q28 0 41.5 4t25.5 20z" />
    <glyph glyph-name="edotaccent" unicode="&#x117;" horiz-adv-x="500" 
d="M249 541q-31 0 -52.5 21.5t-21.5 52.5q0 30 21.5 51.5t52.5 21.5q30 0 51.5 -21.5t21.5 -51.5q0 -31 -21.5 -52.5t-51.5 -21.5zM470 269q0 -30 -14.5 -49.5t-41.5 -19.5h-255q0 -59 32 -99t92 -40q67 0 117 56l44 -42q-64 -85 -174 -85q-100 0 -170 67t-70 170
q0 104 68 167.5t158 63.5q85 0 149.5 -56t64.5 -133zM159 263h191q0 66 -22.5 97.5t-71.5 31.5q-97 0 -97 -129z" />
    <glyph glyph-name="Eogonek" unicode="&#x118;" horiz-adv-x="621" 
d="M452 -171q52 0 70 55h42q-4 -17 -12 -33t-25 -36.5t-49 -33t-74 -12.5q-51 0 -87.5 24t-36.5 74t44 85t97 48h-386v54q64 10 64 44v425q0 34 -64 44v54h473q10 0 13.5 -3.5t3.5 -14.5v-113h-54l-15 33q-9 19 -26 24t-54 5h-142v-202h161q23 0 31.5 8t19.5 35h31v-153h-31
q-11 27 -19.5 35.5t-31.5 8.5h-161v-215l197 2q28 0 41.5 4t25.5 20l26 33h62q-12 -23 -32 -105q-6 -23 -30 -23h-40q-89 -59 -89 -114q0 -25 15.5 -41t41.5 -16z" />
    <glyph glyph-name="eogonek" unicode="&#x119;" horiz-adv-x="500" 
d="M470 269q0 -30 -14.5 -49.5t-41.5 -19.5h-255q0 -59 32 -99t92 -40q67 0 117 56l44 -42q-37 -50 -96 -72q-39 -18 -59.5 -39.5t-20.5 -58.5q0 -27 14.5 -43.5t39.5 -16.5q41 0 60 58h42q-4 -16 -12.5 -33t-25 -38t-47.5 -34t-71 -13q-47 0 -81 24.5t-34 72.5q0 68 77 111
q-86 14 -143 78t-57 156q0 104 68 167.5t158 63.5q85 0 149.5 -56t64.5 -133zM159 263h191q0 66 -22.5 97.5t-71.5 31.5q-97 0 -97 -129z" />
    <glyph glyph-name="Ecaron" unicode="&#x11a;" horiz-adv-x="621" 
d="M289 684l-174 192h83l91 -62l91 62h83zM524 128h62q-12 -23 -32 -105q-6 -23 -30 -23h-489v54q64 10 64 44v425q0 34 -64 44v54h473q10 0 13.5 -3.5t3.5 -14.5v-113h-54l-15 33q-9 19 -26 24t-54 5h-142v-202h161q23 0 31.5 8t19.5 35h31v-153h-31q-11 27 -19.5 35.5
t-31.5 8.5h-161v-215l197 2q28 0 41.5 4t25.5 20z" />
    <glyph glyph-name="ecaron" unicode="&#x11b;" horiz-adv-x="500" 
d="M247 514l-174 192h83l91 -62l91 62h83zM470 269q0 -30 -14.5 -49.5t-41.5 -19.5h-255q0 -59 32 -99t92 -40q67 0 117 56l44 -42q-64 -85 -174 -85q-100 0 -170 67t-70 170q0 104 68 167.5t158 63.5q85 0 149.5 -56t64.5 -133zM159 263h191q0 66 -22.5 97.5t-71.5 31.5
q-97 0 -97 -129z" />
    <glyph glyph-name="Gbreve" unicode="&#x11e;" horiz-adv-x="687" 
d="M323 711q-62 0 -103 37.5t-44 101.5q0 11 10 11h39q10 0 11 -11q3 -22 27 -35.5t60 -13.5t60 13.5t27 35.5q1 11 11 11h39q10 0 10 -11q-3 -64 -44 -101.5t-103 -37.5zM603 428l-74 -20q-3 6 -9 21l-10 25q-23 54 -77.5 84.5t-116.5 30.5q-142 0 -142 -219
q0 -133 40 -207.5t112 -74.5q58 0 100 16.5t42 45.5v77q0 32 -32 32h-45v56l261 1v-57h-31q-32 0 -32 -32v-202q0 -10 -20 -12t-22 7l-24 78q-92 -88 -197 -88q-131 0 -216 90t-85 240q0 139 83 228t208 89q64 0 113 -24.5t70 -65.5q24 0 29 81h61z" />
    <glyph glyph-name="gbreve" unicode="&#x11f;" horiz-adv-x="554" 
d="M275 541q-62 0 -103 37.5t-44 101.5q0 11 10 11h39q10 0 11 -11q3 -22 27 -35.5t60 -13.5t60 13.5t27 35.5q1 11 11 11h39q10 0 10 -11q-3 -64 -44 -101.5t-103 -37.5zM471 362q-15 5 -19.5 -6t-3.5 -51q1 -62 -49.5 -108t-137.5 -46q-34 0 -70 11q-45 6 -53 -15
q-8 -18 23 -33q16 -8 37 -11l98 -15q108 -18 155 -47.5t47 -94.5q0 -74 -72 -120t-177 -46t-162 33.5t-57 88.5q0 49 28 81.5t70 45.5q-77 13 -99 67q-18 45 14 77q28 29 81 24q-61 46 -61 110q0 65 47.5 108t135.5 43q127 0 153 -71q10 71 75 71q20 0 37.5 -14.5
t17.5 -35.5q0 -24 -18.5 -38.5t-39.5 -7.5zM333 308v7q0 19 -1.5 29.5t-8 24.5t-24 20.5t-45.5 6.5q-25 0 -41.5 -8t-23 -23t-8.5 -27t-2 -30q0 -15 1 -25.5t5 -25t12 -23.5t22.5 -15.5t35.5 -6.5q47 0 62.5 26t15.5 70zM314 -5l-134 22q-30 -26 -30 -94q0 -38 26 -60.5
t73 -22.5q80 0 109 17.5t29 74.5q0 29 -16 42.5t-57 20.5z" />
    <glyph glyph-name="Gdotaccent" unicode="&#x120;" horiz-adv-x="687" 
d="M316 711q-31 0 -52.5 21.5t-21.5 52.5q0 30 21.5 51.5t52.5 21.5q30 0 51.5 -21.5t21.5 -51.5q0 -31 -21.5 -52.5t-51.5 -21.5zM603 428l-74 -20q-3 6 -9 21l-10 25q-23 54 -77.5 84.5t-116.5 30.5q-142 0 -142 -219q0 -133 40 -207.5t112 -74.5q58 0 100 16.5t42 45.5
v77q0 32 -32 32h-45v56l261 1v-57h-31q-32 0 -32 -32v-202q0 -10 -20 -12t-22 7l-24 78q-92 -88 -197 -88q-131 0 -216 90t-85 240q0 139 83 228t208 89q64 0 113 -24.5t70 -65.5q24 0 29 81h61z" />
    <glyph glyph-name="gdotaccent" unicode="&#x121;" horiz-adv-x="554" 
d="M268 541q-31 0 -52.5 21.5t-21.5 52.5q0 30 21.5 51.5t52.5 21.5q30 0 51.5 -21.5t21.5 -51.5q0 -31 -21.5 -52.5t-51.5 -21.5zM471 362q-15 5 -19.5 -6t-3.5 -51q1 -62 -49.5 -108t-137.5 -46q-34 0 -70 11q-45 6 -53 -15q-8 -18 23 -33q16 -8 37 -11l98 -15
q108 -18 155 -47.5t47 -94.5q0 -74 -72 -120t-177 -46t-162 33.5t-57 88.5q0 49 28 81.5t70 45.5q-77 13 -99 67q-18 45 14 77q28 29 81 24q-61 46 -61 110q0 65 47.5 108t135.5 43q127 0 153 -71q10 71 75 71q20 0 37.5 -14.5t17.5 -35.5q0 -24 -18.5 -38.5t-39.5 -7.5z
M333 308v7q0 19 -1.5 29.5t-8 24.5t-24 20.5t-45.5 6.5q-25 0 -41.5 -8t-23 -23t-8.5 -27t-2 -30q0 -15 1 -25.5t5 -25t12 -23.5t22.5 -15.5t35.5 -6.5q47 0 62.5 26t15.5 70zM314 -5l-134 22q-30 -26 -30 -94q0 -38 26 -60.5t73 -22.5q80 0 109 17.5t29 74.5q0 29 -16 42.5
t-57 20.5z" />
    <glyph glyph-name="Gcommaaccent" unicode="&#x122;" horiz-adv-x="687" 
d="M603 428l-74 -20q-3 6 -9 21l-10 25q-23 54 -77.5 84.5t-116.5 30.5q-142 0 -142 -219q0 -133 40 -207.5t112 -74.5q58 0 100 16.5t42 45.5v77q0 32 -32 32h-45v56l261 1v-57h-31q-32 0 -32 -32v-202q0 -10 -20 -12t-22 7l-24 78q-92 -88 -197 -88q-131 0 -216 90
t-85 240q0 139 83 228t208 89q64 0 113 -24.5t70 -65.5q24 0 29 81h61zM419 -230q-17 -56 -60 -93q-12 -8 -21 2l-21 24q33 37 39 53q10 27 6 43q-10 -2 -29 -1q-24 3 -40.5 25t-12.5 49q3 29 26 46.5t51 14.5q27 -3 44.5 -22.5t21.5 -45.5q9 -49 -4 -95z" />
    <glyph glyph-name="gcommaaccent" unicode="&#x123;" horiz-adv-x="554" 
d="M252 519q-27 3 -44.5 22.5t-21.5 45.5q-9 49 4 95q17 56 60 93q12 8 21 -2l21 -24q-33 -37 -39 -53q-10 -27 -6 -43q10 2 29 1q24 -3 40.5 -25t12.5 -49q-3 -29 -26 -46.5t-51 -14.5zM471 362q-15 5 -19.5 -6t-3.5 -51q1 -62 -49.5 -108t-137.5 -46q-34 0 -70 11
q-45 6 -53 -15q-8 -18 23 -33q16 -8 37 -11l98 -15q108 -18 155 -47.5t47 -94.5q0 -74 -72 -120t-177 -46t-162 33.5t-57 88.5q0 49 28 81.5t70 45.5q-77 13 -99 67q-18 45 14 77q28 29 81 24q-61 46 -61 110q0 65 47.5 108t135.5 43q127 0 153 -71q10 71 75 71
q20 0 37.5 -14.5t17.5 -35.5q0 -24 -18.5 -38.5t-39.5 -7.5zM333 308v7q0 19 -1.5 29.5t-8 24.5t-24 20.5t-45.5 6.5q-25 0 -41.5 -8t-23 -23t-8.5 -27t-2 -30q0 -15 1 -25.5t5 -25t12 -23.5t22.5 -15.5t35.5 -6.5q47 0 62.5 26t15.5 70zM314 -5l-134 22q-30 -26 -30 -94
q0 -38 26 -60.5t73 -22.5q80 0 109 17.5t29 74.5q0 29 -16 42.5t-57 20.5z" />
    <glyph glyph-name="Hbar" unicode="&#x126;" horiz-adv-x="738" 
d="M693 621v-54q-64 -10 -64 -44v-425q0 -34 64 -44v-54h-263v54q64 10 64 44v183h-260v-183q0 -34 64 -44v-54h-263v54q64 10 64 44v425q0 34 -64 44v54h263v-54q-64 -10 -64 -44v-51h260v51q0 34 -64 44v54h263zM234 348h260v47h-260v-47z" />
    <glyph glyph-name="hbar" unicode="&#x127;" horiz-adv-x="603" 
d="M523 286v-177q0 -28 12.5 -39.5t47.5 -3.5l-13 -56q-28 -10 -79 -10q-43 0 -66 20.5t-23 51.5v189q0 62 -12.5 90.5t-54.5 28.5q-63 0 -133 -82q-2 -3 -3 -4v-216q0 -16 11.5 -22t38.5 -6v-50h-217v50q25 0 36 5.5t11 22.5v397h-56v72h56q0 47 -59 39v51l150 17
q25 3 28.5 -19t-3.5 -55v-33h173v-72h-173v-96l-4 -29q65 112 166 112q166 0 166 -176z" />
    <glyph glyph-name="Imacron" unicode="&#x12a;" horiz-adv-x="348" 
d="M13 770v49q0 17 20 17h283q20 0 20 -17v-49q0 -17 -20 -17h-283q-20 0 -20 17zM239 523v-425q0 -34 64 -44v-54h-263v54q64 10 64 44v425q0 34 -64 44v54h263v-54q-64 -10 -64 -44z" />
    <glyph glyph-name="imacron" unicode="&#x12b;" horiz-adv-x="286" 
d="M-35 600v49q0 17 20 17h283q20 0 20 -17v-49q0 -17 -20 -17h-283q-20 0 -20 17zM203 420v-342q0 -28 43 -28v-50h-207v50q44 0 44 28v282q0 17 -6.5 24t-21.5 7h-20v51l136 9q32 3 32 -31z" />
    <glyph glyph-name="Iogonek" unicode="&#x12e;" horiz-adv-x="348" 
d="M303 621v-54q-64 -10 -64 -44v-425q0 -34 64 -44v-54h-98q-89 -59 -89 -114q0 -25 15.5 -41t41.5 -16q52 0 70 55h42q-4 -17 -12 -33t-25 -36.5t-49 -33t-74 -12.5q-51 0 -87.5 24t-36.5 74t44 85t97 48h-102v54q64 10 64 44v425q0 34 -64 44v54h263z" />
    <glyph glyph-name="iogonek" unicode="&#x12f;" horiz-adv-x="286" 
d="M115 541q-31 0 -52.5 21.5t-21.5 52.5q0 30 21.5 51.5t52.5 21.5q30 0 51.5 -21.5t21.5 -51.5q0 -31 -21.5 -52.5t-51.5 -21.5zM213 -116h42q-4 -17 -12 -33t-25 -36.5t-49 -33t-74 -12.5q-51 0 -87.5 24t-36.5 74t44 85t97 48h-73v50q44 0 44 28v282q0 17 -6.5 24
t-21.5 7h-20v51l136 9q32 3 32 -31v-342q0 -28 43 -28v-50h-71q-89 -59 -89 -114q0 -25 15.5 -41t41.5 -16q52 0 70 55z" />
    <glyph glyph-name="Idotaccent" unicode="&#x130;" horiz-adv-x="348" 
d="M163 711q-31 0 -52.5 21.5t-21.5 52.5q0 30 21.5 51.5t52.5 21.5q30 0 51.5 -21.5t21.5 -51.5q0 -31 -21.5 -52.5t-51.5 -21.5zM239 523v-425q0 -34 64 -44v-54h-263v54q64 10 64 44v425q0 34 -64 44v54h263v-54q-64 -10 -64 -44z" />
    <glyph glyph-name="dotlessi" unicode="&#x131;" horiz-adv-x="286" 
d="M203 420v-342q0 -28 43 -28v-50h-207v50q44 0 44 28v282q0 17 -6.5 24t-21.5 7h-20v51l136 9q32 3 32 -31z" />
    <glyph glyph-name="IJ" unicode="&#x132;" horiz-adv-x="759" 
d="M239 523v-425q0 -34 64 -44v-54h-263v54q64 10 64 44v425q0 34 -64 44v54h263v-54q-64 -10 -64 -44zM719 621v-54q-64 -10 -64 -44v-523q0 -92 -42 -131t-124 -39q-65 0 -105.5 28.5t-40.5 74.5q0 67 65 67q51 0 51 -56q0 -55 30 -55q31 0 31 51v583q0 34 -64 44v54h263z
" />
    <glyph glyph-name="ij" unicode="&#x133;" horiz-adv-x="580" 
d="M132 522q-31 0 -52.5 21.5t-21.5 52.5q0 30 21.5 51.5t52.5 21.5q30 0 51.5 -21.5t21.5 -51.5q0 -31 -21.5 -52.5t-51.5 -21.5zM447 522q-31 0 -52.5 21.5t-21.5 52.5q0 30 21.5 51.5t52.5 21.5q30 0 51.5 -21.5t21.5 -51.5q0 -31 -21.5 -52.5t-51.5 -21.5zM203 420v-342
q0 -28 43 -28v-50h-207v50q44 0 44 28v282q0 17 -6.5 24t-21.5 7h-20v51l136 9q32 3 32 -31zM350 442l136 9q32 3 32 -31v-494q0 -88 -89 -125q-58 -23 -107.5 -9.5t-74.5 54.5q-15 23 -10.5 51.5t29.5 41.5q30 12 49 3t28 -32q6 -14 11 -37t8.5 -33t11.5 -7q24 10 24 50
v477q0 17 -6.5 24t-21.5 7h-20v51z" />
    <glyph glyph-name="Kcommaaccent" unicode="&#x136;" horiz-adv-x="713" 
d="M349 343l204 -215q29 -30 53 -47t37 -22t35 -10v-49h-282v49q39 11 42 16q2 5 -5 12l-189 189h-25v-168q0 -34 64 -44v-54h-263v54q64 10 64 44v425q0 34 -64 44v54h263v-54q-64 -10 -64 -44v-184h17q27 0 48 21l173 181q13 13 1.5 19t-33.5 9v52h203v-52q-67 -8 -86 -27
zM351 -67q27 -3 44.5 -22.5t21.5 -45.5q9 -49 -4 -95q-17 -56 -60 -93q-12 -8 -21 2l-21 24q33 37 39 53q10 27 6 43q-10 -2 -29 -1q-24 3 -40.5 25t-12.5 49q3 29 26 46.5t51 14.5z" />
    <glyph glyph-name="kcommaaccent" unicode="&#x137;" horiz-adv-x="574" 
d="M290 276l198 -202q16 -16 25.5 -20.5t30.5 -4.5v-49h-216v49q35 0 32 13q-1 3 -4 6l-161 155v-146q0 -28 32 -28v-49h-188v49q36 0 36 28v490q0 33 -28 33h-27v52l151 15q24 2 24 -19v-382l139 108q17 13 2 22q-9 5 -30 5v50h196v-50q-46 0 -73 -20zM304 -67
q27 -3 44.5 -22.5t21.5 -45.5q9 -49 -4 -95q-17 -56 -60 -93q-12 -8 -21 2l-21 24q33 37 39 53q10 27 6 43q-10 -2 -29 -1q-24 3 -40.5 25t-12.5 49q3 29 26 46.5t51 14.5z" />
    <glyph glyph-name="Lacute" unicode="&#x139;" horiz-adv-x="603" 
d="M234 866l-101 -115q-17 -19 -4 -36q12 -17 32 -5l130 78q28 17 37.5 39.5t-11.5 48.5q-39 40 -83 -10zM568 135l-24 -112q-5 -23 -30 -23h-494v54q64 10 64 44v425q0 34 -64 44v54h263v-54q-64 -10 -64 -44v-415q0 -16 13 -30.5t34 -13.5l142 8q38 2 54 7t26 24l16 32h64
z" />
    <glyph glyph-name="lacute" unicode="&#x13a;" horiz-adv-x="283" 
d="M166 866l-101 -115q-17 -19 -4 -36q12 -17 32 -5l130 78q28 17 37.5 39.5t-11.5 48.5q-39 40 -83 -10zM192 582v-467q0 -28 14.5 -40t56.5 -2l-21 -57q-50 -24 -92 -24q-36 0 -56 22t-20 54v491q0 47 -59 39v39l148 19q8 1 13.5 0t8.5 -5t5 -8t2.5 -12t0.5 -14t-0.5 -17
t-0.5 -18z" />
    <glyph glyph-name="Lcommaaccent" unicode="&#x13b;" horiz-adv-x="603" 
d="M568 135l-24 -112q-5 -23 -30 -23h-494v54q64 10 64 44v425q0 34 -64 44v54h263v-54q-64 -10 -64 -44v-415q0 -16 13 -30.5t34 -13.5l142 8q38 2 54 7t26 24l16 32h64zM369 -230q-17 -56 -60 -93q-12 -8 -21 2l-21 24q33 37 39 53q10 27 6 43q-10 -2 -29 -1
q-24 3 -40.5 25t-12.5 49q3 29 26 46.5t51 14.5q27 -3 44.5 -22.5t21.5 -45.5q9 -49 -4 -95z" />
    <glyph glyph-name="lcommaaccent" unicode="&#x13c;" horiz-adv-x="283" 
d="M192 582v-467q0 -28 14.5 -40t56.5 -2l-21 -57q-50 -24 -92 -24q-36 0 -56 22t-20 54v491q0 47 -59 39v39l148 19q8 1 13.5 0t8.5 -5t5 -8t2.5 -12t0.5 -14t-0.5 -17t-0.5 -18zM227 -230q-17 -56 -60 -93q-12 -8 -21 2l-21 24q33 37 39 53q10 27 6 43q-10 -2 -29 -1
q-24 3 -40.5 25t-12.5 49q3 29 26 46.5t51 14.5q27 -3 44.5 -22.5t21.5 -45.5q9 -49 -4 -95z" />
    <glyph glyph-name="Lcaron" unicode="&#x13d;" horiz-adv-x="603" 
d="M515 459q-17 -56 -60 -93q-12 -8 -21 2l-21 24q33 37 39 53q10 27 6 43q-10 -2 -29 -1q-24 3 -40.5 25t-12.5 49q3 29 26 46.5t51 14.5q27 -3 44.5 -22.5t21.5 -45.5q9 -49 -4 -95zM568 135l-24 -112q-5 -23 -30 -23h-494v54q64 10 64 44v425q0 34 -64 44v54h263v-54
q-64 -10 -64 -44v-415q0 -16 13 -30.5t34 -13.5l142 8q38 2 54 7t26 24l16 32h64z" />
    <glyph glyph-name="lcaron" unicode="&#x13e;" horiz-adv-x="392" 
d="M378 494q-17 -56 -60 -93q-12 -8 -21 2l-21 24q33 37 39 53q10 27 6 43q-10 -2 -29 -1q-24 3 -40.5 25t-12.5 49q3 29 26 46.5t51 14.5q27 -3 44.5 -22.5t21.5 -45.5q9 -49 -4 -95zM192 582v-467q0 -28 14.5 -40t56.5 -2l-21 -57q-50 -24 -92 -24q-36 0 -56 22t-20 54
v491q0 47 -59 39v39l148 19q8 1 13.5 0t8.5 -5t5 -8t2.5 -12t0.5 -14t-0.5 -17t-0.5 -18z" />
    <glyph glyph-name="Ldot" unicode="&#x13f;" horiz-adv-x="603" 
d="M568 135l-24 -112q-5 -23 -30 -23h-494v54q64 10 64 44v425q0 34 -64 44v54h263v-54q-64 -10 -64 -44v-415q0 -16 13 -30.5t34 -13.5l142 8q38 2 54 7t26 24l16 32h64zM376 327q-28 0 -48 20.5t-20 48.5t20 48t48 20t48 -20t20 -48t-20 -48.5t-48 -20.5z" />
    <glyph glyph-name="ldot" unicode="&#x140;" horiz-adv-x="404" 
d="M192 582v-467q0 -28 14.5 -40t56.5 -2l-21 -57q-50 -24 -92 -24q-36 0 -56 22t-20 54v491q0 47 -59 39v39l148 19q8 1 13.5 0t8.5 -5t5 -8t2.5 -12t0.5 -14t-0.5 -17t-0.5 -18zM318 325q-28 0 -48 20.5t-20 48.5t20 48t48 20t48 -20t20 -48t-20 -48.5t-48 -20.5z" />
    <glyph glyph-name="Lslash" unicode="&#x141;" horiz-adv-x="648" 
d="M549 135h64l-24 -112q-5 -23 -30 -23h-494v54q64 10 64 44v145l-109 -34v87l109 34v193q0 34 -64 44v54h263v-54q-64 -10 -64 -44v-152l158 49v-87l-158 -49v-176q0 -16 13 -30.5t34 -13.5l142 8q38 2 54 7t26 24z" />
    <glyph glyph-name="lslash" unicode="&#x142;" horiz-adv-x="295" 
d="M285 314l-87 -27v-172q0 -28 14.5 -40t56.5 -2l-21 -57q-50 -24 -92 -24q-36 0 -56 22t-20 54v183l-70 -22v87l70 22v221q0 47 -59 39v39l148 19q8 1 13.5 0t8.5 -5t5 -8t2.5 -12t0.5 -14t-0.5 -17t-0.5 -18v-208l87 27v-87z" />
    <glyph glyph-name="Nacute" unicode="&#x143;" 
d="M411 866l-101 -115q-17 -19 -4 -36q12 -17 32 -5l130 78q28 17 37.5 39.5t-11.5 48.5q-39 40 -83 -10zM674 621v-54q-64 -10 -64 -44v-523q0 -8 -26.5 -8t-32.5 8l-388 458v-360q0 -34 64 -44v-54h-202v54q64 10 64 44v425q0 34 -64 44v54h182l320 -403v305q0 34 -64 44
v54h211z" />
    <glyph glyph-name="nacute" unicode="&#x144;" horiz-adv-x="606" 
d="M359 696l-101 -115q-17 -19 -4 -36q12 -17 32 -5l130 78q28 17 37.5 39.5t-11.5 48.5q-39 40 -83 -10zM526 286v-177q0 -28 12.5 -39.5t47.5 -3.5l-13 -56q-27 -10 -79 -10q-42 0 -64.5 20.5t-22.5 51.5v189q0 62 -13.5 90.5t-55.5 28.5q-63 0 -133 -82q-2 -3 -3 -4v-216
q0 -16 11.5 -22t38.5 -6v-50h-215v50q25 0 36 5.5t11 22.5v274q0 47 -59 39v51l148 17q25 3 28.5 -19t-3.5 -55l-4 -35q65 112 166 112q77 0 121.5 -39t44.5 -137z" />
    <glyph glyph-name="Ncommaaccent" unicode="&#x145;" 
d="M674 621v-54q-64 -10 -64 -44v-523q0 -8 -26.5 -8t-32.5 8l-388 458v-360q0 -34 64 -44v-54h-202v54q64 10 64 44v425q0 34 -64 44v54h182l320 -403v305q0 34 -64 44v54h211zM449 -230q-17 -56 -60 -93q-12 -8 -21 2l-21 24q33 37 39 53q10 27 6 43q-10 -2 -29 -1
q-24 3 -40.5 25t-12.5 49q3 29 26 46.5t51 14.5q27 -3 44.5 -22.5t21.5 -45.5q9 -49 -4 -95z" />
    <glyph glyph-name="ncommaaccent" unicode="&#x146;" horiz-adv-x="606" 
d="M526 286v-177q0 -28 12.5 -39.5t47.5 -3.5l-13 -56q-27 -10 -79 -10q-42 0 -64.5 20.5t-22.5 51.5v189q0 62 -13.5 90.5t-55.5 28.5q-63 0 -133 -82q-2 -3 -3 -4v-216q0 -16 11.5 -22t38.5 -6v-50h-215v50q25 0 36 5.5t11 22.5v274q0 47 -59 39v51l148 17q25 3 28.5 -19
t-3.5 -55l-4 -35q65 112 166 112q77 0 121.5 -39t44.5 -137zM397 -230q-17 -56 -60 -93q-12 -8 -21 2l-21 24q33 37 39 53q10 27 6 43q-10 -2 -29 -1q-24 3 -40.5 25t-12.5 49q3 29 26 46.5t51 14.5q27 -3 44.5 -22.5t21.5 -45.5q9 -49 -4 -95z" />
    <glyph glyph-name="Ncaron" unicode="&#x147;" 
d="M339 684l-174 192h83l91 -62l91 62h83zM674 621v-54q-64 -10 -64 -44v-523q0 -8 -26.5 -8t-32.5 8l-388 458v-360q0 -34 64 -44v-54h-202v54q64 10 64 44v425q0 34 -64 44v54h182l320 -403v305q0 34 -64 44v54h211z" />
    <glyph glyph-name="ncaron" unicode="&#x148;" horiz-adv-x="606" 
d="M287 514l-174 192h83l91 -62l91 62h83zM526 286v-177q0 -28 12.5 -39.5t47.5 -3.5l-13 -56q-27 -10 -79 -10q-42 0 -64.5 20.5t-22.5 51.5v189q0 62 -13.5 90.5t-55.5 28.5q-63 0 -133 -82q-2 -3 -3 -4v-216q0 -16 11.5 -22t38.5 -6v-50h-215v50q25 0 36 5.5t11 22.5v274
q0 47 -59 39v51l148 17q25 3 28.5 -19t-3.5 -55l-4 -35q65 112 166 112q77 0 121.5 -39t44.5 -137z" />
    <glyph glyph-name="Eng" unicode="&#x14a;" horiz-adv-x="704" 
d="M463 621h211v-54q-64 -10 -64 -44v-540q0 -100 -107 -131q-80 -22 -132.5 -10.5t-65.5 54.5q-19 58 29 78q16 6 35 -0.5t25 -18.5q1 -2 6.5 -16t11 -24.5t16.5 -18.5t24 -6q23 5 23 50v150l-312 368v-360q0 -34 64 -44v-54h-202v54q64 10 64 44v425q0 34 -64 44v54h182
l320 -403v305q0 34 -64 44v54z" />
    <glyph glyph-name="eng" unicode="&#x14b;" horiz-adv-x="588" 
d="M362 462q77 0 121.5 -39t44.5 -137v-360q0 -88 -90 -125q-58 -23 -107.5 -9.5t-74.5 54.5q-15 23 -10.5 51.5t29.5 41.5q30 12 49 3t28 -32q6 -14 11 -37t8.5 -33t11.5 -7q24 10 24 50v378q0 63 -12.5 91t-54.5 28q-63 0 -133 -82q-2 -3 -3 -4v-216q0 -16 11.5 -22
t38.5 -6v-50h-217v50q25 0 36 5.5t11 22.5v274q0 47 -59 39v51l150 17q25 3 28.5 -19t-3.5 -55l-4 -35q65 112 166 112z" />
    <glyph glyph-name="Omacron" unicode="&#x14c;" 
d="M190 770v49q0 17 20 17h283q20 0 20 -17v-49q0 -17 -20 -17h-283q-20 0 -20 17zM669 316q0 -140 -94 -235.5t-225 -95.5q-137 0 -228.5 89t-91.5 242q0 143 92.5 232t227.5 89q131 0 225 -92t94 -229zM360 68q35 0 60.5 7.5t49.5 29t37 67t13 114.5q0 129 -48.5 205.5
t-121.5 76.5q-171 0 -171 -222q0 -118 54.5 -198t126.5 -80z" />
    <glyph glyph-name="omacron" unicode="&#x14d;" horiz-adv-x="529" 
d="M108 600v49q0 17 20 17h283q20 0 20 -17v-49q0 -17 -20 -17h-283q-20 0 -20 17zM265 458q92 0 163 -61.5t71 -166.5q0 -109 -71.5 -174.5t-162.5 -65.5t-163 64.5t-72 167.5q0 111 71 173.5t164 62.5zM369 192q0 99 -31.5 149.5t-82.5 50.5q-95 0 -95 -132
q0 -94 31.5 -146.5t81.5 -52.5q48 0 72 31t24 100z" />
    <glyph glyph-name="Ohungarumlaut" unicode="&#x150;" 
d="M283 866l-101 -115q-17 -19 -4 -36q12 -17 32 -5l130 78q28 17 37.5 39.5t-11.5 48.5q-39 40 -83 -10zM490 866l-101 -115q-17 -19 -4 -36q12 -17 32 -5l130 78q28 17 37.5 39.5t-11.5 48.5q-39 40 -83 -10zM669 316q0 -140 -94 -235.5t-225 -95.5q-137 0 -228.5 89
t-91.5 242q0 143 92.5 232t227.5 89q131 0 225 -92t94 -229zM360 68q35 0 60.5 7.5t49.5 29t37 67t13 114.5q0 129 -48.5 205.5t-121.5 76.5q-171 0 -171 -222q0 -118 54.5 -198t126.5 -80z" />
    <glyph glyph-name="ohungarumlaut" unicode="&#x151;" horiz-adv-x="529" 
d="M201 696l-101 -115q-17 -19 -4 -36q12 -17 32 -5l130 78q28 17 37.5 39.5t-11.5 48.5q-39 40 -83 -10zM408 696l-101 -115q-17 -19 -4 -36q12 -17 32 -5l130 78q28 17 37.5 39.5t-11.5 48.5q-39 40 -83 -10zM265 458q92 0 163 -61.5t71 -166.5q0 -109 -71.5 -174.5
t-162.5 -65.5t-163 64.5t-72 167.5q0 111 71 173.5t164 62.5zM369 192q0 99 -31.5 149.5t-82.5 50.5q-95 0 -95 -132q0 -94 31.5 -146.5t81.5 -52.5q48 0 72 31t24 100z" />
    <glyph glyph-name="OE" unicode="&#x152;" horiz-adv-x="1026" 
d="M929 128h62q-11 -23 -32 -105q-6 -23 -30 -23h-484q-45 -15 -95 -15q-137 0 -228.5 89t-91.5 242q0 143 92.5 232t227.5 89q50 0 100 -16h463q10 0 13.5 -3.5t3.5 -14.5v-113h-54l-15 33q-9 19 -26 24t-54 5h-142v-202h161q23 0 31.5 8t19.5 35h31v-153h-31
q-11 27 -19.5 35.5t-31.5 8.5h-161v-215l197 2q28 0 41.5 4t25.5 20zM179 346q0 -118 54.5 -198t126.5 -80q53 0 89.5 20t54.5 76v250q-20 73 -61 113.5t-93 40.5q-171 0 -171 -222z" />
    <glyph glyph-name="oe" unicode="&#x153;" horiz-adv-x="839" 
d="M809 270q0 -30 -14.5 -49.5t-41.5 -19.5h-255q0 -59 32 -99t92 -40q67 0 117 56l44 -42q-64 -85 -174 -85q-104 0 -174 72q-70 -73 -170 -73q-91 0 -163 64.5t-72 167.5q0 111 71 173.5t164 62.5q99 0 168 -66q67 67 162 67q85 0 149.5 -56t64.5 -133zM498 264h191
q0 66 -22.5 97.5t-71.5 31.5q-97 0 -97 -129zM273 61q48 0 72 31t24 100q0 99 -31.5 149.5t-82.5 50.5q-95 0 -95 -132q0 -94 31.5 -146.5t81.5 -52.5z" />
    <glyph glyph-name="Racute" unicode="&#x154;" horiz-adv-x="710" 
d="M404 866l-101 -115q-17 -19 -4 -36q12 -17 32 -5l130 78q28 17 37.5 39.5t-11.5 48.5q-39 40 -83 -10zM685 55v-55h-129q-48 15 -81 51.5t-62 109.5q-22 55 -51 78t-70 23h-58v-164q0 -34 64 -44v-54h-263v54q64 10 64 44v425q0 34 -64 44v54h327q107 0 173 -47.5
t66 -122.5q0 -62 -47.5 -107t-141.5 -52q125 -17 163 -124q13 -37 21 -55.5t25.5 -37t40.5 -20.5h23zM234 332h121q55 0 81 33.5t26 85.5t-24.5 84t-75.5 32h-128v-235z" />
    <glyph glyph-name="racute" unicode="&#x155;" horiz-adv-x="455" 
d="M307 696l-101 -115q-17 -19 -4 -36q12 -17 32 -5l130 78q28 17 37.5 39.5t-11.5 48.5q-39 40 -83 -10zM419 392l-27 -36q-11 -15 -22 -17t-19.5 4t-25 13t-35.5 7q-35 0 -57 -39.5t-29 -84.5v-162q0 -17 12.5 -22.5t41.5 -5.5v-49h-224v49q27 0 39 6t12 22v275
q0 47 -60 39v51l149 16q24 3 28.5 -18t-2.5 -55l-9 -84l11 40q32 115 143 115q51 0 73.5 -17.5t0.5 -46.5z" />
    <glyph glyph-name="Rcommaaccent" unicode="&#x156;" horiz-adv-x="710" 
d="M685 55v-55h-129q-48 15 -81 51.5t-62 109.5q-22 55 -51 78t-70 23h-58v-164q0 -34 64 -44v-54h-263v54q64 10 64 44v425q0 34 -64 44v54h327q107 0 173 -47.5t66 -122.5q0 -62 -47.5 -107t-141.5 -52q125 -17 163 -124q13 -37 21 -55.5t25.5 -37t40.5 -20.5h23zM234 332
h121q55 0 81 33.5t26 85.5t-24.5 84t-75.5 32h-128v-235zM436 -230q-17 -56 -60 -93q-12 -8 -21 2l-21 24q33 37 39 53q10 27 6 43q-10 -2 -29 -1q-24 3 -40.5 25t-12.5 49q3 29 26 46.5t51 14.5q27 -3 44.5 -22.5t21.5 -45.5q9 -49 -4 -95z" />
    <glyph glyph-name="rcommaaccent" unicode="&#x157;" horiz-adv-x="455" 
d="M419 392l-27 -36q-11 -15 -22 -17t-19.5 4t-25 13t-35.5 7q-35 0 -57 -39.5t-29 -84.5v-162q0 -17 12.5 -22.5t41.5 -5.5v-49h-224v49q27 0 39 6t12 22v275q0 47 -60 39v51l149 16q24 3 28.5 -18t-2.5 -55l-9 -84l11 40q32 115 143 115q51 0 73.5 -17.5t0.5 -46.5z
M222 -230q-17 -56 -60 -93q-12 -8 -21 2l-21 24q33 37 39 53q10 27 6 43q-10 -2 -29 -1q-24 3 -40.5 25t-12.5 49q3 29 26 46.5t51 14.5q27 -3 44.5 -22.5t21.5 -45.5q9 -49 -4 -95z" />
    <glyph glyph-name="Rcaron" unicode="&#x158;" horiz-adv-x="710" 
d="M332 684l-174 192h83l91 -62l91 62h83zM685 55v-55h-129q-48 15 -81 51.5t-62 109.5q-22 55 -51 78t-70 23h-58v-164q0 -34 64 -44v-54h-263v54q64 10 64 44v425q0 34 -64 44v54h327q107 0 173 -47.5t66 -122.5q0 -62 -47.5 -107t-141.5 -52q125 -17 163 -124
q13 -37 21 -55.5t25.5 -37t40.5 -20.5h23zM234 332h121q55 0 81 33.5t26 85.5t-24.5 84t-75.5 32h-128v-235z" />
    <glyph glyph-name="rcaron" unicode="&#x159;" horiz-adv-x="455" 
d="M235 514l-174 192h83l91 -62l91 62h83zM419 392l-27 -36q-11 -15 -22 -17t-19.5 4t-25 13t-35.5 7q-35 0 -57 -39.5t-29 -84.5v-162q0 -17 12.5 -22.5t41.5 -5.5v-49h-224v49q27 0 39 6t12 22v275q0 47 -60 39v51l149 16q24 3 28.5 -18t-2.5 -55l-9 -84l11 40
q32 115 143 115q51 0 73.5 -17.5t0.5 -46.5z" />
    <glyph glyph-name="Sacute" unicode="&#x15a;" horiz-adv-x="580" 
d="M366 866l-101 -115q-17 -19 -4 -36q12 -17 32 -5l130 78q28 17 37.5 39.5t-11.5 48.5q-39 40 -83 -10zM516 439l-57 -9q-20 -3 -24 12l-11 40q-9 37 -52 63t-93 26q-54 0 -83 -28.5t-24 -69.5q5 -38 36 -56.5t104 -40.5q98 -29 140 -55q88 -53 97 -138q7 -64 -32.5 -111
t-95.5 -67t-116 -20q-53 0 -119.5 22.5t-98.5 11.5l-52 157l53 20q23 8 34 -13q21 -39 22 -41q42 -85 157 -85q59 0 91 20.5t28 62.5q-2 17 -11.5 31.5t-20.5 24t-34 19t-37 14t-43 13.5q-7 2 -10 3q-193 57 -209 192q-11 87 51.5 144t172.5 57q56 0 97.5 -15t73 -34
t53.5 -23z" />
    <glyph glyph-name="sacute" unicode="&#x15b;" horiz-adv-x="463" 
d="M303 696l-101 -115q-17 -19 -4 -36q12 -17 32 -5l130 78q28 17 37.5 39.5t-11.5 48.5q-39 40 -83 -10zM433 124q0 -61 -58.5 -97.5t-145.5 -36.5q-70 0 -128.5 26t-65.5 46q-30 92 23 99q32 5 48 -5.5t19 -27.5q7 -43 30.5 -60t73.5 -17q44 0 67.5 18t23.5 40
q0 35 -106 68q-28 9 -44 14.5t-44 19t-44 28t-28.5 38.5t-12.5 52q0 60 48.5 96t138.5 36q65 0 122.5 -27.5t59.5 -46.5q4 -49 -5.5 -65.5t-34.5 -18.5q-29 -2 -41.5 6.5t-9.5 24.5q5 28 -21 49t-70 21q-35 0 -55 -16t-20 -38q0 -10 4 -18t9.5 -13.5t17 -10.5t19 -7.5
t23.5 -7.5t24 -7q88 -28 122 -51q61 -42 61 -111z" />
    <glyph glyph-name="Scedilla" unicode="&#x15e;" horiz-adv-x="580" 
d="M549 183q9 -86 -56.5 -136.5t-156.5 -60.5l-15 -31q44 3 76.5 -25t25.5 -72q-7 -43 -47.5 -66.5t-88.5 -21.5q-50 2 -81.5 25.5t-36.5 50.5q-5 28 26 40.5t56 -13.5q3 -17 5 -24.5t11.5 -17t25.5 -9.5q42 -1 49 44q4 23 -8 35t-35 10q-7 -1 -19 -3t-17 -3
q-21 -4 -29.5 8.5t0.5 25.5q8 13 25 49q-25 4 -52.5 12.5t-43 14t-38.5 8.5t-38 -4l-52 157l53 20q23 8 34 -13q21 -39 22 -41q42 -85 157 -85q59 0 91 20.5t28 62.5q-2 17 -11.5 31.5t-20.5 24t-34 19t-37 14t-43 13.5q-7 2 -10 3q-193 57 -209 192q-11 87 51.5 144
t172.5 57q56 0 97.5 -15t73 -34t53.5 -23l13 -127l-57 -9q-20 -3 -24 12l-11 40q-9 37 -52 63t-93 26q-54 0 -83 -28.5t-24 -69.5q5 -38 36 -56.5t104 -40.5q98 -29 140 -55q88 -53 97 -138z" />
    <glyph glyph-name="scedilla" unicode="&#x15f;" horiz-adv-x="463" 
d="M433 124q0 -52 -43.5 -87t-113.5 -44l-18 -38q44 3 76.5 -25t25.5 -72q-7 -43 -47.5 -66.5t-88.5 -21.5q-50 2 -81.5 25.5t-36.5 50.5q-5 28 26 40.5t56 -13.5q3 -17 5 -24.5t11.5 -17t25.5 -9.5q42 -1 49 44q4 23 -8 35t-35 10q-7 -1 -19 -3t-17 -3q-21 -4 -29.5 8.5
t0.5 25.5q11 18 26 53q-60 5 -108.5 29t-53.5 41q-30 92 23 99q32 5 48 -5.5t19 -27.5q7 -43 30.5 -60t73.5 -17q44 0 67.5 18t23.5 40q0 35 -106 68q-28 9 -44 14.5t-44 19t-44 28t-28.5 38.5t-12.5 52q0 60 48.5 96t138.5 36q65 0 122.5 -27.5t59.5 -46.5
q4 -49 -5.5 -65.5t-34.5 -18.5q-29 -2 -41.5 6.5t-9.5 24.5q5 28 -21 49t-70 21q-35 0 -55 -16t-20 -38q0 -10 4 -18t9.5 -13.5t17 -10.5t19 -7.5t23.5 -7.5t24 -7q88 -28 122 -51q61 -42 61 -111z" />
    <glyph glyph-name="Scaron" unicode="&#x160;" horiz-adv-x="580" 
d="M294 684l-174 192h83l91 -62l91 62h83zM516 439l-57 -9q-20 -3 -24 12l-11 40q-9 37 -52 63t-93 26q-54 0 -83 -28.5t-24 -69.5q5 -38 36 -56.5t104 -40.5q98 -29 140 -55q88 -53 97 -138q7 -64 -32.5 -111t-95.5 -67t-116 -20q-53 0 -119.5 22.5t-98.5 11.5l-52 157
l53 20q23 8 34 -13q21 -39 22 -41q42 -85 157 -85q59 0 91 20.5t28 62.5q-2 17 -11.5 31.5t-20.5 24t-34 19t-37 14t-43 13.5q-7 2 -10 3q-193 57 -209 192q-11 87 51.5 144t172.5 57q56 0 97.5 -15t73 -34t53.5 -23z" />
    <glyph glyph-name="scaron" unicode="&#x161;" horiz-adv-x="463" 
d="M231 514l-174 192h83l91 -62l91 62h83zM433 124q0 -61 -58.5 -97.5t-145.5 -36.5q-70 0 -128.5 26t-65.5 46q-30 92 23 99q32 5 48 -5.5t19 -27.5q7 -43 30.5 -60t73.5 -17q44 0 67.5 18t23.5 40q0 35 -106 68q-28 9 -44 14.5t-44 19t-44 28t-28.5 38.5t-12.5 52
q0 60 48.5 96t138.5 36q65 0 122.5 -27.5t59.5 -46.5q4 -49 -5.5 -65.5t-34.5 -18.5q-29 -2 -41.5 6.5t-9.5 24.5q5 28 -21 49t-70 21q-35 0 -55 -16t-20 -38q0 -10 4 -18t9.5 -13.5t17 -10.5t19 -7.5t23.5 -7.5t24 -7q88 -28 122 -51q61 -42 61 -111z" />
    <glyph glyph-name="Tcedilla" unicode="&#x162;" horiz-adv-x="609" 
d="M575 596l9 -101h-45l-18 33q-18 32 -48 32h-101v-462q0 -34 64 -44v-54h-85l-21 -45q44 3 76.5 -25t25.5 -72q-7 -43 -47.5 -66.5t-88.5 -21.5q-50 2 -81.5 25.5t-36.5 50.5q-5 28 26 40.5t56 -13.5q3 -17 5 -24.5t11.5 -17t25.5 -9.5q42 -1 49 44q4 23 -8 35t-35 10
q-7 -1 -19 -3t-17 -3q-21 -4 -29.5 8.5t0.5 25.5q15 25 30 61h-100v54q64 10 64 44v462h-101q-30 0 -48 -32l-18 -33h-45l9 101q2 25 24 25h493q22 0 24 -25z" />
    <glyph glyph-name="tcedilla" unicode="&#x163;" horiz-adv-x="335" 
d="M227 -5l-19 -40q44 3 76.5 -25t25.5 -72q-7 -43 -47.5 -66.5t-88.5 -21.5q-50 2 -81.5 25.5t-36.5 50.5q-5 28 26 40.5t56 -13.5q3 -17 5 -24.5t11.5 -17t25.5 -9.5q42 -1 49 44q4 23 -8 35t-35 10q-7 -1 -19 -3t-17 -3q-21 -4 -29.5 8.5t0.5 25.5q17 29 29 60
q-86 25 -86 151v233h-44v59q13 0 24 3t21 10.5t16.5 13t15 19t12 19.5t12.5 23t11 21q10 18 31.5 16t21.5 -20v-100h99v-36q0 -28 -27 -28h-72v-255q0 -74 32 -74q22 0 52 21q19 13 34.5 -10.5t-2.5 -36.5q-37 -26 -74 -33z" />
    <glyph glyph-name="Tcaron" unicode="&#x164;" horiz-adv-x="609" 
d="M477 876l-174 -192l-174 192h83l91 -62l91 62h83zM575 596l9 -101h-45l-18 33q-18 32 -48 32h-101v-462q0 -34 64 -44v-54h-263v54q64 10 64 44v462h-101q-30 0 -48 -32l-18 -33h-45l9 101q2 25 24 25h493q22 0 24 -25z" />
    <glyph glyph-name="tcaron" unicode="&#x165;" horiz-adv-x="463" 
d="M440 479q-17 -56 -60 -93q-12 -8 -21 2l-21 24q33 37 39 53q10 27 6 43q-10 -2 -29 -1q-24 3 -40.5 25t-12.5 49q3 29 26 46.5t51 14.5q27 -3 44.5 -22.5t21.5 -45.5q9 -49 -4 -95zM269 75q19 13 34.5 -10.5t-2.5 -36.5q-46 -35 -107 -35q-130 0 -130 157v233h-44v59
q13 0 24 3t21 10.5t16.5 13t15 19t12 19.5t12.5 23t11 21q10 18 31.5 16t21.5 -20v-100h99v-36q0 -28 -27 -28h-72v-255q0 -74 32 -74q22 0 52 21z" />
    <glyph glyph-name="Tbar" unicode="&#x166;" horiz-adv-x="609" 
d="M575 596l9 -101h-45l-18 33q-18 32 -48 32h-101v-109h86q20 0 20 -17v-49q0 -17 -20 -17h-86v-270q0 -34 64 -44v-54h-263v54q64 10 64 44v270h-62q-20 0 -20 17v49q0 17 20 17h62v109h-101q-30 0 -48 -32l-18 -33h-45l9 101q2 25 24 25h493q22 0 24 -25z" />
    <glyph glyph-name="tbar" unicode="&#x167;" horiz-adv-x="371" 
d="M185 311h135q20 0 20 -17v-49q0 -17 -20 -17h-135v-100q0 -74 32 -74q22 0 52 21q19 13 34.5 -10.5t-2.5 -36.5q-46 -35 -107 -35q-130 0 -130 157v78h-27q-20 0 -20 17v49q0 17 20 17h27v72h-44v59q13 0 24 3t21 10.5t16.5 13t15 19t12 19.5t12.5 23t11 21
q10 18 31.5 16t21.5 -20v-100h99v-36q0 -28 -27 -28h-72v-72z" />
    <glyph glyph-name="Umacron" unicode="&#x16a;" horiz-adv-x="674" 
d="M188 770v49q0 17 20 17h283q20 0 20 -17v-49q0 -17 -20 -17h-283q-20 0 -20 17zM634 621v-54q-15 -2 -23.5 -5t-15 -9.5t-6.5 -17.5v-281q0 -120 -67.5 -192t-178.5 -72q-131 0 -205 73t-74 201v271q0 11 -6.5 17.5t-14.5 9.5t-23 5v54h223v-54q-15 -2 -23.5 -5
t-15.5 -9.5t-7 -17.5v-251q0 -106 40 -161.5t106 -55.5q175 0 175 207v261q0 16 -11.5 22.5t-35.5 9.5v54h163z" />
    <glyph glyph-name="umacron" unicode="&#x16b;" horiz-adv-x="587" 
d="M433 583h-283q-20 0 -20 17v49q0 17 20 17h283q20 0 20 -17v-49q0 -17 -20 -17zM506 433v-327q0 -45 56 -36v-51l-91 -22q-32 -8 -55.5 15t-29.5 85v2q-37 -107 -145 -107q-77 0 -125 43.5t-48 125.5v198q0 32 -28 32h-15v45l136 19q11 2 19 -4.5t8 -17.5v-252
q0 -61 21.5 -87t64.5 -26q46 0 70 25.5t42 76.5v189q0 17 -6 24.5t-21 7.5h-15v45l135 20q12 1 19.5 -5.5t7.5 -17.5z" />
    <glyph glyph-name="ubreve" unicode="&#x16d;" horiz-adv-x="587" 
d="M287 541q-62 0 -103 37.5t-44 101.5q0 11 10 11h39q10 0 11 -11q3 -22 27 -35.5t60 -13.5t60 13.5t27 35.5q1 11 11 11h39q10 0 10 -11q-3 -64 -44 -101.5t-103 -37.5zM506 433v-327q0 -45 56 -36v-51l-91 -22q-32 -8 -55.5 15t-29.5 85v2q-37 -107 -145 -107
q-77 0 -125 43.5t-48 125.5v198q0 32 -28 32h-15v45l136 19q11 2 19 -4.5t8 -17.5v-252q0 -61 21.5 -87t64.5 -26q46 0 70 25.5t42 76.5v189q0 17 -6 24.5t-21 7.5h-15v45l135 20q12 1 19.5 -5.5t7.5 -17.5z" />
    <glyph glyph-name="Uring" unicode="&#x16e;" horiz-adv-x="674" 
d="M348 705q-44 0 -76 30.5t-32 72.5q0 43 32 73.5t76 30.5q45 0 76 -30.5t31 -73.5q0 -42 -31 -72.5t-76 -30.5zM348 764q12 0 23 13.5t11 30.5t-11 30.5t-23 13.5q-15 0 -26 -13.5t-11 -30.5q0 -18 11 -31t26 -13zM634 621v-54q-15 -2 -23.5 -5t-15 -9.5t-6.5 -17.5v-281
q0 -120 -67.5 -192t-178.5 -72q-131 0 -205 73t-74 201v271q0 11 -6.5 17.5t-14.5 9.5t-23 5v54h223v-54q-15 -2 -23.5 -5t-15.5 -9.5t-7 -17.5v-251q0 -106 40 -161.5t106 -55.5q175 0 175 207v261q0 16 -11.5 22.5t-35.5 9.5v54h163z" />
    <glyph glyph-name="uring" unicode="&#x16f;" horiz-adv-x="587" 
d="M290 535q-44 0 -76 30.5t-32 72.5q0 43 32 73.5t76 30.5q45 0 76 -30.5t31 -73.5q0 -42 -31 -72.5t-76 -30.5zM290 682q-15 0 -26 -13.5t-11 -30.5q0 -18 11 -31t26 -13q12 0 23 13.5t11 30.5t-11 30.5t-23 13.5zM506 433v-327q0 -45 56 -36v-51l-91 -22q-32 -8 -55.5 15
t-29.5 85v2q-37 -107 -145 -107q-77 0 -125 43.5t-48 125.5v198q0 32 -28 32h-15v45l136 19q11 2 19 -4.5t8 -17.5v-252q0 -61 21.5 -87t64.5 -26q46 0 70 25.5t42 76.5v189q0 17 -6 24.5t-21 7.5h-15v45l135 20q12 1 19.5 -5.5t7.5 -17.5z" />
    <glyph glyph-name="Uhungarumlaut" unicode="&#x170;" horiz-adv-x="674" 
d="M281 866l-101 -115q-17 -19 -4 -36q12 -17 32 -5l130 78q28 17 37.5 39.5t-11.5 48.5q-39 40 -83 -10zM488 866l-101 -115q-17 -19 -4 -36q12 -17 32 -5l130 78q28 17 37.5 39.5t-11.5 48.5q-39 40 -83 -10zM634 621v-54q-15 -2 -23.5 -5t-15 -9.5t-6.5 -17.5v-281
q0 -120 -67.5 -192t-178.5 -72q-131 0 -205 73t-74 201v271q0 11 -6.5 17.5t-14.5 9.5t-23 5v54h223v-54q-15 -2 -23.5 -5t-15.5 -9.5t-7 -17.5v-251q0 -106 40 -161.5t106 -55.5q175 0 175 207v261q0 16 -11.5 22.5t-35.5 9.5v54h163z" />
    <glyph glyph-name="uhungarumlaut" unicode="&#x171;" horiz-adv-x="587" 
d="M280 618l-130 -78q-20 -12 -32 5q-13 17 4 36l101 115q44 50 83 10q21 -26 11.5 -48.5t-37.5 -39.5zM325 545q-13 17 4 36l101 115q44 50 83 10q21 -26 11.5 -48.5t-37.5 -39.5l-130 -78q-20 -12 -32 5zM506 433v-327q0 -45 56 -36v-51l-91 -22q-32 -8 -55.5 15t-29.5 85
v2q-37 -107 -145 -107q-77 0 -125 43.5t-48 125.5v198q0 32 -28 32h-15v45l136 19q11 2 19 -4.5t8 -17.5v-252q0 -61 21.5 -87t64.5 -26q46 0 70 25.5t42 76.5v189q0 17 -6 24.5t-21 7.5h-15v45l135 20q12 1 19.5 -5.5t7.5 -17.5z" />
    <glyph glyph-name="Uogonek" unicode="&#x172;" horiz-adv-x="674" 
d="M471 621h163v-54q-15 -2 -23.5 -5t-15 -9.5t-6.5 -17.5v-281q0 -98 -45.5 -165t-125.5 -89q-89 -59 -89 -114q0 -25 15.5 -41t41.5 -16q52 0 70 55h42q-4 -17 -12 -33t-25 -36.5t-49 -33t-74 -12.5q-51 0 -87.5 24t-36.5 74q0 42 32 74t78 49q-122 6 -191 78t-69 196v271
q0 11 -6.5 17.5t-14.5 9.5t-23 5v54h223v-54q-15 -2 -23.5 -5t-15.5 -9.5t-7 -17.5v-251q0 -106 40 -161.5t106 -55.5q175 0 175 207v261q0 16 -11.5 22.5t-35.5 9.5v54z" />
    <glyph glyph-name="uogonek" unicode="&#x173;" horiz-adv-x="587" 
d="M562 19l-57 -14q-57 -15 -86 -36.5t-29 -63.5q0 -28 14.5 -44.5t39.5 -16.5q27 0 39 14.5t21 43.5h42q-29 -118 -157 -118q-47 0 -80.5 24t-33.5 74q0 51 39 83.5t100 48.5q-22 26 -28 83v2q-37 -107 -145 -107q-77 0 -125 43.5t-48 125.5v198q0 32 -28 32h-15v45l136 19
q11 2 19 -4.5t8 -17.5v-252q0 -61 21.5 -87t64.5 -26q46 0 70 25.5t42 76.5v189q0 17 -6 24.5t-21 7.5h-15v45l135 20q12 1 19.5 -5.5t7.5 -17.5v-327q0 -45 56 -36v-51z" />
    <glyph glyph-name="Wcircumflex" unicode="&#x174;" horiz-adv-x="979" 
d="M501 766l-91 -62h-83l174 192l174 -192h-83zM770 621h194v-56q-31 -3 -44 -14t-24 -40l-183 -516h-39q-22 0 -32 24l-146 368l-139 -392h-39q-22 0 -32 24l-185 467q-19 49 -35.5 62.5t-50.5 16.5v56h256v-56q-33 -3 -45 -9t-8 -19l137 -368l105 308l-3 9
q-19 49 -35.5 62.5t-50.5 16.5v56h256v-56q-33 -3 -45 -9t-8 -19l137 -368l122 358q10 30 -63 38v56z" />
    <glyph glyph-name="wcircumflex" unicode="&#x175;" horiz-adv-x="816" 
d="M420 596l-91 -62h-83l174 192l174 -192h-83zM603 412v39q101 -4 203 0v-39l-23 -8q-12 -4 -19.5 -8t-22 -22.5t-25.5 -48.5l-124 -324h-61q-32 0 -43 31l-83 225l-98 -256h-61q-32 0 -43 31l-109 295q-24 64 -58 77l-21 8v39q111 -3 221 0v-39l-20 -8q-17 -7 -18 -17.5
t15 -59.5l77 -230l77 259q-19 38 -46 48l-21 8v39q110 -3 221 0v-39l-20 -8q-17 -7 -18 -17.5t15 -59.5l77 -230l65 227q12 50 8.5 61.5t-23.5 18.5z" />
    <glyph glyph-name="Ycircumflex" unicode="&#x176;" horiz-adv-x="651" 
d="M353 766l-91 -62h-83l174 192l174 -192h-83zM443 621h193v-57q-29 -3 -45 -15.5t-39 -43.5l-163 -217v-195q0 -8 5.5 -14t18 -9.5t22 -5t27.5 -4.5v-60h-267v60q19 3 28 4.5t22 5t18.5 9.5t5.5 14v169l-161 218q-7 9 -18 24.5t-15 21.5t-12 15t-14 12t-14.5 6.5
t-19.5 4.5v57h244v-57q-23 -4 -34.5 -13t-2.5 -20l138 -186l131 176q13 18 -1.5 28.5t-46.5 14.5v57z" />
    <glyph glyph-name="ycircumflex" unicode="&#x177;" horiz-adv-x="588" 
d="M314 726l174 -192h-83l-91 62l-91 -62h-83zM568 451v-40l-14 -6q-4 -2 -10.5 -4.5t-10.5 -4t-8.5 -4t-7.5 -6t-5 -8.5l-209 -462q-30 -67 -64 -99t-90 -32q-117 0 -135 66q-9 35 6 57.5t52 22.5q27 0 40 -13.5t14.5 -30.5t8.5 -30.5t22 -13.5q5 0 9 1.5t8 4.5t7.5 6.5
t7.5 9t6.5 10t6.5 11.5t6 11.5t6 13t6 12.5l38 77l-195 378q-10 19 -33 27l-18 6v40h228v-40l-25 -5q-32 -6 -22 -28l129 -266l111 266q4 10 -3 17.5t-20 10.5l-28 5v40h186z" />
    <glyph glyph-name="Ydieresis" unicode="&#x178;" horiz-adv-x="651" 
d="M229 713q-32 0 -55 23t-23 55t23 54.5t55 22.5q31 0 54 -23t23 -54q0 -32 -22.5 -55t-54.5 -23zM462 713q-32 0 -55 23t-23 55t23 54.5t55 22.5t54.5 -23t22.5 -54q0 -32 -22.5 -55t-54.5 -23zM443 621h193v-57q-29 -3 -45 -15.5t-39 -43.5l-163 -217v-195q0 -8 5.5 -14
t18 -9.5t22 -5t27.5 -4.5v-60h-267v60q19 3 28 4.5t22 5t18.5 9.5t5.5 14v169l-161 218q-7 9 -18 24.5t-15 21.5t-12 15t-14 12t-14.5 6.5t-19.5 4.5v57h244v-57q-23 -4 -34.5 -13t-2.5 -20l138 -186l131 176q13 18 -1.5 28.5t-46.5 14.5v57z" />
    <glyph glyph-name="Zacute" unicode="&#x179;" horiz-adv-x="645" 
d="M393 866l-101 -115q-17 -19 -4 -36q12 -17 32 -5l130 78q28 17 37.5 39.5t-11.5 48.5q-39 40 -83 -10zM605 139l-38 -139h-499q-20 0 -25.5 16t6.5 33l343 506l-247 -4q-8 0 -14 -5.5t-7.5 -9.5t-5.5 -16l-10 -28h-83l32 129h531l-369 -556l256 5q9 0 15.5 5t9.5 10t7 16
l15 38h83z" />
    <glyph glyph-name="zacute" unicode="&#x17a;" horiz-adv-x="480" 
d="M313 696l-101 -115q-17 -19 -4 -36q12 -17 32 -5l130 78q28 17 37.5 39.5t-11.5 48.5q-39 40 -83 -10zM440 117l-18 -117h-375q-20 0 -26 16t6 32l247 343l-170 -6q-22 -1 -33 -31l-4 -12h-47l18 109h401l-281 -389l196 6q5 0 9 1.5t7 5.5t4 6.5t3.5 9t3.5 8.5l6 18h53z
" />
    <glyph glyph-name="Zdotaccent" unicode="&#x17b;" horiz-adv-x="645" 
d="M323 711q-31 0 -52.5 21.5t-21.5 52.5q0 30 21.5 51.5t52.5 21.5q30 0 51.5 -21.5t21.5 -51.5q0 -31 -21.5 -52.5t-51.5 -21.5zM605 139l-38 -139h-499q-20 0 -25.5 16t6.5 33l343 506l-247 -4q-8 0 -14 -5.5t-7.5 -9.5t-5.5 -16l-10 -28h-83l32 129h531l-369 -556l256 5
q9 0 15.5 5t9.5 10t7 16l15 38h83z" />
    <glyph glyph-name="zdotaccent" unicode="&#x17c;" horiz-adv-x="480" 
d="M243 541q-31 0 -52.5 21.5t-21.5 52.5q0 30 21.5 51.5t52.5 21.5q30 0 51.5 -21.5t21.5 -51.5q0 -31 -21.5 -52.5t-51.5 -21.5zM440 117l-18 -117h-375q-20 0 -26 16t6 32l247 343l-170 -6q-22 -1 -33 -31l-4 -12h-47l18 109h401l-281 -389l196 6q5 0 9 1.5t7 5.5t4 6.5
t3.5 9t3.5 8.5l6 18h53z" />
    <glyph glyph-name="Zcaron" unicode="&#x17d;" horiz-adv-x="645" 
d="M321 684l-174 192h83l91 -62l91 62h83zM605 139l-38 -139h-499q-20 0 -25.5 16t6.5 33l343 506l-247 -4q-8 0 -14 -5.5t-7.5 -9.5t-5.5 -16l-10 -28h-83l32 129h531l-369 -556l256 5q9 0 15.5 5t9.5 10t7 16l15 38h83z" />
    <glyph glyph-name="zcaron" unicode="&#x17e;" horiz-adv-x="480" 
d="M241 514l-174 192h83l91 -62l91 62h83zM440 117l-18 -117h-375q-20 0 -26 16t6 32l247 343l-170 -6q-22 -1 -33 -31l-4 -12h-47l18 109h401l-281 -389l196 6q5 0 9 1.5t7 5.5t4 6.5t3.5 9t3.5 8.5l6 18h53z" />
    <glyph glyph-name="florin" unicode="&#x192;" horiz-adv-x="624" 
d="M632 598q9 -12 5.5 -30t-19.5 -28q-17 -10 -32.5 -6.5t-20.5 16.5q-1 2 -3.5 10t-3.5 10.5t-3.5 10t-4.5 10t-5.5 8.5t-6.5 8.5t-8 6.5t-10 5.5t-12 3t-14 1.5q-21 0 -36 -7t-23 -15t-14.5 -29.5t-8.5 -33.5t-7 -43l-5 -39h135q5 0 8.5 -2.5t1.5 -6.5l-5 -11
q-5 -9 -7 -12.5t-6 -8.5t-8.5 -6.5t-11.5 -1.5h-114l-60 -425q-13 -88 -59.5 -136.5t-115.5 -48.5q-45 0 -79.5 21.5t-47.5 51.5q-8 12 -3 30t22 26q18 9 33 4t19 -19q1 -2 3 -10.5t2.5 -11.5t2.5 -10.5t4 -10.5t5 -9t6 -8.5t7.5 -5.5t10 -4t11.5 -1q42 0 61 33t28 97
l61 437h-52q-11 0 -9 10l5 39h63l4 27q26 183 185 183q93 0 132 -69z" />
    <glyph glyph-name="Scommaaccent" unicode="&#x218;" horiz-adv-x="580" 
d="M516 439l-57 -9q-20 -3 -24 12l-11 40q-9 37 -52 63t-93 26q-54 0 -83 -28.5t-24 -69.5q5 -38 36 -56.5t104 -40.5q98 -29 140 -55q88 -53 97 -138q7 -64 -32.5 -111t-95.5 -67t-116 -20q-53 0 -119.5 22.5t-98.5 11.5l-52 157l53 20q23 8 34 -13q21 -39 22 -41
q42 -85 157 -85q59 0 91 20.5t28 62.5q-2 17 -11.5 31.5t-20.5 24t-34 19t-37 14t-43 13.5q-7 2 -10 3q-193 57 -209 192q-11 87 51.5 144t172.5 57q56 0 97.5 -15t73 -34t53.5 -23zM374 -230q-17 -56 -60 -93q-12 -8 -21 2l-21 24q33 37 39 53q10 27 6 43q-10 -2 -29 -1
q-24 3 -40.5 25t-12.5 49q3 29 26 46.5t51 14.5q27 -3 44.5 -22.5t21.5 -45.5q9 -49 -4 -95z" />
    <glyph glyph-name="scommaaccent" unicode="&#x219;" horiz-adv-x="463" 
d="M433 124q0 -61 -58.5 -97.5t-145.5 -36.5q-70 0 -128.5 26t-65.5 46q-30 92 23 99q32 5 48 -5.5t19 -27.5q7 -43 30.5 -60t73.5 -17q44 0 67.5 18t23.5 40q0 35 -106 68q-28 9 -44 14.5t-44 19t-44 28t-28.5 38.5t-12.5 52q0 60 48.5 96t138.5 36q65 0 122.5 -27.5
t59.5 -46.5q4 -49 -5.5 -65.5t-34.5 -18.5q-29 -2 -41.5 6.5t-9.5 24.5q5 28 -21 49t-70 21q-35 0 -55 -16t-20 -38q0 -10 4 -18t9.5 -13.5t17 -10.5t19 -7.5t23.5 -7.5t24 -7q88 -28 122 -51q61 -42 61 -111zM311 -230q-17 -56 -60 -93q-12 -8 -21 2l-21 24q33 37 39 53
q10 27 6 43q-10 -2 -29 -1q-24 3 -40.5 25t-12.5 49q3 29 26 46.5t51 14.5q27 -3 44.5 -22.5t21.5 -45.5q9 -49 -4 -95z" />
    <glyph glyph-name="uni021A" unicode="&#x21a;" horiz-adv-x="609" 
d="M575 596l9 -101h-45l-18 33q-18 32 -48 32h-101v-462q0 -34 64 -44v-54h-263v54q64 10 64 44v462h-101q-30 0 -48 -32l-18 -33h-45l9 101q2 25 24 25h493q22 0 24 -25zM321 -67q27 -3 44.5 -22.5t21.5 -45.5q9 -49 -4 -95q-17 -56 -60 -93q-12 -8 -21 2l-21 24
q33 37 39 53q10 27 6 43q-10 -2 -29 -1q-24 3 -40.5 25t-12.5 49q3 29 26 46.5t51 14.5z" />
    <glyph glyph-name="uni021B" unicode="&#x21b;" horiz-adv-x="335" 
d="M269 75q19 13 34.5 -10.5t-2.5 -36.5q-46 -35 -107 -35q-130 0 -130 157v233h-44v59q13 0 24 3t21 10.5t16.5 13t15 19t12 19.5t12.5 23t11 21q10 18 31.5 16t21.5 -20v-100h99v-36q0 -28 -27 -28h-72v-255q0 -74 32 -74q22 0 52 21zM261 -230q-17 -56 -60 -93
q-12 -8 -21 2l-21 24q33 37 39 53q10 27 6 43q-10 -2 -29 -1q-24 3 -40.5 25t-12.5 49q3 29 26 46.5t51 14.5q27 -3 44.5 -22.5t21.5 -45.5q9 -49 -4 -95z" />
    <glyph glyph-name="dotlessj" unicode="&#x237;" horiz-adv-x="292" 
d="M64 442l136 9q32 3 32 -31v-494q0 -88 -89 -125q-58 -23 -107.5 -9.5t-74.5 54.5q-15 23 -10.5 51.5t29.5 41.5q30 12 49 3t28 -32q6 -14 11 -37t8.5 -33t11.5 -7q24 10 24 50v477q0 17 -6.5 24t-21.5 7h-20v51z" />
    <glyph glyph-name="circumflex" unicode="&#x2c6;" horiz-adv-x="458" 
d="M229 726l174 -192h-83l-91 62l-91 -62h-83z" />
    <glyph glyph-name="caron" unicode="&#x2c7;" horiz-adv-x="408" 
d="M204 514l-174 192h83l91 -62l91 62h83z" />
    <glyph glyph-name="breve" unicode="&#x2d8;" horiz-adv-x="384" 
d="M192 541q-62 0 -103 37.5t-44 101.5q0 11 10 11h39q10 0 11 -11q3 -22 27 -35.5t60 -13.5t60 13.5t27 35.5q1 11 11 11h39q10 0 10 -11q-3 -64 -44 -101.5t-103 -37.5z" />
    <glyph glyph-name="dotaccent" unicode="&#x2d9;" horiz-adv-x="234" 
d="M117 541q-31 0 -52.5 21.5t-21.5 52.5q0 30 21.5 51.5t52.5 21.5q30 0 51.5 -21.5t21.5 -51.5q0 -31 -21.5 -52.5t-51.5 -21.5z" />
    <glyph glyph-name="ring" unicode="&#x2da;" horiz-adv-x="389" 
d="M195 535q-44 0 -76 30.5t-32 72.5q0 43 32 73.5t76 30.5q45 0 76 -30.5t31 -73.5q0 -42 -31 -72.5t-76 -30.5zM195 594q12 0 23 13.5t11 30.5t-11 30.5t-23 13.5q-15 0 -26 -13.5t-11 -30.5q0 -18 11 -31t26 -13z" />
    <glyph glyph-name="ogonek" unicode="&#x2db;" horiz-adv-x="361" 
d="M279 -95h42q-4 -17 -12 -33t-25 -36.5t-49 -33t-74 -12.5q-51 0 -87.5 24t-36.5 74q0 51 45.5 86.5t99.5 47.5h61q-91 -58 -91 -115q0 -25 15.5 -41t41.5 -16q52 0 70 55z" />
    <glyph glyph-name="tilde" unicode="&#x2dc;" horiz-adv-x="466" 
d="M363 656h63q-4 -53 -40 -85.5t-93 -32.5q-32 0 -59.5 17t-49.5 34t-41 17t-31 -11t-15.5 -21.5t-1.5 -15.5h-52q-13 48 25 81t91 33q43 0 84 -29t69 -29q23 0 38 15.5t13 26.5z" />
    <glyph glyph-name="hungarumlaut" unicode="&#x2dd;" horiz-adv-x="515" 
d="M160 696l-101 -115q-17 -19 -4 -36q12 -17 32 -5l130 78q28 17 37.5 39.5t-11.5 48.5q-39 40 -83 -10zM367 696l-101 -115q-17 -19 -4 -36q12 -17 32 -5l130 78q28 17 37.5 39.5t-11.5 48.5q-39 40 -83 -10z" />
    <glyph glyph-name="acutecomb" unicode="&#x301;" horiz-adv-x="0" 
d="M155 696l-101 -115q-17 -19 -4 -36q12 -17 32 -5l130 78q28 17 37.5 39.5t-11.5 48.5q-39 40 -83 -10z" />
    <glyph glyph-name="uni0326" unicode="&#x326;" horiz-adv-x="0" 
d="M179 -230q-17 -56 -60 -93q-12 -8 -21 2l-21 24q33 37 39 53q10 27 6 43q-10 -2 -29 -1q-24 3 -40.5 25t-12.5 49q3 29 26 46.5t51 14.5q27 -3 44.5 -22.5t21.5 -45.5q9 -49 -4 -95z" />
    <glyph glyph-name="Delta" unicode="&#x394;" horiz-adv-x="644" 
d="M624 0h-604l292 634zM116 97h348l-176 363z" />
    <glyph glyph-name="Omega" unicode="&#x3a9;" horiz-adv-x="754" 
d="M650 127h64l-34 -104q-8 -23 -30 -23h-209v155q55 5 87 57.5t32 140.5q0 104 -48.5 161t-134.5 57t-134.5 -57t-48.5 -161q0 -89 32 -141t88 -57v-155h-210q-22 0 -30 23l-34 104h64l17 -27q6 -10 11.5 -15.5t18 -8t16 -3t23.5 -1.5l53 -3q14 0 15 12q-88 25 -144.5 96
t-56.5 166q0 118 90.5 206t229.5 88t229.5 -88t90.5 -206q0 -89 -57 -162t-143 -99q1 -13 14 -13l53 3q43 3 55 11q8 6 14 17z" />
    <glyph glyph-name="mu" unicode="&#x3bc;" horiz-adv-x="587" 
d="M506 433v-327q0 -45 56 -36v-51l-91 -22q-32 -8 -55.5 15t-29.5 85v2q-37 -107 -145 -107q-63 0 -107 30q3 -41 15 -71t23.5 -42.5t20 -23t7.5 -18.5q-5 -36 -38 -56t-63.5 -8.5t-30.5 52.5v504q0 32 -28 32h-15v45l136 19q11 2 19 -4.5t8 -17.5v-252q0 -61 21.5 -87
t64.5 -26q46 0 70 25.5t42 76.5v189q0 17 -6 24.5t-21 7.5h-15v45l135 20q12 1 19.5 -5.5t7.5 -17.5z" />
    <glyph glyph-name="pi" unicode="&#x3c0;" horiz-adv-x="734" 
d="M645 120q42 -17 24 -79q-10 -35 -61.5 -46.5t-101.5 7.5q-84 31 -84 128v234h-112v-248q0 -55 -38 -88.5t-80 -33.5q-52 0 -79 10l-13 56q40 -9 71.5 14t31.5 69v221h-44q-33 0 -47 -21.5t-4 -59.5l-36 33q-12 33 -12 58q0 35 24.5 56t67.5 21h477v-87h-73
q-15 0 -21.5 -7t-6.5 -24v-226q0 -44 24 -54q8 -3 13.5 5t12 23.5t9.5 20.5q21 33 58 18z" />
    <glyph glyph-name="uni0400" unicode="&#x400;" horiz-adv-x="621" 
d="M371 751l-101 115q-44 50 -83 10q-21 -26 -11.5 -48.5t37.5 -39.5l130 -78q20 -12 32 5q13 17 -4 36zM524 128h62q-12 -23 -32 -105q-6 -23 -30 -23h-489v54q64 10 64 44v425q0 34 -64 44v54h473q10 0 13.5 -3.5t3.5 -14.5v-113h-54l-15 33q-9 19 -26 24t-54 5h-142v-202
h161q23 0 31.5 8t19.5 35h31v-153h-31q-11 27 -19.5 35.5t-31.5 8.5h-161v-215l197 2q28 0 41.5 4t25.5 20z" />
    <glyph glyph-name="uni0401" unicode="&#x401;" horiz-adv-x="621" 
d="M180 713q-32 0 -55 23t-23 55t23 54.5t55 22.5t54.5 -23t22.5 -54q0 -32 -22.5 -55t-54.5 -23zM413 713q-32 0 -55 23t-23 55t23 54.5t55 22.5q31 0 54 -23t23 -54q0 -32 -22.5 -55t-54.5 -23zM524 128h62q-12 -23 -32 -105q-6 -23 -30 -23h-489v54q64 10 64 44v425
q0 34 -64 44v54h473q10 0 13.5 -3.5t3.5 -14.5v-113h-54l-15 33q-9 19 -26 24t-54 5h-142v-202h161q23 0 31.5 8t19.5 35h31v-153h-31q-11 27 -19.5 35.5t-31.5 8.5h-161v-215l197 2q28 0 41.5 4t25.5 20z" />
    <glyph glyph-name="uni0403" unicode="&#x403;" horiz-adv-x="544" 
d="M399 788l-130 -78q-20 -12 -32 5q-13 17 4 36l101 115q44 50 83 10q21 -26 11.5 -48.5t-37.5 -39.5zM495 598l24 -114h-54l-16 32q-18 36 -80 37l-134 3q-27 -3 -27 -23v-435q0 -16 15 -26t53 -22v-50h-261v50q38 12 53 22t15 26v425q0 33 -68 48v50h450q25 0 30 -23z
" />
    <glyph glyph-name="uni0404" unicode="&#x404;" horiz-adv-x="654" 
d="M608 143q2 -12 -10 -34q-72 -124 -244 -124q-82 0 -153.5 38t-118.5 116.5t-47 182.5q0 140 87 227.5t212 87.5q113 0 179 -82q21 0 29 49q3 17 19 17h34l11 -187l-59 -19q-17 -5 -23 11q-2 6 -14 36q-44 108 -150 108q-76 0 -123.5 -55t-52.5 -165h203v-68h-200
q12 -94 67 -155t131 -61q88 0 141 68q5 6 11.5 15.5t10 13.5t8.5 8t10 4q11 0 26 -10.5t16 -21.5z" />
    <glyph glyph-name="uni0405" unicode="&#x405;" horiz-adv-x="580" 
d="M516 439l-57 -9q-20 -3 -24 12l-11 40q-9 37 -52 63t-93 26q-54 0 -83 -28.5t-24 -69.5q5 -38 36 -56.5t104 -40.5q98 -29 140 -55q88 -53 97 -138q7 -64 -32.5 -111t-95.5 -67t-116 -20q-53 0 -119.5 22.5t-98.5 11.5l-52 157l53 20q23 8 34 -13q21 -39 22 -41
q42 -85 157 -85q59 0 91 20.5t28 62.5q-2 17 -11.5 31.5t-20.5 24t-34 19t-37 14t-43 13.5q-7 2 -10 3q-193 57 -209 192q-11 87 51.5 144t172.5 57q56 0 97.5 -15t73 -34t53.5 -23z" />
    <glyph glyph-name="uni0406" unicode="&#x406;" horiz-adv-x="348" 
d="M239 523v-425q0 -34 64 -44v-54h-263v54q64 10 64 44v425q0 34 -64 44v54h263v-54q-64 -10 -64 -44z" />
    <glyph glyph-name="uni0407" unicode="&#x407;" horiz-adv-x="348" 
d="M52 713q-32 0 -55 23t-23 55t23 54.5t55 22.5t54.5 -23t22.5 -54q0 -32 -22.5 -55t-54.5 -23zM285 713q-32 0 -55 23t-23 55t23 54.5t55 22.5q31 0 54 -23t23 -54q0 -32 -22.5 -55t-54.5 -23zM239 523v-425q0 -34 64 -44v-54h-263v54q64 10 64 44v425q0 34 -64 44v54h263
v-54q-64 -10 -64 -44z" />
    <glyph glyph-name="uni0408" unicode="&#x408;" horiz-adv-x="411" 
d="M371 621v-54q-64 -10 -64 -44v-523q0 -92 -42 -131t-124 -39q-65 0 -105.5 28.5t-40.5 74.5q0 67 65 67q51 0 51 -56q0 -55 30 -55q31 0 31 51v583q0 34 -64 44v54h263z" />
    <glyph glyph-name="uni040D" unicode="&#x40d;" horiz-adv-x="749" 
d="M426 710l-130 78q-28 17 -37.5 39.5t11.5 48.5q39 40 83 -10l101 -115q17 -19 4 -36q-12 -17 -32 -5zM699 621v-54q-64 -10 -64 -44v-425q0 -34 64 -44v-54h-263v54q64 10 64 44v307l-261 -289v-18q0 -34 64 -44v-54h-263v54q64 10 64 44v425q0 34 -64 44v54h263v-54
q-64 -10 -64 -44v-309l261 289v20q0 34 -64 44v54h263z" />
    <glyph glyph-name="uni040E" unicode="&#x40e;" horiz-adv-x="691" 
d="M370 711q-62 0 -103 37.5t-44 101.5q0 11 10 11h39q10 0 11 -11q3 -22 27 -35.5t60 -13.5t60 13.5t27 35.5q1 11 11 11h39q10 0 10 -11q-3 -64 -44 -101.5t-103 -37.5zM676 621v-51q-8 -1 -14 -3l-10.5 -3.5t-9.5 -5.5t-7 -5.5t-6.5 -8.5t-6 -9t-7 -12t-7.5 -13
l-200 -346q-63 -108 -83 -131q-45 -47 -107 -48q-118 0 -136 64q-8 30 7 52t46 22q21 0 32.5 -11.5t14.5 -25t11.5 -25t24.5 -11.5q19 0 34 13t22 25t23 46q5 9 7 14l-203 337q-4 7 -11.5 19.5t-10.5 17t-8 12.5t-7.5 11t-7.5 8t-8.5 6.5t-9 4.5t-11 4t-12.5 2v51h240v-51
q-27 -5 -38.5 -13.5t-4.5 -20.5l173 -287l154 277q10 17 -7 28t-49 16v51h193z" />
    <glyph glyph-name="uni0410" unicode="&#x410;" horiz-adv-x="707" 
d="M398 583l201 -448q22 -49 36 -61t52 -21v-53h-244v54q40 7 47 12.5t-1 22.5l-56 127h-212l-50 -122q-6 -15 6.5 -24t49.5 -16v-54h-207v54q40 8 50 15.5t24 41.5l219 518l45 -13q29 -9 40 -33zM246 276h161l-83 190z" />
    <glyph glyph-name="uni0411" unicode="&#x411;" horiz-adv-x="577" 
d="M208 381h99q108 0 176.5 -51.5t68.5 -138.5q0 -89 -68.5 -140t-185.5 -51h-283v50q38 12 53 22t15 26v425q0 33 -68 48v50h450q25 0 30 -23l24 -114h-54l-16 32q-18 36 -80 37l-134 3q-27 -3 -27 -23v-152zM276 50h26q58 0 86.5 39.5t28.5 101.5q0 60 -27.5 100.5
t-78.5 40.5h-103v-234q0 -16 15 -26t53 -22z" />
    <glyph glyph-name="uni0412" unicode="&#x412;" horiz-adv-x="657" 
d="M441 336q91 -13 136 -55t45 -104q0 -88 -70 -134t-192 -43l-88 2q-142 9 -247 -2v59q65 14 65 48v416q0 34 -64 44v54h295q267 0 267 -147q0 -46 -35.5 -84t-111.5 -54zM225 562v-201h159q27 0 44.5 28t17.5 80q0 43 -30 68t-90 25h-101zM254 65h87q73 0 106 22.5
t33 89.5q0 68 -49.5 101t-162.5 33h-43v-203q0 -43 29 -43z" />
    <glyph glyph-name="uni0413" unicode="&#x413;" horiz-adv-x="544" 
d="M495 598l24 -114h-54l-16 32q-18 36 -80 37l-134 3q-27 -3 -27 -23v-435q0 -16 15 -26t53 -22v-50h-261v50q38 12 53 22t15 26v425q0 33 -68 48v50h450q25 0 30 -23z" />
    <glyph glyph-name="uni0414" unicode="&#x414;" horiz-adv-x="726" 
d="M677 621v-50h-15.5h-14.5h-12.5t-11 -1t-8.5 -2t-7.5 -3t-5 -5t-3.5 -7.5t-1 -9.5v-445q0 -22 15.5 -29.5t56.5 -8.5q12 0 11 -12l-24 -213h-48q-11 0 -11 11q0 10 0.5 30.5t0 27.5t-1.5 22.5t-4.5 20.5t-9.5 16t-15 14.5t-22.5 9.5t-32 7.5t-42.5 3.5t-54 2h-127
q-48 0 -81.5 -3.5t-55.5 -13t-35 -19.5t-19 -30.5t-7.5 -38t-1.5 -49.5q0 -11 -11 -11h-34v215q0 10 10 11q84 15 115 132.5t31 348.5q0 17 -17 23t-62 6v50h555zM183 61h227q30 0 44 7.5t14 30.5v436q0 28 -58 28h-89q-51 0 -51 -26q0 -186 -24 -311.5t-63 -164.5z" />
    <glyph glyph-name="uni0415" unicode="&#x415;" horiz-adv-x="621" 
d="M524 128h62q-12 -23 -32 -105q-6 -23 -30 -23h-489v54q64 10 64 44v425q0 34 -64 44v54h473q10 0 13.5 -3.5t3.5 -14.5v-113h-54l-15 33q-9 19 -26 24t-54 5h-142v-202h161q23 0 31.5 8t19.5 35h31v-153h-31q-11 27 -19.5 35.5t-31.5 8.5h-161v-215l197 2q28 0 41.5 4
t25.5 20z" />
    <glyph glyph-name="uni0416" unicode="&#x416;" horiz-adv-x="1051" 
d="M691 353l200 -213q37 -39 50 -51.5t32 -23t43 -12.5v-53h-282v53q24 4 32.5 14.5t-5.5 29.5l-171 187v-186q0 -34 67 -44v-54h-263v54q67 10 67 44v186l-171 -187q-14 -19 -5.5 -29.5t32.5 -14.5v-53h-282v53q24 2 43 12.5t32 23t50 51.5l200 213l-148 177
q-10 12 -21 13.5t-18 -1t-23.5 -14t-23.5 -15.5q-25 -14 -47.5 4t-22.5 46q0 26 25.5 42t71.5 16q71 0 132 -76l129 -164q25 -31 47 -39v181q0 34 -67 44v54h263v-54q-67 -10 -67 -44v-181q22 8 47 39l129 164q61 76 132 76q46 0 71.5 -16t25.5 -42q0 -28 -22.5 -46
t-47.5 -4q-7 4 -23.5 15.5t-23.5 14t-18 1t-21 -13.5z" />
    <glyph glyph-name="uni0417" unicode="&#x417;" horiz-adv-x="649" 
d="M463 361q52 8 96 -36t44 -119q0 -95 -82 -156.5t-194 -61.5q-123 0 -199.5 54.5t-77.5 130.5q0 54 54 54q15 0 25 -3.5t17 -13t11 -18t11 -27t14 -32.5q22 -44 55 -64.5t92 -20.5q61 0 99.5 36t38.5 103q0 55 -27.5 88t-68.5 33q-20 0 -38 -6l-41 -14l-22 52l43 17
q56 22 82 53t26 78q0 43 -29 64t-76 21q-107 0 -151 -107q-12 -30 -14 -36q-5 -14 -23 -11l-59 12l11 190h48q16 0 19 -17q7 -39 24 -39q32 34 69.5 53t98.5 19q102 0 157.5 -45t55.5 -101q0 -45 -24 -79t-65 -51z" />
    <glyph glyph-name="uni0418" unicode="&#x418;" horiz-adv-x="749" 
d="M699 621v-54q-64 -10 -64 -44v-425q0 -34 64 -44v-54h-263v54q64 10 64 44v307l-261 -289v-18q0 -34 64 -44v-54h-263v54q64 10 64 44v425q0 34 -64 44v54h263v-54q-64 -10 -64 -44v-309l261 289v20q0 34 -64 44v54h263z" />
    <glyph glyph-name="uni0419" unicode="&#x419;" horiz-adv-x="749" 
d="M381 711q-62 0 -103 37.5t-44 101.5q0 11 10 11h39q10 0 11 -11q3 -22 27 -35.5t60 -13.5t60 13.5t27 35.5q1 11 11 11h39q10 0 10 -11q-3 -64 -44 -101.5t-103 -37.5zM699 621v-54q-64 -10 -64 -44v-425q0 -34 64 -44v-54h-263v54q64 10 64 44v307l-261 -289v-18
q0 -34 64 -44v-54h-263v54q64 10 64 44v425q0 34 -64 44v54h263v-54q-64 -10 -64 -44v-309l261 289v20q0 34 -64 44v54h263z" />
    <glyph glyph-name="uni041A" unicode="&#x41a;" horiz-adv-x="697" 
d="M337 353l200 -213q37 -39 50 -51.5t32 -23t43 -12.5v-53h-282v53q24 4 32.5 14.5t-5.5 29.5l-173 189h-18v-188q0 -34 67 -44v-54h-263v54q67 10 67 44v425q0 34 -67 44v54h263v-54q-67 -10 -67 -44v-184h3q30 0 64 42l129 164q61 76 130 76q47 0 73 -15t26 -41
q0 -28 -23.5 -46.5t-48.5 -4.5q-6 4 -19.5 12.5t-19 11t-15 5t-16.5 -1t-15 -12.5z" />
    <glyph glyph-name="uni041B" unicode="&#x41b;" horiz-adv-x="706" 
d="M661 621v-54q-64 -10 -64 -44v-425q0 -34 64 -44v-54h-263v54q64 10 64 44v425q0 41 -55 41h-151v-287v-27q0 -39 -0.5 -60t-3.5 -57.5t-11 -57t-22 -43t-37.5 -33t-55.5 -10.5q-88 0 -103 50q-14 51 28 70q17 9 36 5t23 -18q2 -8 3 -20t2 -18t7 -10.5t17 -3.5
q37 4 45.5 42t7.5 133v36l-1 281q0 18 -5 23t-25 5h-69v57h569z" />
    <glyph glyph-name="uni041C" unicode="&#x41c;" horiz-adv-x="894" 
d="M854 621v-54q-64 -10 -64 -44v-425q0 -34 64 -44v-54h-263v54q64 10 64 44v353l-193 -396q-10 -19 -36 -19t-37 19l-216 363v-320q0 -34 64 -44v-54h-207v54q64 10 64 44v425q0 34 -64 44v54h182l243 -428l216 428h183z" />
    <glyph glyph-name="uni041D" unicode="&#x41d;" horiz-adv-x="733" 
d="M693 621v-54q-64 -10 -64 -44v-425q0 -34 64 -44v-54h-263v54q64 10 64 44v183h-260v-183q0 -34 64 -44v-54h-263v54q64 10 64 44v425q0 34 -64 44v54h263v-54q-64 -10 -64 -44v-175h260v175q0 34 -64 44v54h263z" />
    <glyph glyph-name="uni041E" unicode="&#x41e;" 
d="M669 316q0 -140 -94 -235.5t-225 -95.5q-137 0 -228.5 89t-91.5 242q0 143 92.5 232t227.5 89q131 0 225 -92t94 -229zM360 68q35 0 60.5 7.5t49.5 29t37 67t13 114.5q0 129 -48.5 205.5t-121.5 76.5q-171 0 -171 -222q0 -118 54.5 -198t126.5 -80z" />
    <glyph glyph-name="uni041F" unicode="&#x41f;" horiz-adv-x="749" 
d="M699 621v-54q-64 -10 -64 -44v-425q0 -34 64 -44v-54h-263v54q64 10 64 44v425q0 34 -64 44h-133q-64 -10 -64 -44v-425q0 -34 64 -44v-54h-263v54q64 10 64 44v425q0 34 -64 44v54h659z" />
    <glyph glyph-name="uni0420" unicode="&#x420;" horiz-adv-x="618" 
d="M25 621h304q124 0 194 -51t70 -140q0 -90 -74 -146t-203 -56h-92v-130q0 -34 64 -44v-54h-263v54q64 10 64 44v425q0 34 -64 44v54zM224 291h106q128 0 128 139q0 137 -115 137h-119v-276z" />
    <glyph glyph-name="uni0421" unicode="&#x421;" horiz-adv-x="654" 
d="M606 434l-59 -19q-17 -5 -23 11q-2 6 -14 36q-44 108 -150 108q-80 0 -128 -60.5t-48 -181.5q0 -110 57.5 -186t143.5 -76q88 0 141 68q5 6 11.5 15.5t10 13.5t8.5 8t10 4q11 0 26 -10.5t16 -21.5q2 -12 -10 -34q-72 -124 -244 -124q-82 0 -153.5 38t-118.5 116.5
t-47 182.5q0 140 87 227.5t212 87.5q113 0 179 -82q21 0 29 49q3 17 19 17h34z" />
    <glyph glyph-name="uni0422" unicode="&#x422;" horiz-adv-x="609" 
d="M575 596l9 -101h-45l-18 33q-18 32 -48 32h-101v-462q0 -34 64 -44v-54h-263v54q64 10 64 44v462h-101q-30 0 -48 -32l-18 -33h-45l9 101q2 25 24 25h493q22 0 24 -25z" />
    <glyph glyph-name="uni0423" unicode="&#x423;" horiz-adv-x="691" 
d="M676 621v-51q-8 -1 -14 -3l-10.5 -3.5t-9.5 -5.5t-7 -5.5t-6.5 -8.5t-6 -9t-7 -12t-7.5 -13l-200 -346q-63 -108 -83 -131q-45 -47 -107 -48q-118 0 -136 64q-8 30 7 52t46 22q21 0 32.5 -11.5t14.5 -25t11.5 -25t24.5 -11.5q19 0 34 13t22 25t23 46q5 9 7 14l-203 337
q-4 7 -11.5 19.5t-10.5 17t-8 12.5t-7.5 11t-7.5 8t-8.5 6.5t-9 4.5t-11 4t-12.5 2v51h240v-51q-27 -5 -38.5 -13.5t-4.5 -20.5l173 -287l154 277q10 17 -7 28t-49 16v51h193z" />
    <glyph glyph-name="uni0424" unicode="&#x424;" horiz-adv-x="804" 
d="M759 311q0 -94 -71 -155.5t-186 -61.5h-37q4 -31 64 -40v-54h-263v54q60 9 64 40h-28q-115 0 -186 61.5t-71 155.5q0 93 72 154.5t184 61.5h29q-4 31 -64 40v54h263v-54q-60 -9 -64 -40h38q112 0 184 -61.5t72 -154.5zM180 311q0 -67 33 -117t94 -50h23v334h-27
q-55 0 -89 -51.5t-34 -115.5zM465 144h32q61 0 94 50t33 117q0 64 -34 115.5t-89 51.5h-36v-334z" />
    <glyph glyph-name="uni0425" unicode="&#x425;" horiz-adv-x="701" 
d="M404 333l162 -193q47 -56 63 -67q19 -14 45 -16v-57h-258v57q25 3 38 11.5t3 20.5l-148 176l-134 -166q-12 -16 0 -27.5t42 -14.5v-57h-194v57q30 3 48 16t41 42l158 196l-145 173q-27 33 -39 45.5t-29.5 23.5t-39.5 13v55h258v-55q-23 -4 -36 -12.5t-5 -18.5l133 -158
l121 148q11 14 -4.5 25.5t-47.5 15.5v55h205v-55q-53 -6 -94 -57z" />
    <glyph glyph-name="uni0426" unicode="&#x426;" horiz-adv-x="796" 
d="M740 54q12 0 11 -12l-24 -207h-53q-11 0 -11 11t0.5 30t0.5 27.5t-1.5 23t-5 20.5t-10.5 16t-18 14l-27.5 10t-38.5 8t-51.5 3.5t-66.5 1.5h-405v54q64 10 64 44v425q0 34 -64 44v54h263v-54q-64 -10 -64 -44v-425q0 -34 64 -44h133q64 10 64 44v425q0 34 -64 44v54h263
v-54q-64 -10 -64 -44v-340h4v-81q0 -46 101 -48z" />
    <glyph glyph-name="uni0427" unicode="&#x427;" horiz-adv-x="701" 
d="M656 621v-54q-64 -10 -64 -44v-425q0 -34 64 -44v-54h-263v54q64 10 64 44v196q-64 -103 -180 -103q-192 0 -192 184v142q0 29 -12.5 41t-47.5 4l13 59h226v-55q-58 0 -58 -28v-143q0 -55 23.5 -86t69.5 -31q47 0 90 28t67 56v169q-8 28 -63 36v54h263z" />
    <glyph glyph-name="uni0428" unicode="&#x428;" horiz-adv-x="999" 
d="M949 621v-54q-64 -10 -64 -44v-425q0 -34 64 -44v-54h-909v54q64 10 64 44v425q0 34 -64 44v54h263v-54q-64 -10 -64 -44v-425q0 -34 64 -44h60q64 10 64 44v425q0 34 -64 44v54h263v-54q-64 -10 -64 -44v-425q0 -34 64 -44h60q64 10 64 44v425q0 34 -64 44v54h263z" />
    <glyph glyph-name="uni0429" unicode="&#x429;" horiz-adv-x="1031" 
d="M980 54q12 0 11 -12l-24 -207h-53q-11 0 -11 11t0.5 30t0.5 27.5t-1.5 23t-5 20.5t-10.5 16t-18 14l-27.5 10t-38.5 8t-51.5 3.5t-66.5 1.5h-655v54q64 10 64 44v425q0 34 -64 44v54h263v-54q-64 -10 -64 -44v-425q0 -34 64 -44h60q64 10 64 44v425q0 34 -64 44v54h263
v-54q-64 -10 -64 -44v-425q0 -34 64 -44h60q64 10 64 44v425q0 34 -64 44v54h263v-54q-64 -10 -64 -44v-340h4v-81q0 -46 101 -48z" />
    <glyph glyph-name="uni042A" unicode="&#x42a;" horiz-adv-x="714" 
d="M346 381h98q108 0 176.5 -51.5t68.5 -138.5q0 -89 -68.5 -140t-185.5 -51h-288v54q64 10 64 44v425q0 32 -58 43h-11q-35 0 -48.5 -5t-23.5 -25l-16 -33l-54 2l24 93q6 23 30 23h356v-54q-64 -10 -64 -44v-142zM410 53h29q58 0 86.5 38t28.5 100q0 60 -27.5 100.5
t-78.5 40.5h-102v-234q0 -34 64 -44v-1z" />
    <glyph glyph-name="uni042B" unicode="&#x42b;" horiz-adv-x="923" 
d="M239 381h98q108 0 176.5 -51.5t68.5 -138.5q0 -89 -68.5 -140t-185.5 -51h-288v54q64 10 64 44v425q0 34 -64 44v54h263v-54q-64 -10 -64 -44v-142zM873 621v-54q-64 -10 -64 -44v-425q0 -34 64 -44v-54h-263v54q64 10 64 44v425q0 34 -64 44v54h263zM303 53h29
q58 0 86.5 38t28.5 100q0 60 -27.5 100.5t-78.5 40.5h-102v-234q0 -34 64 -44v-1z" />
    <glyph glyph-name="uni042C" unicode="&#x42c;" horiz-adv-x="617" 
d="M239 381h98q108 0 176.5 -51.5t68.5 -138.5q0 -89 -68.5 -140t-185.5 -51h-288v54q64 10 64 44v425q0 34 -64 44v54h263v-54q-64 -10 -64 -44v-142zM303 53h29q58 0 86.5 38t28.5 100q0 60 -27.5 100.5t-78.5 40.5h-102v-234q0 -34 64 -44v-1z" />
    <glyph glyph-name="uni042D" unicode="&#x42d;" horiz-adv-x="654" 
d="M320 637q125 0 212 -87.5t87 -227.5q0 -104 -47 -182.5t-118.5 -116.5t-153.5 -38q-172 0 -244 124q-12 22 -10 34q1 11 16 21.5t26 10.5q5 0 10 -4t8.5 -8t10 -13.5t11.5 -15.5q53 -68 141 -68q76 0 131 61t67 155h-200v68h203q-5 110 -52.5 165t-123.5 55
q-106 0 -150 -108q-12 -30 -14 -36q-6 -16 -23 -11l-59 19l11 187h34q16 0 19 -17q8 -49 29 -49q66 82 179 82z" />
    <glyph glyph-name="uni042E" unicode="&#x42e;" horiz-adv-x="998" 
d="M649 637q131 0 225 -92t94 -229q0 -140 -94 -235.5t-225 -95.5q-128 0 -218 79.5t-101 217.5h-91v-184q0 -34 64 -44v-54h-263v54q64 10 64 44v425q0 34 -64 44v54h263v-54q-64 -10 -64 -44v-173h92q11 129 101.5 208t216.5 79zM659 68q35 0 60.5 7.5t49.5 29t37 67
t13 114.5q0 129 -48.5 205.5t-121.5 76.5q-171 0 -171 -222q0 -118 54.5 -198t126.5 -80z" />
    <glyph glyph-name="uni042F" unicode="&#x42f;" horiz-adv-x="710" 
d="M25 55h23q23 2 40.5 20.5t25.5 37t21 55.5q38 107 163 124q-94 7 -141.5 52t-47.5 107q0 75 66 122.5t173 47.5h327v-54q-64 -10 -64 -44v-425q0 -34 64 -44v-54h-263v54q64 10 64 44v164h-58q-41 0 -70 -23t-51 -78q-29 -73 -62 -109.5t-81 -51.5h-129v55zM355 332h121
v235h-128q-51 0 -75.5 -32t-24.5 -84t26 -85.5t81 -33.5z" />
    <glyph glyph-name="uni0430" unicode="&#x430;" horiz-adv-x="506" 
d="M430 278v-172q0 -45 56 -36v-51q-70 -24 -104 -24q-61 0 -69 97q-38 -102 -129 -102q-68 0 -113.5 35t-45.5 98q0 46 22.5 75.5t85 53.5t176.5 41v22q0 92 -66 92q-37 0 -53 -14t-16 -56q0 -16 -19.5 -25.5t-47.5 -9.5q-25 0 -40.5 15.5t-15.5 37.5q0 49 57.5 77
t138.5 28q86 0 134.5 -41.5t48.5 -140.5zM211 69q40 0 63.5 31t34.5 72v63q-53 -10 -87.5 -23.5t-48 -29.5t-17 -27t-3.5 -26q0 -24 17 -42t41 -18z" />
    <glyph glyph-name="uni0431" unicode="&#x431;" horiz-adv-x="549" 
d="M275 458q92 0 163 -61.5t71 -166.5q0 -109 -71.5 -174.5t-162.5 -65.5q-84 0 -151 60.5t-89 175.5q-17 74 -8.5 145t33 126.5t76 89.5t120.5 34h112q11 0 19.5 3.5t17 8.5t14.5 7h43q-16 -61 -46.5 -91.5t-67.5 -30.5h-113q-74 0 -106 -35t-46 -120q33 46 84.5 70.5
t107.5 24.5zM283 61q48 0 72 31t24 100q0 99 -31.5 149.5t-82.5 50.5q-95 0 -95 -132q0 -94 31.5 -146.5t81.5 -52.5z" />
    <glyph glyph-name="uni0432" unicode="&#x432;" horiz-adv-x="524" 
d="M367 243q57 -10 89.5 -40.5t32.5 -74.5q0 -65 -49.5 -98.5t-145.5 -29.5l-56 2q-114 8 -213 -2v49q57 9 57 35v293q0 13 -14.5 22t-42.5 9v43h242q198 0 198 -108q0 -31 -26 -59.5t-72 -40.5zM199 408v-145h100q22 0 34 19.5t12 53.5q0 72 -87 72h-59zM220 55l62 -1
q40 -1 64 18t24 56q0 50 -29.5 73.5t-101.5 23.5h-40v-140q0 -30 21 -30z" />
    <glyph glyph-name="uni0433" unicode="&#x433;" horiz-adv-x="474" 
d="M425 428l24 -93l-54 -2l-16 33q-20 40 -80 40h-48q-17 0 -25 -0.5t-17 -2.5t-12.5 -7t-3.5 -14v-299q0 -16 15 -22.5t53 -10.5v-50h-246v50q31 4 44.5 10.5t13.5 22.5v298q0 28 -58 28v42h380q24 0 30 -23z" />
    <glyph glyph-name="uni0434" unicode="&#x434;" horiz-adv-x="650" 
d="M611 451v-42q-79 0 -79 -28v-293q0 -22 15.5 -29.5t56.5 -8.5q12 0 11 -12l-24 -173h-43q-11 0 -11 11q0 7 0.5 22.5t0 21t-1.5 17.5t-4.5 16.5t-10 13.5t-16 12t-23 8.5t-32.5 7.5t-43.5 3.5t-55.5 1.5h-86q-65 0 -103.5 -7.5t-55.5 -26t-21.5 -37t-4.5 -53.5
q0 -11 -11 -11h-34v175q0 10 10 11q42 7 71.5 37t44 78t20 99t5.5 115q0 17 -17 23t-62 6v42h504zM147 50h207q30 0 44 7.5t14 30.5v290q0 17 -8 23t-28 6h-100q-19 0 -25 -5t-6 -22q0 -271 -98 -330z" />
    <glyph glyph-name="uni0435" unicode="&#x435;" horiz-adv-x="500" 
d="M470 269q0 -30 -14.5 -49.5t-41.5 -19.5h-255q0 -59 32 -99t92 -40q67 0 117 56l44 -42q-64 -85 -174 -85q-100 0 -170 67t-70 170q0 104 68 167.5t158 63.5q85 0 149.5 -56t64.5 -133zM159 263h191q0 66 -22.5 97.5t-71.5 31.5q-97 0 -97 -129z" />
    <glyph glyph-name="uni0436" unicode="&#x436;" horiz-adv-x="815" 
d="M556 252l136 -153q29 -32 48 -43.5t40 -15.5v-40h-202v40q35 6 35 13q0 2 -2 4l-126 144h-26v-128q0 -11 7.5 -18t15.5 -9.5t24 -5.5v-40h-199v40q16 3 24.5 5.5t16 9.5t7.5 18v128h-25l-126 -144q-5 -6 3.5 -9.5t29.5 -7.5v-40h-202v40q21 4 40 15.5t48 43.5l136 153
l-87 123q-9 8 -16 5.5t-25 -13.5l-9 -6q-21 -14 -44 -1t-23 40q0 25 21 38.5t50 13.5q58 0 93 -53l84 -125q18 -28 43 -28h9v133q0 11 -7.5 18t-16 9.5t-24.5 5.5v39h199v-39q-16 -3 -24 -5.5t-15.5 -9.5t-7.5 -18v-133h10q25 0 43 28l84 125q35 53 93 53q29 0 50 -13.5
t21 -38.5q0 -27 -23 -40t-44 1q-34 21 -41 20q-5 0 -9 -6z" />
    <glyph glyph-name="uni0437" unicode="&#x437;" horiz-adv-x="500" 
d="M351 268q40 -7 72 -39t32 -80q0 -67 -65.5 -112t-146.5 -45q-98 0 -147.5 37.5t-50.5 89.5q0 48 58 48q18 0 28 -6t13 -13t6.5 -22t7.5 -23q22 -55 88 -55q37 0 62 21.5t25 65.5q0 41 -13.5 62t-35.5 21q-20 0 -37 -6l-28 -11l-20 50l35 14q76 31 76 82q0 25 -16.5 39.5
t-47.5 14.5q-32 0 -65 -18t-44 -48t-20 -34q-6 -4 -14 -2l-55 10l8 140h44q16 0 20 -19.5t11 -23.5q44 54 123 54q71 0 117.5 -34t46.5 -72q0 -65 -67 -86z" />
    <glyph glyph-name="uni0438" unicode="&#x438;" horiz-adv-x="632" 
d="M587 451v-42q-16 -3 -24 -5.5t-15.5 -9.5t-7.5 -18v-293q0 -11 7.5 -18t15.5 -9.5t24 -5.5v-50h-209v50q16 3 24.5 5.5t16 9.5t7.5 18v223l-219 -221v-2q0 -11 7.5 -18t15.5 -9.5t24 -5.5v-50h-209v50q16 3 24.5 5.5t16 9.5t7.5 18v293q0 11 -7.5 18t-16 9.5t-24.5 5.5
v42h209v-42q-16 -3 -24 -5.5t-15.5 -9.5t-7.5 -18v-226l219 224v2q0 11 -7.5 18t-16 9.5t-24.5 5.5v42h209z" />
    <glyph glyph-name="uni0439" unicode="&#x439;" horiz-adv-x="632" 
d="M329 541q-62 0 -103 37.5t-44 101.5q0 11 10 11h39q10 0 11 -11q3 -22 27 -35.5t60 -13.5t60 13.5t27 35.5q1 11 11 11h39q10 0 10 -11q-3 -64 -44 -101.5t-103 -37.5zM587 451v-42q-16 -3 -24 -5.5t-15.5 -9.5t-7.5 -18v-293q0 -11 7.5 -18t15.5 -9.5t24 -5.5v-50h-209
v50q16 3 24.5 5.5t16 9.5t7.5 18v223l-219 -221v-2q0 -11 7.5 -18t15.5 -9.5t24 -5.5v-50h-209v50q16 3 24.5 5.5t16 9.5t7.5 18v293q0 11 -7.5 18t-16 9.5t-24.5 5.5v42h209v-42q-16 -3 -24 -5.5t-15.5 -9.5t-7.5 -18v-226l219 224v2q0 11 -7.5 18t-16 9.5t-24.5 5.5v42
h209z" />
    <glyph glyph-name="uni043A" unicode="&#x43a;" horiz-adv-x="534" 
d="M285 252l136 -153q29 -32 48 -43.5t40 -15.5v-40h-202v40q35 6 35 13q0 2 -2 4l-126 144h-32v-118q0 -11 7.5 -18t15.5 -9.5t24 -5.5v-50h-209v50q16 3 24.5 5.5t16 9.5t7.5 18v293q0 11 -7.5 18t-16 9.5t-24.5 5.5v42h209v-42q-28 -5 -37.5 -11t-9.5 -22v-130h16
q25 0 43 28l84 125q35 53 93 53q29 0 50 -13.5t21 -38.5q0 -27 -23 -40t-44 1q-34 21 -41 20q-5 0 -9 -6z" />
    <glyph glyph-name="uni043B" unicode="&#x43b;" horiz-adv-x="618" 
d="M573 451v-42q-38 -5 -49.5 -10.5t-11.5 -22.5v-293q0 -16 14 -22.5t47 -10.5v-50h-232v50q30 4 43.5 10.5t13.5 22.5v293q0 33 -39 33h-103v-132q0 -125 -5 -161q-19 -127 -117 -127q-96 0 -110 50q-15 49 28 71q22 10 38 5.5t20 -19.5q2 -7 3 -27t6.5 -28t19.5 -7
q43 4 51 72q3 26 2 149l-1 124q0 17 -17 23.5t-61 6.5v42h460z" />
    <glyph glyph-name="uni043C" unicode="&#x43c;" horiz-adv-x="677" 
d="M637 451v-37q-20 -5 -27.5 -13t-7.5 -25v-294q0 -16 6 -20.5t29 -11.5v-50h-176v50q31 10 35 17q3 5 3 15v229l-136 -245q-13 -22 -39.5 -22t-40.5 22l-155 245v-229q0 -14 6 -19t26 -11q5 -1 7 -2v-50h-137v50q31 9 35 16q3 5 3 16v294q0 17 -8.5 24.5t-29.5 13.5v37
h153q91 -164 168 -278q22 40 72 129.5t82 148.5h132z" />
    <glyph glyph-name="uni043D" unicode="&#x43d;" horiz-adv-x="617" 
d="M577 451v-42q-16 -3 -24 -5.5t-15.5 -9.5t-7.5 -18v-293q0 -11 7.5 -18t15.5 -9.5t24 -5.5v-50h-209v50q16 3 24.5 5.5t16 9.5t7.5 18v115h-219v-115q0 -11 7.5 -18t15.5 -9.5t24 -5.5v-50h-209v50q16 3 24.5 5.5t16 9.5t7.5 18v293q0 11 -7.5 18t-16 9.5t-24.5 5.5v42
h209v-42q-16 -3 -24 -5.5t-15.5 -9.5t-7.5 -18v-118h219v118q0 11 -7.5 18t-16 9.5t-24.5 5.5v42h209z" />
    <glyph glyph-name="uni043E" unicode="&#x43e;" horiz-adv-x="529" 
d="M265 458q92 0 163 -61.5t71 -166.5q0 -109 -71.5 -174.5t-162.5 -65.5t-163 64.5t-72 167.5q0 111 71 173.5t164 62.5zM369 192q0 99 -31.5 149.5t-82.5 50.5q-95 0 -95 -132q0 -94 31.5 -146.5t81.5 -52.5q48 0 72 31t24 100z" />
    <glyph glyph-name="uni043F" unicode="&#x43f;" horiz-adv-x="632" 
d="M587 451v-42q-16 -3 -24 -5.5t-15.5 -9.5t-7.5 -18v-293q0 -11 7.5 -18t15.5 -9.5t24 -5.5v-50h-209v50q16 3 24.5 5.5t16 9.5t7.5 18v293q0 33 -38 33h-144q-37 0 -37 -33v-293q0 -11 7.5 -18t15.5 -9.5t24 -5.5v-50h-209v50q16 3 24.5 5.5t16 9.5t7.5 18v293
q0 11 -7.5 18t-16 9.5t-24.5 5.5v42h542z" />
    <glyph glyph-name="uni0440" unicode="&#x440;" horiz-adv-x="559" 
d="M339 456q79 0 134.5 -61.5t55.5 -167.5t-62.5 -169.5t-140.5 -63.5q-82 0 -126 74v-184q0 -16 11.5 -22t38.5 -6v-40h-218v40q25 0 36 5.5t11 22.5v478q0 47 -59 39v41l153 17q49 5 22 -78q67 75 144 75zM316 61q38 0 61.5 39.5t23.5 113.5q0 71 -22.5 116t-61.5 45
q-55 0 -117 -41v-182q15 -41 44.5 -66t71.5 -25z" />
    <glyph glyph-name="uni0441" unicode="&#x441;" horiz-adv-x="493" 
d="M414 109l28 -23q-18 -35 -66.5 -64.5t-121.5 -29.5q-90 0 -159.5 64.5t-69.5 166.5q0 107 70 172t161 65q84 0 138 -37.5t54 -84.5q0 -54 -55 -54q-29 0 -44.5 13.5t-15.5 31.5q0 16 -1.5 24.5t-7 19.5t-19.5 16t-37 5q-60 0 -86.5 -36.5t-26.5 -117.5q0 -79 34.5 -129.5
t92.5 -49.5q53 1 96 41l4.5 4.5t5 4.5t5.5 3t6.5 2t6.5 -1.5t8 -5.5z" />
    <glyph glyph-name="uni0442" unicode="&#x442;" horiz-adv-x="519" 
d="M492 428l7 -88h-45l-16 33q-16 33 -46 33h-75v-323q0 -11 7.5 -18t15.5 -9.5t24 -5.5v-50h-209v50q16 3 24.5 5.5t16 9.5t7.5 18v323h-76q-29 0 -46 -33l-16 -33h-45l7 88q2 23 22 23h421q20 0 22 -23z" />
    <glyph glyph-name="uni0443" unicode="&#x443;" horiz-adv-x="588" 
d="M568 451v-40l-14 -6q-4 -2 -10.5 -4.5t-10.5 -4t-8.5 -4t-7.5 -6t-5 -8.5l-209 -462q-30 -67 -64 -99t-90 -32q-117 0 -135 66q-9 35 6 57.5t52 22.5q27 0 40 -13.5t14.5 -30.5t8.5 -30.5t22 -13.5q5 0 9 1.5t8 4.5t7.5 6.5t7.5 9t6.5 10t6.5 11.5t6 11.5t6 13t6 12.5
l38 77l-195 378q-10 19 -33 27l-18 6v40h228v-40l-25 -5q-32 -6 -22 -28l129 -266l111 266q4 10 -3 17.5t-20 10.5l-28 5v40h186z" />
    <glyph glyph-name="uni0444" unicode="&#x444;" horiz-adv-x="761" 
d="M554 457q70 0 123.5 -65.5t53.5 -162.5q0 -110 -51.5 -172.5t-126.5 -62.5q-71 0 -113 90v-185q0 -11 7.5 -18t15.5 -9.5t24 -5.5v-50h-209v50q16 3 24.5 5.5t16 9.5t7.5 18v185q-42 -90 -113 -90q-75 0 -126.5 62.5t-51.5 172.5q0 97 53.5 162.5t123.5 65.5q48 0 72 -23
t42 -67v192q0 47 -59 39v39l144 19q8 1 13.5 0t8.5 -5t5 -8t2.5 -12t0.5 -14t-0.5 -17t-0.5 -18v-215q18 44 42 67t72 23zM226 71q8 0 16 1.5t15.5 4.5t13 5.5t12.5 8t10.5 8.5t10 9.5t8.5 9t7.5 9t6.5 7.5v184q-45 73 -104 73q-27 0 -48.5 -46t-21.5 -116q0 -58 22.5 -108
t51.5 -50zM540 71q29 0 51.5 50t22.5 108q0 70 -21.5 116t-48.5 46q-59 0 -104 -73v-184q1 -1 6.5 -7.5t7.5 -9t8.5 -9t10 -9.5t10.5 -8.5t12.5 -8t13 -5.5t15.5 -4.5t16 -1.5z" />
    <glyph glyph-name="uni0445" unicode="&#x445;" horiz-adv-x="593" 
d="M539 60h29v-60h-251v60l29 -1q39 4 16 28l-83 90l-89 -85q-12 -13 -7 -22t20 -11l23 1v-60h-200v60h29q19 2 50 33l133 129l-130 141q-20 21 -32 28.5t-30 11.5l-21 5v42q125 -4 250 0v-42l-28 -4q-25 -4 -3 -30l69 -78l74 72q30 29 -6 36l-23 4v42q99 -3 198 0v-42
l-24 -5q-31 -6 -78 -53l-100 -100l141 -159q24 -28 44 -31z" />
    <glyph glyph-name="uni0446" unicode="&#x446;" horiz-adv-x="652" 
d="M611 49q13 0 11 -12l-24 -172h-43q-11 0 -11 11q0 7 0.5 22.5t0 21t-1.5 17.5t-4.5 16.5t-9.5 13.5t-15 12t-22.5 8.5t-32 7.5t-42.5 3.5t-54 1.5h-328v50q16 3 24.5 5.5t16 9.5t7.5 18v293q0 11 -7.5 18t-16 9.5t-24.5 5.5v42h209v-42q-16 -3 -24 -5.5t-15.5 -9.5
t-7.5 -18v-295q0 -33 47 -33h124q43 0 47 27l1 11v290q0 11 -7.5 18t-16 9.5t-24.5 5.5v42h209v-42q-16 -3 -24 -5.5t-15.5 -9.5t-7.5 -18v-289q0 -9 3 -17q6 -12 38 -19q22 -2 40 -2z" />
    <glyph glyph-name="uni0447" unicode="&#x447;" horiz-adv-x="607" 
d="M562 451v-42q-28 -5 -37.5 -11t-9.5 -22v-293q0 -11 7.5 -18t15.5 -9.5t24 -5.5v-50h-209v50q16 3 24.5 5.5t16 9.5t7.5 18v128q-6 -34 -42 -64t-105 -30q-85 0 -130.5 39t-45.5 139v57q0 28 -12 40.5t-46 16.5l11 42h214v-42q-23 -3 -32.5 -5.5t-17.5 -9t-8 -18.5v-71
q0 -56 24.5 -88.5t64.5 -32.5q42 0 77.5 26.5t47.5 51.5v114q0 11 -7.5 18t-16 9.5t-24.5 5.5v42h209z" />
    <glyph glyph-name="uni0448" unicode="&#x448;" horiz-adv-x="871" 
d="M826 451v-42q-16 -3 -24 -5.5t-15.5 -9.5t-7.5 -18v-293q0 -11 7.5 -18t15.5 -9.5t24 -5.5v-50h-781v50q16 3 24.5 5.5t16 9.5t7.5 18v293q0 11 -7.5 18t-16 9.5t-24.5 5.5v42h209v-42q-16 -3 -24 -5.5t-15.5 -9.5t-7.5 -18v-295q0 -33 37 -33h97q38 0 38 35v293
q0 11 -7.5 18t-16 9.5t-24.5 5.5v42h209v-42q-16 -3 -24 -5.5t-15.5 -9.5t-7.5 -18v-295q0 -33 37 -33h97q38 0 38 33v295q0 11 -7.5 18t-16 9.5t-24.5 5.5v42h209z" />
    <glyph glyph-name="uni0449" unicode="&#x449;" horiz-adv-x="916" 
d="M860 49q12 0 11 -12l-24 -172h-43q-11 0 -11 11q0 7 0.5 22.5t0 21t-1.5 17.5t-4.5 16.5t-9.5 13.5t-15 12t-22.5 8.5t-32 7.5t-42.5 3.5t-54 1.5h-567v50q16 3 24.5 5.5t16 9.5t7.5 18v293q0 11 -7.5 18t-16 9.5t-24.5 5.5v42h209v-42q-16 -3 -24 -5.5t-15.5 -9.5
t-7.5 -18v-295q0 -33 37 -33h97q38 0 38 35v293q0 11 -7.5 18t-16 9.5t-24.5 5.5v42h209v-42q-16 -3 -24 -5.5t-15.5 -9.5t-7.5 -18v-295q0 -33 37 -33h87q17 0 29 3q11 3 16 15q3 8 3 20v290q0 11 -7.5 18t-16 9.5t-24.5 5.5v42h209v-42q-16 -3 -24 -5.5t-15.5 -9.5
t-7.5 -18v-289q0 -9 3 -17q6 -12 38 -19q22 -2 40 -2z" />
    <glyph glyph-name="uni044A" unicode="&#x44a;" horiz-adv-x="624" 
d="M296 341h53q118 0 184 -46t66 -124q0 -79 -65.5 -125t-183.5 -46h-216v50q16 3 24.5 5.5t16 9.5t7.5 18v293q0 14 -0.5 18.5t-4.5 9.5t-13 6l-27 -1q-59 -1 -77 -37l-16 -32h-44l24 88q6 23 30 23h242v-110zM333 49h33q54 0 81 32.5t27 89.5q0 126 -129 126h-49v-214
q0 -34 37 -34z" />
    <glyph glyph-name="uni044B" unicode="&#x44b;" horiz-adv-x="804" 
d="M207 341h53q118 0 184 -46t66 -124q0 -79 -65.5 -125t-183.5 -46h-216v50q16 3 24.5 5.5t16 9.5t7.5 18v293q0 11 -7.5 18t-16 9.5t-24.5 5.5v42h209v-42q-28 -5 -37.5 -11t-9.5 -22v-35zM759 451v-42q-28 -5 -37.5 -11t-9.5 -22v-293q0 -11 7.5 -18t15.5 -9.5t24 -5.5
v-50h-209v50q16 3 24.5 5.5t16 9.5t7.5 18v293q0 11 -7.5 18t-16 9.5t-24.5 5.5v42h209zM244 49h33q54 0 81 32.5t27 89.5q0 126 -129 126h-49v-214q0 -34 37 -34z" />
    <glyph glyph-name="uni044C" unicode="&#x44c;" horiz-adv-x="545" 
d="M207 341h53q118 0 184 -46t66 -124q0 -79 -65.5 -125t-183.5 -46h-216v50q16 3 24.5 5.5t16 9.5t7.5 18v293q0 11 -7.5 18t-16 9.5t-24.5 5.5v42h209v-42q-28 -5 -37.5 -11t-9.5 -22v-35zM244 49h33q54 0 81 32.5t27 89.5q0 126 -129 126h-49v-214q0 -34 37 -34z" />
    <glyph glyph-name="uni044D" unicode="&#x44d;" horiz-adv-x="525" 
d="M254 460q98 0 167 -68.5t69 -162.5q0 -107 -70.5 -172t-173.5 -65q-135 0 -187 89q-11 17 -7.5 28t26.5 23q8 5 15 5t12 -2t10.5 -8t8.5 -10t7.5 -11.5t6.5 -10.5q17 -24 36 -33t55 -9q47 0 85.5 39.5t48.5 105.5h-137v60h141q-4 72 -38.5 108t-84.5 36q-42 0 -67.5 -14
t-43.5 -59q-2 -4 -4.5 -11.5l-3.5 -10.5t-4 -8t-5.5 -5.5t-8 -2.5t-11.5 1l-50 11l8 145h35q15 0 18.5 -5t5 -18t7.5 -23q47 58 134 58z" />
    <glyph glyph-name="uni044E" unicode="&#x44e;" horiz-adv-x="786" 
d="M522 458q92 0 163 -61.5t71 -166.5q0 -109 -71.5 -174.5t-162.5 -65.5q-86 0 -155.5 57t-78.5 151h-81v-115q0 -11 7.5 -18t15.5 -9.5t24 -5.5v-50h-209v50q16 3 24.5 5.5t16 9.5t7.5 18v293q0 11 -7.5 18t-16 9.5t-24.5 5.5v42h209v-42q-16 -3 -24 -5.5t-15.5 -9.5
t-7.5 -18v-118h82q12 94 80 147t153 53zM530 61q48 0 72 31t24 100q0 99 -31.5 149.5t-82.5 50.5q-95 0 -95 -132q0 -94 31.5 -146.5t81.5 -52.5z" />
    <glyph glyph-name="uni044F" unicode="&#x44f;" horiz-adv-x="508" 
d="M478 451v-42q-38 0 -38 -40v-287q0 -11 4 -16.5t10 -8t24 -7.5v-50h-209v50q4 1 11.5 3t10.5 3t8.5 3t7.5 4t5 4.5t4 6t1 8.5v108h-44q-32 0 -46.5 -15t-26.5 -60q-13 -50 -38.5 -80.5t-50.5 -34.5h-96v46h13q37 0 51 75q6 31 28.5 55t60.5 30q-120 24 -120 117
q0 59 50.5 93.5t130.5 34.5h249zM317 236v170h-88q-33 0 -49.5 -22.5t-16.5 -60.5q0 -87 72 -87h82z" />
    <glyph glyph-name="uni0450" unicode="&#x450;" horiz-adv-x="500" 
d="M329 581l-101 115q-44 50 -83 10q-21 -26 -11.5 -48.5t37.5 -39.5l130 -78q20 -12 32 5q13 17 -4 36zM470 269q0 -30 -14.5 -49.5t-41.5 -19.5h-255q0 -59 32 -99t92 -40q67 0 117 56l44 -42q-64 -85 -174 -85q-100 0 -170 67t-70 170q0 104 68 167.5t158 63.5
q85 0 149.5 -56t64.5 -133zM159 263h191q0 66 -22.5 97.5t-71.5 31.5q-97 0 -97 -129z" />
    <glyph glyph-name="uni0451" unicode="&#x451;" horiz-adv-x="500" 
d="M138 543q-32 0 -55 23t-23 55t23 54.5t55 22.5t54.5 -23t22.5 -54q0 -32 -22.5 -55t-54.5 -23zM371 543q-32 0 -55 23t-23 55t23 54.5t55 22.5q31 0 54 -23t23 -54q0 -32 -22.5 -55t-54.5 -23zM470 269q0 -30 -14.5 -49.5t-41.5 -19.5h-255q0 -59 32 -99t92 -40
q67 0 117 56l44 -42q-64 -85 -174 -85q-100 0 -170 67t-70 170q0 104 68 167.5t158 63.5q85 0 149.5 -56t64.5 -133zM159 263h191q0 66 -22.5 97.5t-71.5 31.5q-97 0 -97 -129z" />
    <glyph glyph-name="uni0453" unicode="&#x453;" horiz-adv-x="474" 
d="M317 618l-130 -78q-20 -12 -32 5q-13 17 4 36l101 115q44 50 83 10q21 -26 11.5 -48.5t-37.5 -39.5zM425 428l24 -93l-54 -2l-16 33q-20 40 -80 40h-48q-17 0 -25 -0.5t-17 -2.5t-12.5 -7t-3.5 -14v-299q0 -16 15 -22.5t53 -10.5v-50h-246v50q31 4 44.5 10.5t13.5 22.5
v298q0 28 -58 28v42h380q24 0 30 -23z" />
    <glyph glyph-name="uni0454" unicode="&#x454;" horiz-adv-x="525" 
d="M447 132q23 -12 26.5 -23t-7.5 -28q-52 -89 -187 -89q-103 0 -173.5 65t-70.5 172q0 94 69 162.5t167 68.5q87 0 134 -58q5 8 7 18t2 15t5 9t17 4h35l8 -145l-50 -11q-6 -3 -11.5 -1t-8 2.5t-5.5 5.5t-4 8l-3.5 10.5t-4.5 11.5q-18 45 -43.5 59t-67.5 14q-50 0 -84.5 -36
t-38.5 -108h141v-60h-137q10 -66 48.5 -105.5t85.5 -39.5q36 0 55 9t36 33q2 3 6.5 10.5t7.5 11.5t8.5 10t10.5 8t12 2t15 -5z" />
    <glyph glyph-name="uni0455" unicode="&#x455;" horiz-adv-x="463" 
d="M433 124q0 -61 -58.5 -97.5t-145.5 -36.5q-70 0 -128.5 26t-65.5 46q-30 92 23 99q32 5 48 -5.5t19 -27.5q7 -43 30.5 -60t73.5 -17q44 0 67.5 18t23.5 40q0 35 -106 68q-28 9 -44 14.5t-44 19t-44 28t-28.5 38.5t-12.5 52q0 60 48.5 96t138.5 36q65 0 122.5 -27.5
t59.5 -46.5q4 -49 -5.5 -65.5t-34.5 -18.5q-29 -2 -41.5 6.5t-9.5 24.5q5 28 -21 49t-70 21q-35 0 -55 -16t-20 -38q0 -10 4 -18t9.5 -13.5t17 -10.5t19 -7.5t23.5 -7.5t24 -7q88 -28 122 -51q61 -42 61 -111z" />
    <glyph glyph-name="uni0456" unicode="&#x456;" horiz-adv-x="286" 
d="M132 522q-31 0 -52.5 21.5t-21.5 52.5q0 30 21.5 51.5t52.5 21.5q30 0 51.5 -21.5t21.5 -51.5q0 -31 -21.5 -52.5t-51.5 -21.5zM203 420v-342q0 -28 43 -28v-50h-207v50q44 0 44 28v282q0 17 -6.5 24t-21.5 7h-20v51l136 9q32 3 32 -31z" />
    <glyph glyph-name="uni0457" unicode="&#x457;" horiz-adv-x="286" 
d="M4 543q-32 0 -55 23t-23 55t23 54.5t55 22.5t54.5 -23t22.5 -54q0 -32 -22.5 -55t-54.5 -23zM237 543q-32 0 -55 23t-23 55t23 54.5t55 22.5q31 0 54 -23t23 -54q0 -32 -22.5 -55t-54.5 -23zM203 420v-342q0 -28 43 -28v-50h-207v50q44 0 44 28v282q0 17 -6.5 24t-21.5 7
h-20v51l136 9q32 3 32 -31z" />
    <glyph glyph-name="uni0458" unicode="&#x458;" horiz-adv-x="294" 
d="M161 522q-31 0 -52.5 21.5t-21.5 52.5q0 30 21.5 51.5t52.5 21.5q30 0 51.5 -21.5t21.5 -51.5q0 -31 -21.5 -52.5t-51.5 -21.5zM64 442l136 9q32 3 32 -31v-494q0 -88 -89 -125q-58 -23 -107.5 -9.5t-74.5 54.5q-15 23 -10.5 51.5t29.5 41.5q30 12 49 3t28 -32
q6 -14 11 -37t8.5 -33t11.5 -7q24 10 24 50v477q0 17 -6.5 24t-21.5 7h-20v51z" />
    <glyph glyph-name="uni045E" unicode="&#x45e;" horiz-adv-x="588" 
d="M308 541q-62 0 -103 37.5t-44 101.5q0 11 10 11h39q10 0 11 -11q3 -22 27 -35.5t60 -13.5t60 13.5t27 35.5q1 11 11 11h39q10 0 10 -11q-3 -64 -44 -101.5t-103 -37.5zM568 451v-40l-14 -6q-4 -2 -10.5 -4.5t-10.5 -4t-8.5 -4t-7.5 -6t-5 -8.5l-209 -462q-30 -67 -64 -99
t-90 -32q-117 0 -135 66q-9 35 6 57.5t52 22.5q27 0 40 -13.5t14.5 -30.5t8.5 -30.5t22 -13.5q5 0 9 1.5t8 4.5t7.5 6.5t7.5 9t6.5 10t6.5 11.5t6 11.5t6 13t6 12.5l38 77l-195 378q-10 19 -33 27l-18 6v40h228v-40l-25 -5q-32 -6 -22 -28l129 -266l111 266q4 10 -3 17.5
t-20 10.5l-28 5v40h186z" />
    <glyph glyph-name="uni0490" unicode="&#x490;" horiz-adv-x="504" 
d="M435 695h44v-115q0 -10 -9.5 -16.5t-20.5 -6.5h-205q-36 -2 -36 -24v-435q0 -16 15 -26t53 -22v-50h-261v50q38 12 53 22t15 26v425q0 33 -68 48v50h324q59 0 80 41z" />
    <glyph glyph-name="uni0491" unicode="&#x491;" horiz-adv-x="429" 
d="M350 525h54v-87q0 -14 -11.5 -23t-25.5 -9h-142q-32 -3 -32 -24v-299q0 -16 15 -22.5t53 -10.5v-50h-246v50q31 4 44.5 10.5t13.5 22.5v298q0 28 -58 28v42h239q60 0 80 41z" />
    <glyph glyph-name="Wgrave" unicode="&#x1e80;" horiz-adv-x="979" 
d="M540 710l-130 78q-28 17 -37.5 39.5t11.5 48.5q39 40 83 -10l101 -115q17 -19 4 -36q-12 -17 -32 -5zM770 621h194v-56q-31 -3 -44 -14t-24 -40l-183 -516h-39q-22 0 -32 24l-146 368l-139 -392h-39q-22 0 -32 24l-185 467q-19 49 -35.5 62.5t-50.5 16.5v56h256v-56
q-33 -3 -45 -9t-8 -19l137 -368l105 308l-3 9q-19 49 -35.5 62.5t-50.5 16.5v56h256v-56q-33 -3 -45 -9t-8 -19l137 -368l122 358q10 30 -63 38v56z" />
    <glyph glyph-name="wgrave" unicode="&#x1e81;" horiz-adv-x="816" 
d="M459 540l-130 78q-28 17 -37.5 39.5t11.5 48.5q39 40 83 -10l101 -115q17 -19 4 -36q-12 -17 -32 -5zM603 412v39q101 -4 203 0v-39l-23 -8q-12 -4 -19.5 -8t-22 -22.5t-25.5 -48.5l-124 -324h-61q-32 0 -43 31l-83 225l-98 -256h-61q-32 0 -43 31l-109 295
q-24 64 -58 77l-21 8v39q111 -3 221 0v-39l-20 -8q-17 -7 -18 -17.5t15 -59.5l77 -230l77 259q-19 38 -46 48l-21 8v39q110 -3 221 0v-39l-20 -8q-17 -7 -18 -17.5t15 -59.5l77 -230l65 227q12 50 8.5 61.5t-23.5 18.5z" />
    <glyph glyph-name="Wacute" unicode="&#x1e82;" horiz-adv-x="979" 
d="M615 788l-130 -78q-20 -12 -32 5q-13 17 4 36l101 115q44 50 83 10q21 -26 11.5 -48.5t-37.5 -39.5zM770 621h194v-56q-31 -3 -44 -14t-24 -40l-183 -516h-39q-22 0 -32 24l-146 368l-139 -392h-39q-22 0 -32 24l-185 467q-19 49 -35.5 62.5t-50.5 16.5v56h256v-56
q-33 -3 -45 -9t-8 -19l137 -368l105 308l-3 9q-19 49 -35.5 62.5t-50.5 16.5v56h256v-56q-33 -3 -45 -9t-8 -19l137 -368l122 358q10 30 -63 38v56z" />
    <glyph glyph-name="wacute" unicode="&#x1e83;" horiz-adv-x="816" 
d="M534 618l-130 -78q-20 -12 -32 5q-13 17 4 36l101 115q44 50 83 10q21 -26 11.5 -48.5t-37.5 -39.5zM603 412v39q101 -4 203 0v-39l-23 -8q-12 -4 -19.5 -8t-22 -22.5t-25.5 -48.5l-124 -324h-61q-32 0 -43 31l-83 225l-98 -256h-61q-32 0 -43 31l-109 295q-24 64 -58 77
l-21 8v39q111 -3 221 0v-39l-20 -8q-17 -7 -18 -17.5t15 -59.5l77 -230l77 259q-19 38 -46 48l-21 8v39q110 -3 221 0v-39l-20 -8q-17 -7 -18 -17.5t15 -59.5l77 -230l65 227q12 50 8.5 61.5t-23.5 18.5z" />
    <glyph glyph-name="Wdieresis" unicode="&#x1e84;" horiz-adv-x="979" 
d="M377 713q-32 0 -55 23t-23 55t23 54.5t55 22.5q31 0 54 -23t23 -54q0 -32 -22.5 -55t-54.5 -23zM610 713q-32 0 -55 23t-23 55t23 54.5t55 22.5t54.5 -23t22.5 -54q0 -32 -22.5 -55t-54.5 -23zM770 621h194v-56q-31 -3 -44 -14t-24 -40l-183 -516h-39q-22 0 -32 24
l-146 368l-139 -392h-39q-22 0 -32 24l-185 467q-19 49 -35.5 62.5t-50.5 16.5v56h256v-56q-33 -3 -45 -9t-8 -19l137 -368l105 308l-3 9q-19 49 -35.5 62.5t-50.5 16.5v56h256v-56q-33 -3 -45 -9t-8 -19l137 -368l122 358q10 30 -63 38v56z" />
    <glyph glyph-name="wdieresis" unicode="&#x1e85;" horiz-adv-x="816" 
d="M296 543q-32 0 -55 23t-23 55t23 54.5t55 22.5t54.5 -23t22.5 -54q0 -32 -22.5 -55t-54.5 -23zM529 543q-32 0 -55 23t-23 55t23 54.5t55 22.5q31 0 54 -23t23 -54q0 -32 -22.5 -55t-54.5 -23zM603 412v39q101 -4 203 0v-39l-23 -8q-12 -4 -19.5 -8t-22 -22.5
t-25.5 -48.5l-124 -324h-61q-32 0 -43 31l-83 225l-98 -256h-61q-32 0 -43 31l-109 295q-24 64 -58 77l-21 8v39q111 -3 221 0v-39l-20 -8q-17 -7 -18 -17.5t15 -59.5l77 -230l77 259q-19 38 -46 48l-21 8v39q110 -3 221 0v-39l-20 -8q-17 -7 -18 -17.5t15 -59.5l77 -230
l65 227q12 50 8.5 61.5t-23.5 18.5z" />
    <glyph glyph-name="Etilde" unicode="&#x1ebc;" horiz-adv-x="621" 
d="M432 826h63q-4 -53 -40 -85.5t-93 -32.5q-32 0 -59.5 17t-49.5 34t-41 17t-31 -11t-15.5 -21.5t-1.5 -15.5h-52q-13 48 25 81t91 33q43 0 84 -29t69 -29q23 0 38 15.5t13 26.5zM524 128h62q-12 -23 -32 -105q-6 -23 -30 -23h-489v54q64 10 64 44v425q0 34 -64 44v54h473
q10 0 13.5 -3.5t3.5 -14.5v-113h-54l-15 33q-9 19 -26 24t-54 5h-142v-202h161q23 0 31.5 8t19.5 35h31v-153h-31q-11 27 -19.5 35.5t-31.5 8.5h-161v-215l197 2q28 0 41.5 4t25.5 20z" />
    <glyph glyph-name="etilde" unicode="&#x1ebd;" horiz-adv-x="500" 
d="M390 656h63q-4 -53 -40 -85.5t-93 -32.5q-32 0 -59.5 17t-49.5 34t-41 17t-31 -11t-15.5 -21.5t-1.5 -15.5h-52q-13 48 25 81t91 33q43 0 84 -29t69 -29q23 0 38 15.5t13 26.5zM470 269q0 -30 -14.5 -49.5t-41.5 -19.5h-255q0 -59 32 -99t92 -40q67 0 117 56l44 -42
q-64 -85 -174 -85q-100 0 -170 67t-70 170q0 104 68 167.5t158 63.5q85 0 149.5 -56t64.5 -133zM159 263h191q0 66 -22.5 97.5t-71.5 31.5q-97 0 -97 -129z" />
    <glyph glyph-name="Ygrave" unicode="&#x1ef2;" horiz-adv-x="651" 
d="M392 710l-130 78q-28 17 -37.5 39.5t11.5 48.5q39 40 83 -10l101 -115q17 -19 4 -36q-12 -17 -32 -5zM443 621h193v-57q-29 -3 -45 -15.5t-39 -43.5l-163 -217v-195q0 -8 5.5 -14t18 -9.5t22 -5t27.5 -4.5v-60h-267v60q19 3 28 4.5t22 5t18.5 9.5t5.5 14v169l-161 218
q-7 9 -18 24.5t-15 21.5t-12 15t-14 12t-14.5 6.5t-19.5 4.5v57h244v-57q-23 -4 -34.5 -13t-2.5 -20l138 -186l131 176q13 18 -1.5 28.5t-46.5 14.5v57z" />
    <glyph glyph-name="ygrave" unicode="&#x1ef3;" horiz-adv-x="588" 
d="M381 581l-101 115q-44 50 -83 10q-21 -26 -11.5 -48.5t37.5 -39.5l130 -78q20 -12 32 5q13 17 -4 36zM568 451v-40l-14 -6q-4 -2 -10.5 -4.5t-10.5 -4t-8.5 -4t-7.5 -6t-5 -8.5l-209 -462q-30 -67 -64 -99t-90 -32q-117 0 -135 66q-9 35 6 57.5t52 22.5q27 0 40 -13.5
t14.5 -30.5t8.5 -30.5t22 -13.5q5 0 9 1.5t8 4.5t7.5 6.5t7.5 9t6.5 10t6.5 11.5t6 11.5t6 13t6 12.5l38 77l-195 378q-10 19 -33 27l-18 6v40h228v-40l-25 -5q-32 -6 -22 -28l129 -266l111 266q4 10 -3 17.5t-20 10.5l-28 5v40h186z" />
    <glyph glyph-name="endash" unicode="&#x2013;" horiz-adv-x="667" 
d="M30 287h582v-73h-582v73z" />
    <glyph glyph-name="emdash" unicode="&#x2014;" horiz-adv-x="889" 
d="M25 287h819v-73h-819v73z" />
    <glyph glyph-name="uni2015" unicode="&#x2015;" horiz-adv-x="889" 
d="M25 287h819v-73h-819v73z" />
    <glyph glyph-name="quoteleft" unicode="&#x2018;" horiz-adv-x="208" 
d="M48 568q17 56 60 93q12 8 21 -2l21 -24q-33 -37 -39 -53q-10 -27 -6 -43q10 2 29 1q24 -3 40.5 -25t12.5 -49q-3 -29 -26 -46.5t-51 -14.5q-27 3 -44.5 22.5t-21.5 45.5q-9 49 4 95z" />
    <glyph glyph-name="quoteright" unicode="&#x2019;" horiz-adv-x="208" 
d="M160 503q-17 -56 -60 -93q-12 -8 -21 2l-21 24q33 37 39 53q10 27 6 43q-10 -2 -29 -1q-24 3 -40.5 25t-12.5 49q3 29 26 46.5t51 14.5q27 -3 44.5 -22.5t21.5 -45.5q9 -49 -4 -95z" />
    <glyph glyph-name="quotesinglbase" unicode="&#x201a;" horiz-adv-x="230" 
d="M186 -37q-17 -56 -60 -93q-12 -8 -21 2l-21 24q33 37 39 53q10 27 6 43q-10 -2 -29 -1q-24 3 -40.5 25t-12.5 49q3 29 26 46.5t51 14.5q27 -3 44.5 -22.5t21.5 -45.5q9 -49 -4 -95z" />
    <glyph glyph-name="quotedblleft" unicode="&#x201c;" horiz-adv-x="383" 
d="M29 568q17 56 60 93q12 8 21 -2l21 -24q-33 -37 -39 -53q-10 -27 -6 -43q10 2 29 1q24 -3 40.5 -25t12.5 -49q-3 -29 -26 -46.5t-51 -14.5q-27 3 -44.5 22.5t-21.5 45.5q-9 49 4 95zM203 568q17 56 60 93q12 8 21 -2l21 -24q-33 -37 -39 -53q-10 -27 -6 -43q10 2 29 1
q24 -3 40.5 -25t12.5 -49q-3 -29 -26 -46.5t-51 -14.5q-27 3 -44.5 22.5t-21.5 45.5q-9 49 4 95z" />
    <glyph glyph-name="quotedblright" unicode="&#x201d;" horiz-adv-x="382" 
d="M180 503q-17 -56 -60 -93q-12 -8 -21 2l-21 24q33 37 39 53q10 27 6 43q-10 -2 -29 -1q-24 3 -40.5 25t-12.5 49q3 29 26 46.5t51 14.5q27 -3 44.5 -22.5t21.5 -45.5q9 -49 -4 -95zM354 503q-17 -56 -60 -93q-12 -8 -21 2l-21 24q33 37 39 53q10 27 6 43q-10 -2 -29 -1
q-24 3 -40.5 25t-12.5 49q3 29 26 46.5t51 14.5q27 -3 44.5 -22.5t21.5 -45.5q9 -49 -4 -95z" />
    <glyph glyph-name="quotedblbase" unicode="&#x201e;" horiz-adv-x="392" 
d="M186 -37q-17 -56 -60 -93q-12 -8 -21 2l-21 24q33 37 39 53q10 27 6 43q-10 -2 -29 -1q-24 3 -40.5 25t-12.5 49q3 29 26 46.5t51 14.5q27 -3 44.5 -22.5t21.5 -45.5q9 -49 -4 -95zM348 -37q-17 -56 -60 -93q-12 -8 -21 2l-21 24q33 37 39 53q10 27 6 43q-10 -2 -29 -1
q-24 3 -40.5 25t-12.5 49q3 29 26 46.5t51 14.5q27 -3 44.5 -22.5t21.5 -45.5q9 -49 -4 -95z" />
    <glyph glyph-name="dagger" unicode="&#x2020;" horiz-adv-x="546" 
d="M404 514q28 0 47 -18.5t19 -44.5t-19 -44.5t-47 -18.5q-16 0 -48.5 17.5t-53.5 20.5l2 -33l50 -49l-65 -217h-32l-65 217l50 49l2 33q-21 -3 -53.5 -20.5t-48.5 -17.5q-28 0 -47 18.5t-19 44.5t19 44.5t47 18.5q16 0 49 -18t55 -21q-1 25 -20 58.5t-19 46.5q0 26 19 44.5
t47 18.5t47 -18.5t19 -44.5q0 -13 -19 -46.5t-20 -58.5q22 3 55 21t49 18z" />
    <glyph glyph-name="daggerdbl" unicode="&#x2021;" horiz-adv-x="555" 
d="M404 214q28 0 47 -18.5t19 -44.5t-19 -44.5t-47 -18.5q-16 0 -50 19t-56 22q2 -25 21.5 -59t19.5 -48q0 -26 -19 -44.5t-47 -18.5t-47 18.5t-19 44.5q0 14 19.5 48t21.5 59q-22 -3 -56 -22t-50 -19q-28 0 -47 18.5t-19 44.5t19 44.5t47 18.5q16 0 50 -19t56 -22v30
l-56 99l56 97v30q-22 -3 -56 -22t-50 -19q-28 0 -47 18.5t-19 44.5t19 44.5t47 18.5q16 0 50 -19t56 -22q-2 25 -21.5 59t-19.5 48q0 26 19 44.5t47 18.5t47 -18.5t19 -44.5q0 -14 -19.5 -48t-21.5 -59q22 3 56 22t50 19q28 0 47 -18.5t19 -44.5t-19 -44.5t-47 -18.5
q-16 0 -50 19t-56 22v-30l56 -98l-56 -98v-30q22 3 56 22t50 19z" />
    <glyph glyph-name="bullet" unicode="&#x2022;" horiz-adv-x="376" 
d="M188 164q-53 0 -90.5 37.5t-37.5 90.5t37.5 90.5t90.5 37.5t90.5 -37.5t37.5 -90.5t-37.5 -90.5t-90.5 -37.5z" />
    <glyph glyph-name="ellipsis" unicode="&#x2026;" horiz-adv-x="636" 
d="M123 -10q-28 0 -48 20.5t-20 48.5t20 48t48 20t48 -20t20 -48t-20 -48.5t-48 -20.5zM318 -10q-28 0 -48 20.5t-20 48.5t20 48t48 20t48 -20t20 -48t-20 -48.5t-48 -20.5zM513 -10q-28 0 -48 20.5t-20 48.5t20 48t48 20t48 -20t20 -48t-20 -48.5t-48 -20.5z" />
    <glyph glyph-name="perthousand" unicode="&#x2030;" horiz-adv-x="1048" 
d="M540 636h82l-432 -641h-112l427 592q-96 -80 -163 -58q-3 -22 -3 -23q-13 -63 -57.5 -100.5t-111.5 -37.5q-61 0 -90 42t-17 96q12 56 58 96.5t114 40.5q39 0 66 -21q33 -16 59 -23.5t76.5 -1t103.5 38.5zM255 506q8 28 0.5 58.5t-34.5 30.5q-31 0 -52 -28t-28 -61
q-7 -35 1.5 -62t39.5 -27q28 0 47.5 27.5t25.5 61.5zM544 264q59 0 87 -43t17 -94q-13 -63 -57.5 -100.5t-111.5 -37.5q-61 0 -90 42t-17 96q12 56 58 96.5t114 40.5zM871 264q59 0 87 -43t17 -94q-13 -63 -57.5 -100.5t-111.5 -37.5q-61 0 -90 42t-17 96q12 56 58 96.5
t114 40.5zM564 127q8 28 0.5 58.5t-34.5 30.5q-31 0 -52 -28t-28 -61q-7 -35 1.5 -62t39.5 -27q28 0 47.5 27.5t25.5 61.5zM891 127q8 28 0.5 58.5t-34.5 30.5q-31 0 -52 -28t-28 -61q-7 -35 1.5 -62t39.5 -27q28 0 47.5 27.5t25.5 61.5z" />
    <glyph glyph-name="guilsinglleft" unicode="&#x2039;" horiz-adv-x="272" 
d="M55 229l192 174v-83l-62 -91l62 -91v-83z" />
    <glyph glyph-name="guilsinglright" unicode="&#x203a;" horiz-adv-x="272" 
d="M217 229l-192 -174v83l62 91l-62 91v83z" />
    <glyph glyph-name="fraction" unicode="&#x2044;" horiz-adv-x="180" 
d="M277 636h78l-432 -641h-78z" />
    <glyph glyph-name="Euro" unicode="&#x20ac;" horiz-adv-x="744" 
d="M698 143q2 -12 -10 -34q-72 -124 -244 -124q-99 0 -183 57.5t-118 159.5h-112l14 69h83q-3 24 -3 51v19h-70l14 69h66q26 104 106 165.5t183 61.5q113 0 179 -82q21 0 29 49q3 17 19 17h34l11 -187l-59 -19q-17 -5 -23 11q-2 6 -14 36q-44 108 -150 108q-65 0 -109.5 -40
t-59.5 -120h198l-14 -69h-191v-13q0 -27 5 -57h176l-14 -69h-143q25 -62 72 -99t105 -37q88 0 141 68q5 6 11.5 15.5t10 13.5t8.5 8t10 4q11 0 26 -10.5t16 -21.5z" />
    <glyph glyph-name="trademark" unicode="&#x2122;" horiz-adv-x="630" 
d="M38 621h199q6 0 10.5 -4t4.5 -9l3 -48h-22l-8 16q-4 8 -13 8h-45v-155q0 -10 26 -10v-25h-111v25q25 0 25 10v155h-44q-9 0 -13 -8l-8 -16h-22l3 48q0 5 4.5 9t10.5 4zM606 621v-24q-11 -4 -14 -7t-3 -12v-145q0 -8 3 -10t18 -6v-23h-98v23q14 4 18 6.5t4 9.5v110
l-77 -125q-5 -11 -14 -11t-15 11l-86 126v-111q0 -7 4 -9.5t18 -6.5v-23h-82v23q15 4 18.5 6.5t3.5 9.5v145q0 9 -4 12t-18 6v25h76l91 -138l90 138h67z" />
    <glyph glyph-name="oneeighth" unicode="&#x215b;" horiz-adv-x="694" 
d="M134 625v-182q0 -16 29 -18v-33h-121v33q29 2 29 18v143l-31 -10v39l56 25q13 6 26 0t12 -15zM475 636h78l-432 -641h-78zM589 133q23 -6 38 -25t15 -44q0 -31 -29 -53t-79 -22t-77 22t-27 58q0 22 14 40.5t35 21.5q-35 14 -35 50q0 25 24 44t66 19q40 0 65.5 -18.5
t25.5 -43.5q0 -35 -36 -49zM530 153l20 -4q8 -1 15 10.5t7 21.5q0 31 -37 31q-16 0 -23.5 -9.5t-7.5 -20.5q0 -24 26 -29zM574 65q0 30 -37 38l-29 6q-8 1 -14.5 -12t-6.5 -29q0 -18 12.5 -32t34.5 -14q40 0 40 43z" />
    <glyph glyph-name="threeeighths" unicode="&#x215c;" horiz-adv-x="785" 
d="M223 538q49 -16 49 -66q0 -38 -30 -63.5t-79 -25.5q-47 0 -75 23.5t-28 55.5q0 25 27 25q15 0 21 -5.5t8 -20t3 -17.5q10 -28 43 -28q21 0 34.5 15.5t12.5 33.5q1 31 -19.5 37t-46.5 -8l-15 30l24 11q36 13 36 44q0 29 -32 29q-19 0 -26.5 -18.5t-1.5 -38.5l-48 6
q-12 5 -12 14q-1 31 23.5 51t68.5 20t68.5 -19.5t24.5 -41.5q0 -29 -30 -43zM559 636h78l-432 -641h-78zM653 133q23 -6 38 -25t15 -44q0 -31 -29 -53t-79 -22t-77 22t-27 58q0 22 14 40.5t35 21.5q-35 14 -35 50q0 25 24 44t66 19q40 0 65.5 -18.5t25.5 -43.5
q0 -35 -36 -49zM594 153l20 -4q8 -1 15 10.5t7 21.5q0 31 -37 31q-16 0 -23.5 -9.5t-7.5 -20.5q0 -24 26 -29zM638 65q0 30 -37 38l-29 6q-8 1 -14.5 -12t-6.5 -29q0 -18 12.5 -32t34.5 -14q40 0 40 43z" />
    <glyph glyph-name="fiveeighths" unicode="&#x215d;" horiz-adv-x="760" 
d="M275 481q0 -42 -30 -67t-79 -25t-76.5 20.5t-29.5 57.5q-1 11 7 20t24 9q13 0 20.5 -5t9.5 -10.5t4 -16t3 -14.5q9 -29 38 -29q15 0 27.5 15.5t12.5 40.5q0 21 -14.5 37.5t-32.5 16.5q-15 0 -51 -14h-34l10 125h133l7 5h26l-3 -44l-12 -10h-110l-3 -38q22 16 57 16
q34 0 65 -25t31 -65zM558 636h78l-432 -641h-78zM652 133q23 -6 38 -25t15 -44q0 -31 -29 -53t-79 -22t-77 22t-27 58q0 22 14 40.5t35 21.5q-35 14 -35 50q0 25 24 44t66 19q40 0 65.5 -18.5t25.5 -43.5q0 -35 -36 -49zM593 153l20 -4q8 -1 15 10.5t7 21.5q0 31 -37 31
q-16 0 -23.5 -9.5t-7.5 -20.5q0 -24 26 -29zM637 65q0 30 -37 38l-29 6q-8 1 -14.5 -12t-6.5 -29q0 -18 12.5 -32t34.5 -14q40 0 40 43z" />
    <glyph glyph-name="seveneighths" unicode="&#x215e;" horiz-adv-x="719" 
d="M192 591h-91l-6 -17h-40l12 52q3 14 21 14h176l-125 -250h-22q-13 0 -19 9t1 22zM533 636h78l-432 -641h-78zM627 133q23 -6 38 -25t15 -44q0 -31 -29 -53t-79 -22t-77 22t-27 58q0 22 14 40.5t35 21.5q-35 14 -35 50q0 25 24 44t66 19q40 0 65.5 -18.5t25.5 -43.5
q0 -35 -36 -49zM568 153l20 -4q8 -1 15 10.5t7 21.5q0 31 -37 31q-16 0 -23.5 -9.5t-7.5 -20.5q0 -24 26 -29zM612 65q0 30 -37 38l-29 6q-8 1 -14.5 -12t-6.5 -29q0 -18 12.5 -32t34.5 -14q40 0 40 43z" />
    <glyph glyph-name="partialdiff" unicode="&#x2202;" horiz-adv-x="579" 
d="M143 557l-16 24q-7 11 2 18q50 37 132 37q128 0 199.5 -98.5t72.5 -244.5q1 -135 -63 -220t-187 -85q-102 0 -170 61t-68 147q0 93 65 149t154 56q49 0 87 -22t56 -44q-4 55 -11 91.5t-22.5 71.5t-44.5 52.5t-73 17.5q-56 0 -95 -14q-13 -6 -18 3zM405 261q-1 18 -39 43
t-92 25q-47 0 -77 -36.5t-30 -93.5q0 -59 26 -100t90 -41q62 0 94.5 57.5t27.5 145.5z" />
    <glyph glyph-name="emptyset" unicode="&#x2205;" horiz-adv-x="554" 
d="M457 432l-20 -27q82 -65 82 -175q0 -57 -22 -104t-57.5 -75t-77.5 -43.5t-84 -15.5q-69 0 -128 34l-19 -26l-40 30l18 24q-74 67 -74 168q0 76 38.5 132t92.5 81t112 25q61 0 116 -28l23 30zM157 242q0 -52 21 -97l160 212q-31 29 -70 29q-48 0 -79.5 -36.5t-31.5 -107.5
zM288 64q47 0 78.5 36.5t31.5 109.5q0 59 -28 107l-163 -216q35 -37 81 -37z" />
    <glyph glyph-name="product" unicode="&#x220f;" horiz-adv-x="648" 
d="M70 800h508v-1000h-79v921h-350v-921h-79v1000z" />
    <glyph glyph-name="summation" unicode="&#x2211;" horiz-adv-x="570" 
d="M500 800v-79h-329l289 -422l-289 -420h329v-79h-430v79l290 421l-290 421v79h430z" />
    <glyph glyph-name="minus" unicode="&#x2212;" horiz-adv-x="510" 
d="M70 291h370v-79h-370v79z" />
    <glyph glyph-name="radical" unicode="&#x221a;" horiz-adv-x="801" 
d="M376 -200h-77q-21 0 -32 24l-128 288q-27 62 -68 77l-21 8v54q79 -5 158 -2l144 -309l310 861h139v-54l-27 -8q-41 -11 -67 -79z" />
    <glyph glyph-name="infinity" unicode="&#x221e;" horiz-adv-x="745" 
d="M393 160q-12 -50 -54.5 -78.5t-105.5 -28.5q-72 0 -122.5 55t-50.5 139q0 85 52 141t128 56q52 0 95 -26.5t55 -75.5q27 88 141 88q69 0 111.5 -51t42.5 -132q0 -85 -42.5 -136.5t-114.5 -51.5q-49 0 -89 26.5t-46 74.5zM233 144q51 0 81.5 15.5t38.5 62.5l11 66
q5 28 -38 48t-87 20q-54 0 -89 -28t-35 -81q0 -50 34.5 -76.5t83.5 -26.5zM422 273l-9 -57q-6 -34 31.5 -54.5t81.5 -20.5q107 0 107 106q0 42 -32.5 69.5t-76.5 27.5q-37 0 -66.5 -18t-35.5 -53z" />
    <glyph glyph-name="integral" unicode="&#x222b;" horiz-adv-x="501" 
d="M479 726q8 -17 1.5 -38t-25.5 -28q-35 -14 -51 20q-1 1 -5.5 14.5t-8.5 20.5t-14.5 14.5t-25.5 7.5q-25 0 -34 -18.5t-9 -55.5v-699q0 -87 -38 -133t-105 -46q-95 0 -140 74q-10 17 -4 36t25 27q37 16 54 -17q2 -3 6.5 -15t8.5 -20t14.5 -15t25.5 -7q25 0 34 18.5t9 55.5
v699q0 87 38 133t105 46q55 0 90.5 -21t48.5 -53z" />
    <glyph glyph-name="approxequal" unicode="&#x2248;" horiz-adv-x="585" 
d="M514 393h-51q-15 0 -36.5 -22.5t-38.5 -22.5q-27 0 -77 30.5t-97 30.5q-52 0 -91 -33.5t-53 -86.5h53q23 0 39.5 25.5t33.5 25.5q16 0 36 -11t38.5 -24.5t47.5 -24.5t59 -11q45 0 86.5 34.5t50.5 89.5zM514 223h-51q-15 0 -36.5 -22.5t-38.5 -22.5q-27 0 -77 30.5
t-97 30.5q-52 0 -91 -33.5t-53 -86.5h53q23 0 39.5 25.5t33.5 25.5q16 0 36 -11t38.5 -24.5t47.5 -24.5t59 -11q45 0 86.5 34.5t50.5 89.5z" />
    <glyph glyph-name="notequal" unicode="&#x2260;" horiz-adv-x="510" 
d="M440 302h-121l-42 -101h163v-79h-196l-51 -122h-83l51 122h-91v79h124l42 101h-166v79h199l48 115h83l-48 -115h88v-79z" />
    <glyph glyph-name="lessequal" unicode="&#x2264;" horiz-adv-x="515" 
d="M70 293v79q205 78 375 171v-93q-139 -72 -282 -117q86 -28 144.5 -52.5t137.5 -65.5v-93q-170 93 -375 171zM445 70v-79h-370v79h370z" />
    <glyph glyph-name="greaterequal" unicode="&#x2265;" horiz-adv-x="515" 
d="M445 372v-79q-205 -78 -375 -171v93q79 41 137.5 65.5t144.5 52.5q-143 45 -282 117v93q170 -93 375 -171zM70 70h370v-79h-370v79z" />
    <glyph glyph-name="lozenge" unicode="&#x25ca;" horiz-adv-x="412" 
d="M377 310l-130 -310h-82l-130 310l130 311h82zM301 310l-95 247l-95 -247l95 -247z" />
    <glyph glyph-name="i.loclTRK" horiz-adv-x="286" 
d="M133 541q-31 0 -52.5 21.5t-21.5 52.5q0 30 21.5 51.5t52.5 21.5q30 0 51.5 -21.5t21.5 -51.5q0 -31 -21.5 -52.5t-51.5 -21.5zM203 420v-342q0 -28 43 -28v-50h-207v50q44 0 44 28v282q0 17 -6.5 24t-21.5 7h-20v51l136 9q32 3 32 -31z" />
    <glyph glyph-name="f_b" horiz-adv-x="935" 
d="M691 458q89 0 148 -62t59 -169q0 -106 -64.5 -170.5t-145.5 -64.5q-53 0 -91 30t-50 63l-30 -63q-5 -11 -15.5 -18t-22 -8t-22 2t-17 10t-6.5 16v462q0 49 -45.5 87.5t-103.5 38.5q-28 0 -46 -11t-25 -33t-8.5 -38t-1.5 -44v-29h140q-15 -46 -25 -59t-27 -13h-88v-308
q0 -17 9.5 -22.5t42.5 -5.5v-49h-226v49q30 0 43 6t13 22v308h-43q-10 0 -10 10v62h53v17q0 87 49 140t150 53q80 0 164 -21l81 11q24 3 24 -19v-156q0 -57 -16 -124l17 22q55 78 136 78zM683 62q37 0 62 39.5t25 112.5q0 71 -23.5 116.5t-62.5 45.5q-74 0 -129 -53v-171
q15 -41 47.5 -65.5t80.5 -24.5z" />
    <glyph glyph-name="f_h" horiz-adv-x="957" 
d="M877 286v-177q0 -28 12.5 -39.5t47.5 -3.5l-13 -56q-28 -10 -79 -10q-43 0 -66 20.5t-23 51.5v189q0 62 -12.5 90.5t-54.5 28.5q-63 0 -133 -82q-2 -3 -3 -4v-216q0 -16 11.5 -22t38.5 -6v-50h-217v50q25 0 36 5.5t11 22.5v422q-7 45 -50.5 78.5t-97.5 33.5
q-28 0 -46 -11t-25 -33t-8.5 -38t-1.5 -44v-29h140q-15 -46 -25 -59t-27 -13h-88v-308q0 -17 9.5 -22.5t42.5 -5.5v-49h-226v49q36 0 46 5.5t10 22.5v308h-43q-10 0 -10 10v62h53v17q0 87 49 140t150 53q81 0 165 -21l74 8q25 3 28.5 -19t-3.5 -55v-201l-4 -29
q65 112 166 112q166 0 166 -176z" />
    <glyph glyph-name="f_j" horiz-adv-x="620" 
d="M272 385h-68v-308q0 -17 9.5 -22.5t42.5 -5.5v-49h-226v49q36 0 46 5.5t10 22.5v308h-43q-10 0 -10 10v62h53v17q0 87 56.5 140t171.5 53q103 0 169.5 -35t66.5 -84q0 -22 -19.5 -39.5t-46.5 -17.5q-28 0 -47 17t-19 40q0 64 -104 64q-29 0 -50 -8t-32 -20t-18 -30
t-8.5 -33.5t-1.5 -34.5v-29h120q-15 -46 -25 -59t-27 -13zM402 442l136 9q32 3 32 -31v-494q0 -88 -89 -125q-58 -23 -107.5 -9.5t-74.5 54.5q-15 23 -10.5 51.5t29.5 41.5q30 12 49 3t28 -32q6 -14 11 -37t8.5 -33t11.5 -7q24 10 24 50v477q0 17 -6.5 24t-21.5 7h-20v51z
" />
    <glyph glyph-name="f_k" horiz-adv-x="935" 
d="M646 276l198 -202q16 -16 25.5 -20.5t30.5 -4.5v-49h-216v49q35 0 32 13q-1 3 -4 6l-161 155v-146q0 -28 32 -28v-49h-188v49q36 0 36 28v409q0 49 -45.5 87.5t-103.5 38.5q-28 0 -46 -11t-25 -33t-8.5 -38t-1.5 -44v-29h140q-15 -46 -25 -59t-27 -13h-88v-308
q0 -17 9.5 -22.5t42.5 -5.5v-49h-216v49q28 0 37 5.5t9 22.5v308h-43q-10 0 -10 10v62h53v17q0 87 49 140t150 53q60 0 124 -12l121 12q24 2 24 -19v-382l139 108q17 13 2 22q-9 5 -30 5v50h196v-50q-46 0 -73 -20z" />
    <glyph glyph-name="zero.osf" horiz-adv-x="554" 
d="M278 460q92 0 166.5 -61.5t74.5 -168.5q0 -57 -22 -104t-57.5 -75t-77.5 -43.5t-84 -15.5q-92 0 -167.5 61.5t-75.5 168.5q0 76 38.5 132t92.5 81t112 25zM398 210q0 72 -38.5 124t-91.5 52q-48 0 -79.5 -36.5t-31.5 -107.5q0 -75 38.5 -126.5t92.5 -51.5q47 0 78.5 36.5
t31.5 109.5z" />
    <glyph glyph-name="one.osf" horiz-adv-x="350" 
d="M240 444v-351q0 -5 2.5 -9t8 -7t10 -5t13.5 -4l13.5 -3t15 -3t12.5 -2v-60h-270v60q59 10 70 21q5 5 5 12v208q0 18 -7.5 26.5t-21.5 4.5l-51 -14v72l158 70q17 7 29.5 1.5t12.5 -17.5z" />
    <glyph glyph-name="two.osf" horiz-adv-x="568" 
d="M523 157l-30 -134q-5 -23 -45 -23h-403l121 106q18 16 49 42.5t45.5 39t34.5 32t28.5 32.5t15.5 29t7 31q0 38 -22 59.5t-56 21.5q-68 0 -76 -62q-2 -15 -2 -29t-2 -25q-18 -28 -49 -31t-54.5 15.5t-23.5 45.5q0 58 56 105.5t149 47.5q102 0 153 -42t51 -106
q0 -19 -7 -38.5t-16 -35t-26 -33t-29.5 -29t-35 -27.5t-33.5 -23.5t-33 -21.5t-27 -17l113 4q33 2 49.5 8.5t30.5 25.5l24 32h43z" />
    <glyph glyph-name="three.osf" horiz-adv-x="594" 
d="M543 41q0 -105 -84 -173t-199 -68q-157 0 -200 99q-8 34 27.5 51.5t67.5 -14.5q18 -37 41.5 -54t75.5 -17q56 0 98.5 43t42.5 114q0 57 -28 84.5t-63 27.5q-17 0 -38 -7l-47 -16l-19 54l48 19q55 21 80 47.5t25 75.5q0 39 -23 64t-67 25q-28 0 -48.5 -10.5t-32.5 -32
t-18 -39t-13 -45.5q-26 -31 -68.5 -15.5t-42.5 48.5q0 60 60 109t155 49q109 0 163 -43.5t54 -104.5q0 -50 -34.5 -84t-73.5 -42q47 5 103.5 -34t57.5 -111z" />
    <glyph glyph-name="four.osf" horiz-adv-x="588" 
d="M538 0h-81v-89q0 -8 5.5 -14t18 -9.5t22 -5.5t28.5 -4v-62h-271v62q25 3 37.5 5.5t24 9.5t11.5 18v89h-278v64l306 368q22 27 59 15.5t37 -46.5v-334h81v-67zM145 67h188v223z" />
    <glyph glyph-name="five.osf" horiz-adv-x="621" 
d="M566 43q0 -102 -91 -172.5t-198 -70.5q-81 0 -136.5 29.5t-77.5 80.5q-14 35 22 59t67 -1q12 -44 44.5 -71.5t84.5 -27.5q61 0 106.5 46t45.5 120q0 68 -37 109t-102 41q-92 0 -152 -49h-57l40 315h323l17 13l25 1l-11 -108l-17 -15h-286l-19 -148q55 70 166 70
q94 0 168.5 -57t74.5 -164z" />
    <glyph glyph-name="six.osf" horiz-adv-x="579" 
d="M452 581l-16 -24q-5 -9 -18 -3q-39 14 -95 14q-44 0 -73 -17.5t-44.5 -52.5t-22.5 -71.5t-11 -91.5q18 22 56 44t87 22q89 0 154 -56t65 -149q0 -86 -68 -147t-170 -61q-123 0 -187 85t-63 220q1 146 72.5 244.5t199.5 98.5q82 0 132 -37q9 -7 2 -18zM174 261
q-5 -88 27.5 -145.5t94.5 -57.5q64 0 90 41t26 100q0 57 -30 93.5t-77 36.5q-54 0 -92 -25t-39 -43z" />
    <glyph glyph-name="seven.osf" horiz-adv-x="579" 
d="M413 337h-289l-21 -45h-48l31 136q5 23 28 23h425l-315 -633h-41q-13 0 -20.5 10.5t-1.5 23.5z" />
    <glyph glyph-name="eight.osf" horiz-adv-x="610" 
d="M396 348q71 -14 117.5 -60.5t46.5 -116.5q0 -75 -74 -130t-183 -55q-115 0 -184 53t-69 137q0 56 41.5 100.5t107.5 68.5q-115 44 -115 131q0 67 62 109.5t158 42.5q91 0 151 -42.5t60 -111.5q0 -44 -35.5 -80.5t-83.5 -45.5zM284 384l51 -12q36 -8 61 29t25 75
q0 13 -4 26t-15 29t-37 26t-63 10q-96 0 -96 -91q0 -21 4 -36t22.5 -31.5t51.5 -24.5zM430 172q0 45 -24.5 73.5t-91.5 43.5l-77 18q-31 7 -57.5 -33t-26.5 -86q0 -128 149 -128q73 0 100.5 29.5t27.5 82.5z" />
    <glyph glyph-name="nine.osf" horiz-adv-x="579" 
d="M157 -132q234 21 251 237q-18 -22 -56 -44t-87 -22q-89 0 -154 56t-65 149t67.5 155.5t170.5 62.5q121 0 186 -86t64 -209q-1 -161 -97.5 -258t-274.5 -109q-14 -1 -21 15.5t-2.5 34t18.5 18.5zM406 179q5 89 -28 151t-94 62q-34 0 -58 -14t-36 -38t-17 -48t-5 -51
q0 -57 30 -93.5t77 -36.5q54 0 92 25t39 43z" />
    <glyph glyph-name="zero.tf" horiz-adv-x="600" 
d="M571 313q0 -135 -74 -230t-197 -95t-197 95t-74 230q0 134 74 228.5t197 94.5t197 -94.5t74 -228.5zM300 60q137 0 137 253q0 114 -32.5 182.5t-104.5 68.5t-105 -68t-33 -183q0 -253 138 -253z" />
    <glyph glyph-name="one.tf" horiz-adv-x="600" 
d="M360 609v-516q0 -8 7 -14t23.5 -9.5t28 -5.5t35.5 -4v-60h-307v60q23 2 35.5 4t28 5.5t22.5 9.5t7 14v373q0 18 -7.5 26.5t-21.5 4.5l-51 -14v72l158 70q17 7 29.5 1.5t12.5 -17.5z" />
    <glyph glyph-name="two.tf" horiz-adv-x="600" 
d="M557 147l-23 -124q-5 -23 -30 -23h-461q9 52 29 97.5t42.5 77.5t55 62.5t56.5 48t56 38.5q11 7 33 20.5t30.5 19.5t22.5 17.5t19.5 20.5t10 23t4.5 31q0 57 -30.5 85.5t-75.5 28.5q-96 0 -110 -64q-8 -34 -1 -64.5t6 -37.5q-17 -44 -70 -44q-29 0 -48 17t-19 39
q0 106 62 163.5t179 57.5q109 0 173 -47.5t64 -133.5q0 -32 -10.5 -60.5t-22.5 -47t-38.5 -40t-41 -31t-48 -29t-42.5 -24.5q-18 -11 -48 -28.5t-41.5 -24.5t-28 -19.5t-25.5 -25t-16 -28.5l244 -2q34 0 50 5t29 24l16 22h48z" />
    <glyph glyph-name="three.tf" horiz-adv-x="600" 
d="M388 371q34 3 69.5 -10.5t65 -53.5t29.5 -101q0 -88 -82.5 -153t-182.5 -65q-118 0 -184.5 46t-71.5 122q-5 69 57 69q27 0 41.5 -9.5t17.5 -21t7 -34t9 -35.5q12 -31 45 -49t81 -18q61 0 97.5 34t36.5 95q0 58 -28 89.5t-72 31.5q-20 0 -38 -6l-40 -14l-22 59l43 17
q58 24 84.5 50t26.5 68q0 41 -23 66t-73 25q-46 0 -70 -20t-28 -45q-2 -16 -2 -30t-2 -24q-16 -19 -43 -20.5t-47.5 13t-20.5 37.5q0 58 57 105.5t156 47.5q98 0 157.5 -45.5t59.5 -100.5q0 -50 -34.5 -82t-75.5 -38z" />
    <glyph glyph-name="four.tf" horiz-adv-x="600" 
d="M538 191h-76v-96q0 -8 5 -14t17.5 -9.5t18.5 -5t23 -4.5v-62h-251v62q55 9 64 22q3 5 3 11v96h-282v64l306 375q22 27 59 15.5t37 -46.5v-341h76v-67zM152 258h190v233z" />
    <glyph glyph-name="five.tf" horiz-adv-x="600" 
d="M538 204q0 -97 -75.5 -157t-187.5 -60q-114 0 -179 46.5t-70 121.5q-5 67 56 67q28 0 43 -9t18 -20.5t6.5 -33.5t8.5 -36q11 -30 42.5 -48.5t74.5 -18.5q58 0 93.5 30.5t35.5 99.5q0 77 -41.5 120.5t-106.5 43.5q-36 0 -77 -13t-60 -34h-58l24 317h349l17 13l30 1
l-11 -108l-17 -15h-309l-11 -127q76 48 164 48q38 0 78.5 -14t78 -40t61 -71.5t23.5 -102.5z" />
    <glyph glyph-name="six.tf" horiz-adv-x="600" 
d="M463 581l-16 -24q-5 -9 -18 -3q-39 14 -95 14q-44 0 -73 -17.5t-44.5 -52.5t-22.5 -71.5t-11 -91.5q18 22 56 44t87 22q89 0 154 -56t65 -149q0 -86 -68 -147t-170 -61q-123 0 -187 85t-63 220q1 146 72.5 244.5t199.5 98.5q82 0 132 -37q9 -7 2 -18zM185 261
q-5 -88 27.5 -145.5t94.5 -57.5q64 0 90 41t26 100q0 57 -30 93.5t-77 36.5q-54 0 -92 -25t-39 -43z" />
    <glyph glyph-name="seven.tf" horiz-adv-x="600" 
d="M410 507h-289l-21 -45h-48l31 136q5 23 28 23h425l-315 -626h-41q-14 0 -21.5 10.5t-0.5 23.5z" />
    <glyph glyph-name="eight.tf" horiz-adv-x="600" 
d="M389 348q71 -14 117.5 -60.5t46.5 -116.5q0 -75 -74 -130t-183 -55q-115 0 -184 53t-69 137q0 56 41.5 100.5t107.5 68.5q-115 44 -115 131q0 67 62 109.5t158 42.5q91 0 151 -42.5t60 -111.5q0 -44 -35.5 -80.5t-83.5 -45.5zM277 384l51 -12q36 -8 61 29t25 75
q0 13 -4 26t-15 29t-37 26t-63 10q-96 0 -96 -91q0 -21 4 -36t22.5 -31.5t51.5 -24.5zM423 172q0 45 -24.5 73.5t-91.5 43.5l-77 18q-31 7 -57.5 -33t-26.5 -86q0 -128 149 -128q73 0 100.5 29.5t27.5 82.5z" />
    <glyph glyph-name="nine.tf" horiz-adv-x="600" 
d="M137 43l16 24q5 9 18 3q39 -14 95 -14q44 0 73 17.5t44.5 52.5t22.5 71.5t11 91.5q-18 -22 -56 -44t-87 -22q-89 0 -154 56t-65 149q0 86 68 147t170 61q123 0 187 -85t63 -220q-1 -146 -72.5 -244.5t-199.5 -98.5q-82 0 -132 37q-9 7 -2 18zM415 363q5 88 -27.5 145.5
t-94.5 57.5q-64 0 -90 -41t-26 -100q0 -57 30 -93.5t77 -36.5q54 0 92 25t39 43z" />
    <glyph glyph-name="zero.dnom" horiz-adv-x="289" 
d="M254 116q0 -51 -30.5 -89t-78.5 -38q-49 0 -79.5 38t-30.5 89t30.5 89.5t79.5 38.5q48 0 78.5 -38.5t30.5 -89.5zM145 37q47 0 47 79q0 80 -47 80q-48 0 -48 -80q0 -79 48 -79z" />
    <glyph glyph-name="one.dnom" horiz-adv-x="198" 
d="M134 227v-182q0 -16 29 -18v-33h-121v33q29 2 29 18v143l-31 -10v39l56 25q13 6 26 0t12 -15z" />
    <glyph glyph-name="two.dnom" horiz-adv-x="306" 
d="M261 61l-10 -53q-3 -14 -21 -14h-185q15 75 100 127q46 28 46 56q0 16 -10.5 26t-25.5 10q-30 0 -36 -22q-3 -10 0 -21.5t2 -16.5q-7 -15 -23.5 -17.5t-30 6t-13.5 21.5q0 36 26 60.5t74 24.5q45 0 69 -20.5t24 -55.5q0 -17 -6 -30.5t-20.5 -25.5t-22 -16.5t-26.5 -16.5
q-25 -14 -33.5 -21.5t-12.5 -21.5h75q16 0 21 8l9 13h30z" />
    <glyph glyph-name="three.dnom" horiz-adv-x="322" 
d="M223 144q49 -16 49 -66q0 -38 -30 -63.5t-79 -25.5q-47 0 -75 23.5t-28 55.5q0 25 27 25q15 0 21 -5.5t8 -20t3 -17.5q10 -28 43 -28q21 0 34.5 15.5t12.5 33.5q1 31 -19.5 37t-46.5 -8l-15 30l24 11q36 13 36 44q0 29 -32 29q-19 0 -26.5 -18.5t-1.5 -38.5l-48 6
q-12 5 -12 14q-1 31 23.5 51t68.5 20t68.5 -19.5t24.5 -41.5q0 -29 -30 -43z" />
    <glyph glyph-name="four.dnom" horiz-adv-x="299" 
d="M249 65h-32v-30q0 -18 25 -18v-23h-114v23q24 0 24 18v30h-97v38l120 142q9 11 25.5 7t16.5 -16v-131h32v-40zM104 105h48v57z" />
    <glyph glyph-name="five.dnom" horiz-adv-x="330" 
d="M275 81q0 -42 -30 -67t-79 -25t-76.5 20.5t-29.5 57.5q-1 11 7 20t24 9q13 0 20.5 -5t9.5 -10.5t4 -16t3 -14.5q9 -29 38 -29q15 0 27.5 15.5t12.5 40.5q0 21 -14.5 37.5t-32.5 16.5q-15 0 -51 -14h-34l10 125h133l7 5h26l-3 -44l-12 -10h-110l-3 -38q22 16 57 16
q34 0 65 -25t31 -65z" />
    <glyph glyph-name="six.dnom" horiz-adv-x="293" 
d="M214 207q-7 -6 -12.5 -4.5t-18.5 6.5t-22 5q-39 0 -46 -67q18 10 47 10q35 0 61 -23.5t26 -59.5q0 -33 -26.5 -59t-72.5 -26q-55 0 -80 34.5t-25 87.5q0 54 29 95.5t85 41.5q34 0 57 -16q8 -6 -2 -25zM150 24q34 0 34 52q0 21 -8.5 33t-22.5 12q-17 0 -28.5 -5.5
t-11.5 -10.5q-1 -41 9.5 -61t27.5 -20z" />
    <glyph glyph-name="seven.dnom" horiz-adv-x="304" 
d="M192 193h-91l-6 -17h-40l12 52q3 14 21 14h176l-125 -250h-22q-13 0 -19 9t1 22z" />
    <glyph glyph-name="eight.dnom" horiz-adv-x="316" 
d="M211 133q23 -6 38 -25t15 -44q0 -31 -29 -53t-79 -22t-77 22t-27 58q0 22 14 40.5t35 21.5q-35 14 -35 50q0 25 24 44t66 19q40 0 65.5 -18.5t25.5 -43.5q0 -35 -36 -49zM152 153l20 -4q8 -1 15 10.5t7 21.5q0 31 -37 31q-16 0 -23.5 -9.5t-7.5 -20.5q0 -24 26 -29z
M196 65q0 30 -37 38l-29 6q-8 1 -14.5 -12t-6.5 -29q0 -18 12.5 -32t34.5 -14q40 0 40 43z" />
    <glyph glyph-name="nine.dnom" horiz-adv-x="295" 
d="M81 30q7 6 12.5 4.5t18.5 -6.5t22 -5q39 0 46 67q-18 -10 -47 -10q-35 0 -61 23.5t-26 59.5q0 33 26.5 59t72.5 26q55 0 80 -34.5t25 -87.5q0 -54 -29 -95.5t-85 -41.5q-34 0 -57 16q-8 6 2 25zM145 213q-34 0 -34 -52q0 -21 8.5 -33t22.5 -12q17 0 28.5 5.5t11.5 10.5
q1 41 -9.5 61t-27.5 20z" />
    <glyph glyph-name="zero.numr" horiz-adv-x="289" 
d="M254 515q0 -51 -30.5 -89t-78.5 -38q-49 0 -79.5 38t-30.5 89t30.5 89.5t79.5 38.5q48 0 78.5 -38.5t30.5 -89.5zM145 436q47 0 47 79q0 80 -47 80q-48 0 -48 -80q0 -79 48 -79z" />
    <glyph glyph-name="one.numr" horiz-adv-x="198" 
d="M134 625v-182q0 -16 29 -18v-33h-121v33q29 2 29 18v143l-31 -10v39l56 25q13 6 26 0t12 -15z" />
    <glyph glyph-name="two.numr" horiz-adv-x="306" 
d="M261 454l-10 -53q-3 -14 -21 -14h-185q15 75 100 127q46 28 46 56q0 16 -10.5 26t-25.5 10q-30 0 -36 -22q-3 -10 0 -21.5t2 -16.5q-7 -15 -23.5 -17.5t-30 6t-13.5 21.5q0 36 26 60.5t74 24.5q45 0 69 -20.5t24 -55.5q0 -17 -6 -30.5t-20.5 -25.5t-22 -16.5t-26.5 -16.5
q-25 -14 -33.5 -21.5t-12.5 -21.5h75q16 0 21 8l9 13h30z" />
    <glyph glyph-name="three.numr" horiz-adv-x="322" 
d="M223 538q49 -16 49 -66q0 -38 -30 -63.5t-79 -25.5q-47 0 -75 23.5t-28 55.5q0 25 27 25q15 0 21 -5.5t8 -20t3 -17.5q10 -28 43 -28q21 0 34.5 15.5t12.5 33.5q1 31 -19.5 37t-46.5 -8l-15 30l24 11q36 13 36 44q0 29 -32 29q-19 0 -26.5 -18.5t-1.5 -38.5l-48 6
q-12 5 -12 14q-1 31 23.5 51t68.5 20t68.5 -19.5t24.5 -41.5q0 -29 -30 -43z" />
    <glyph glyph-name="four.numr" horiz-adv-x="299" 
d="M249 456h-32v-30q0 -18 25 -18v-23h-114v23q24 0 24 18v30h-97v38l120 142q9 11 25.5 7t16.5 -16v-131h32v-40zM104 496h48v57z" />
    <glyph glyph-name="five.numr" horiz-adv-x="330" 
d="M275 481q0 -42 -30 -67t-79 -25t-76.5 20.5t-29.5 57.5q-1 11 7 20t24 9q13 0 20.5 -5t9.5 -10.5t4 -16t3 -14.5q9 -29 38 -29q15 0 27.5 15.5t12.5 40.5q0 21 -14.5 37.5t-32.5 16.5q-15 0 -51 -14h-34l10 125h133l7 5h26l-3 -44l-12 -10h-110l-3 -38q22 16 57 16
q34 0 65 -25t31 -65z" />
    <glyph glyph-name="six.numr" horiz-adv-x="293" 
d="M214 600q-7 -6 -12.5 -4.5t-18.5 6.5t-22 5q-39 0 -46 -67q18 10 47 10q35 0 61 -23.5t26 -59.5q0 -33 -26.5 -59t-72.5 -26q-55 0 -80 34.5t-25 87.5q0 54 29 95.5t85 41.5q34 0 57 -16q8 -6 -2 -25zM150 417q34 0 34 52q0 21 -8.5 33t-22.5 12q-17 0 -28.5 -5.5
t-11.5 -10.5q-1 -41 9.5 -61t27.5 -20z" />
    <glyph glyph-name="seven.numr" horiz-adv-x="303" 
d="M192 591h-91l-6 -17h-40l12 52q3 14 21 14h176l-125 -250h-22q-13 0 -19 9t1 22z" />
    <glyph glyph-name="eight.numr" horiz-adv-x="316" 
d="M211 531q23 -6 38 -25t15 -44q0 -31 -29 -53t-79 -22t-77 22t-27 58q0 22 14 40.5t35 21.5q-35 14 -35 50q0 25 24 44t66 19q40 0 65.5 -18.5t25.5 -43.5q0 -35 -36 -49zM152 551l20 -4q8 -1 15 10.5t7 21.5q0 31 -37 31q-16 0 -23.5 -9.5t-7.5 -20.5q0 -24 26 -29z
M196 463q0 30 -37 38l-29 6q-8 1 -14.5 -12t-6.5 -29q0 -18 12.5 -32t34.5 -14q40 0 40 43z" />
    <glyph glyph-name="nine.numr" horiz-adv-x="295" 
d="M81 424q7 6 12.5 4.5t18.5 -6.5t22 -5q39 0 46 67q-18 -10 -47 -10q-35 0 -61 23.5t-26 59.5q0 33 26.5 59t72.5 26q55 0 80 -34.5t25 -87.5q0 -54 -29 -95.5t-85 -41.5q-34 0 -57 16q-8 6 2 25zM145 607q-34 0 -34 -52q0 -21 8.5 -33t22.5 -12q17 0 28.5 5.5t11.5 10.5
q1 41 -9.5 61t-27.5 20z" />
    </font>
</defs>
</svg>
